%TF.GenerationSoftware,KiCad,Pcbnew,(6.0.7)*%
%TF.CreationDate,2022-10-20T09:52:42+02:00*%
%TF.ProjectId,Hopper-mx,486f7070-6572-42d6-9d78-2e6b69636164,rev?*%
%TF.SameCoordinates,Original*%
%TF.FileFunction,Soldermask,Top*%
%TF.FilePolarity,Negative*%
%FSLAX46Y46*%
G04 Gerber Fmt 4.6, Leading zero omitted, Abs format (unit mm)*
G04 Created by KiCad (PCBNEW (6.0.7)) date 2022-10-20 09:52:42*
%MOMM*%
%LPD*%
G01*
G04 APERTURE LIST*
G04 Aperture macros list*
%AMRotRect*
0 Rectangle, with rotation*
0 The origin of the aperture is its center*
0 $1 length*
0 $2 width*
0 $3 Rotation angle, in degrees counterclockwise*
0 Add horizontal line*
21,1,$1,$2,0,0,$3*%
%AMFreePoly0*
4,1,6,0.600000,0.200000,0.000000,-0.400000,-0.600000,0.200000,-0.600000,0.400000,0.600000,0.400000,0.600000,0.200000,0.600000,0.200000,$1*%
%AMFreePoly1*
4,1,6,0.600000,-0.250000,-0.600000,-0.250000,-0.600000,1.000000,0.000000,0.400000,0.600000,1.000000,0.600000,-0.250000,0.600000,-0.250000,$1*%
G04 Aperture macros list end*
%ADD10C,0.100000*%
%ADD11R,1.600000X1.600000*%
%ADD12C,1.600000*%
%ADD13C,3.500000*%
%ADD14RotRect,1.600000X1.600000X185.000000*%
%ADD15C,1.900000*%
%ADD16C,3.000000*%
%ADD17C,4.100000*%
%ADD18RotRect,1.600000X1.600000X183.000000*%
%ADD19C,1.397000*%
%ADD20RotRect,1.600000X1.600000X176.000000*%
%ADD21RotRect,1.600000X1.600000X177.000000*%
%ADD22C,4.000000*%
%ADD23C,0.800000*%
%ADD24O,2.200000X1.700000*%
%ADD25FreePoly0,270.000000*%
%ADD26FreePoly0,90.000000*%
%ADD27FreePoly1,270.000000*%
%ADD28FreePoly1,90.000000*%
%ADD29C,0.900000*%
%ADD30FreePoly0,180.000000*%
%ADD31FreePoly1,180.000000*%
G04 APERTURE END LIST*
%TO.C,L7*%
G36*
X79519486Y-77558593D02*
G01*
X78025194Y-77689326D01*
X77959827Y-76942180D01*
X79454119Y-76811447D01*
X79519486Y-77558593D01*
G37*
D10*
X79519486Y-77558593D02*
X78025194Y-77689326D01*
X77959827Y-76942180D01*
X79454119Y-76811447D01*
X79519486Y-77558593D01*
G36*
X84500459Y-77122814D02*
G01*
X83006167Y-77253548D01*
X82940800Y-76506402D01*
X84435093Y-76375668D01*
X84500459Y-77122814D01*
G37*
X84500459Y-77122814D02*
X83006167Y-77253548D01*
X82940800Y-76506402D01*
X84435093Y-76375668D01*
X84500459Y-77122814D01*
G36*
X79672008Y-79301933D02*
G01*
X78426765Y-79410878D01*
X78155927Y-79183618D01*
X78112350Y-78685521D01*
X79606642Y-78554787D01*
X79672008Y-79301933D01*
G37*
X79672008Y-79301933D02*
X78426765Y-79410878D01*
X78155927Y-79183618D01*
X78112350Y-78685521D01*
X79606642Y-78554787D01*
X79672008Y-79301933D01*
G36*
X84652982Y-78866155D02*
G01*
X83158690Y-78996888D01*
X83093323Y-78249742D01*
X84587615Y-78119009D01*
X84652982Y-78866155D01*
G37*
X84652982Y-78866155D02*
X83158690Y-78996888D01*
X83093323Y-78249742D01*
X84587615Y-78119009D01*
X84652982Y-78866155D01*
%TO.C,L13*%
G36*
X104609830Y-88626696D02*
G01*
X103115538Y-88757429D01*
X103050171Y-88010283D01*
X104544463Y-87879550D01*
X104609830Y-88626696D01*
G37*
X104609830Y-88626696D02*
X103115538Y-88757429D01*
X103050171Y-88010283D01*
X104544463Y-87879550D01*
X104609830Y-88626696D01*
G36*
X104457307Y-86883355D02*
G01*
X102963015Y-87014089D01*
X102897648Y-86266943D01*
X104391941Y-86136209D01*
X104457307Y-86883355D01*
G37*
X104457307Y-86883355D02*
X102963015Y-87014089D01*
X102897648Y-86266943D01*
X104391941Y-86136209D01*
X104457307Y-86883355D01*
G36*
X99628856Y-89062474D02*
G01*
X98383613Y-89171419D01*
X98112775Y-88944159D01*
X98069198Y-88446062D01*
X99563490Y-88315328D01*
X99628856Y-89062474D01*
G37*
X99628856Y-89062474D02*
X98383613Y-89171419D01*
X98112775Y-88944159D01*
X98069198Y-88446062D01*
X99563490Y-88315328D01*
X99628856Y-89062474D01*
G36*
X99476334Y-87319134D02*
G01*
X97982042Y-87449867D01*
X97916675Y-86702721D01*
X99410967Y-86571988D01*
X99476334Y-87319134D01*
G37*
X99476334Y-87319134D02*
X97982042Y-87449867D01*
X97916675Y-86702721D01*
X99410967Y-86571988D01*
X99476334Y-87319134D01*
%TO.C,D7*%
G36*
X84862305Y-91298219D02*
G01*
X83666871Y-91402806D01*
X83592789Y-90556040D01*
X84788222Y-90451453D01*
X84862305Y-91298219D01*
G37*
X84862305Y-91298219D02*
X83666871Y-91402806D01*
X83592789Y-90556040D01*
X84788222Y-90451453D01*
X84862305Y-91298219D01*
G36*
X81325813Y-91607622D02*
G01*
X80130380Y-91712209D01*
X80056297Y-90865443D01*
X81251731Y-90760856D01*
X81325813Y-91607622D01*
G37*
X81325813Y-91607622D02*
X80130380Y-91712209D01*
X80056297Y-90865443D01*
X81251731Y-90760856D01*
X81325813Y-91607622D01*
%TO.C,L19*%
G36*
X174899731Y-96449669D02*
G01*
X174705617Y-97174114D01*
X173256728Y-96785885D01*
X173450843Y-96061441D01*
X174899731Y-96449669D01*
G37*
X174899731Y-96449669D02*
X174705617Y-97174114D01*
X173256728Y-96785885D01*
X173450843Y-96061441D01*
X174899731Y-96449669D01*
G36*
X170523036Y-93465204D02*
G01*
X170328921Y-94189648D01*
X168880032Y-93801420D01*
X169074147Y-93076975D01*
X170523036Y-93465204D01*
G37*
X170523036Y-93465204D02*
X170328921Y-94189648D01*
X168880032Y-93801420D01*
X169074147Y-93076975D01*
X170523036Y-93465204D01*
G36*
X170070102Y-95155574D02*
G01*
X169875988Y-95880018D01*
X168668581Y-95556495D01*
X168491804Y-95250308D01*
X168621213Y-94767345D01*
X170070102Y-95155574D01*
G37*
X170070102Y-95155574D02*
X169875988Y-95880018D01*
X168668581Y-95556495D01*
X168491804Y-95250308D01*
X168621213Y-94767345D01*
X170070102Y-95155574D01*
G36*
X175352665Y-94759299D02*
G01*
X175158550Y-95483743D01*
X173709662Y-95095515D01*
X173903776Y-94371070D01*
X175352665Y-94759299D01*
G37*
X175352665Y-94759299D02*
X175158550Y-95483743D01*
X173709662Y-95095515D01*
X173903776Y-94371070D01*
X175352665Y-94759299D01*
%TO.C,D20*%
G36*
X160863337Y-90775968D02*
G01*
X160013337Y-90775968D01*
X160013337Y-89575968D01*
X160863337Y-89575968D01*
X160863337Y-90775968D01*
G37*
X160863337Y-90775968D02*
X160013337Y-90775968D01*
X160013337Y-89575968D01*
X160863337Y-89575968D01*
X160863337Y-90775968D01*
G36*
X160863337Y-94325968D02*
G01*
X160013337Y-94325968D01*
X160013337Y-93125968D01*
X160863337Y-93125968D01*
X160863337Y-94325968D01*
G37*
X160863337Y-94325968D02*
X160013337Y-94325968D01*
X160013337Y-93125968D01*
X160863337Y-93125968D01*
X160863337Y-94325968D01*
%TO.C,SW17*%
G36*
X173743796Y-80447650D02*
G01*
X173611259Y-82343022D01*
X171416618Y-82189558D01*
X171549155Y-80294186D01*
X173743796Y-80447650D01*
G37*
X173743796Y-80447650D02*
X173611259Y-82343022D01*
X171416618Y-82189558D01*
X171549155Y-80294186D01*
X173743796Y-80447650D01*
G36*
X186235678Y-83867370D02*
G01*
X186103141Y-85762742D01*
X183908500Y-85609278D01*
X184041037Y-83713906D01*
X186235678Y-83867370D01*
G37*
X186235678Y-83867370D02*
X186103141Y-85762742D01*
X183908500Y-85609278D01*
X184041037Y-83713906D01*
X186235678Y-83867370D01*
%TO.C,SW4*%
G36*
X134294392Y-35753529D02*
G01*
X132094392Y-35753529D01*
X132094392Y-33853529D01*
X134294392Y-33853529D01*
X134294392Y-35753529D01*
G37*
X134294392Y-35753529D02*
X132094392Y-35753529D01*
X132094392Y-33853529D01*
X134294392Y-33853529D01*
X134294392Y-35753529D01*
G36*
X146994392Y-38293529D02*
G01*
X144794392Y-38293529D01*
X144794392Y-36393529D01*
X146994392Y-36393529D01*
X146994392Y-38293529D01*
G37*
X146994392Y-38293529D02*
X144794392Y-38293529D01*
X144794392Y-36393529D01*
X146994392Y-36393529D01*
X146994392Y-38293529D01*
%TO.C,*%
G36*
X117461145Y-92708485D02*
G01*
X117520508Y-92720449D01*
X117558568Y-92733866D01*
X117599567Y-92751488D01*
X117639926Y-92771474D01*
X117676061Y-92791984D01*
X117704392Y-92811177D01*
X117715523Y-92820673D01*
X117741355Y-92853209D01*
X117754917Y-92889885D01*
X117757869Y-92922644D01*
X117751893Y-92971836D01*
X117733632Y-93015897D01*
X117702585Y-93055674D01*
X117658251Y-93092015D01*
X117657513Y-93092518D01*
X117637531Y-93110882D01*
X117619108Y-93135781D01*
X117614086Y-93144765D01*
X117605810Y-93162826D01*
X117600592Y-93180178D01*
X117597755Y-93200908D01*
X117596626Y-93229106D01*
X117596487Y-93251423D01*
X117598547Y-93312934D01*
X117605171Y-93363108D01*
X117617031Y-93404089D01*
X117634796Y-93438022D01*
X117659137Y-93467049D01*
X117665829Y-93473341D01*
X117707756Y-93503899D01*
X117754298Y-93525285D01*
X117802051Y-93536371D01*
X117847606Y-93536029D01*
X117852592Y-93535198D01*
X117875178Y-93529897D01*
X117893685Y-93522005D01*
X117911438Y-93509243D01*
X117931764Y-93489337D01*
X117951394Y-93467556D01*
X117983731Y-93433739D01*
X118011138Y-93412137D01*
X118034746Y-93402308D01*
X118055689Y-93403812D01*
X118075098Y-93416207D01*
X118077442Y-93418469D01*
X118090680Y-93436321D01*
X118094980Y-93455750D01*
X118089827Y-93478175D01*
X118074710Y-93505018D01*
X118049117Y-93537699D01*
X118024646Y-93564862D01*
X117984440Y-93602774D01*
X117944017Y-93629726D01*
X117901681Y-93645948D01*
X117855735Y-93651671D01*
X117804482Y-93647124D01*
X117746227Y-93632538D01*
X117686010Y-93610861D01*
X117642968Y-93589986D01*
X117606407Y-93563293D01*
X117572619Y-93527743D01*
X117552594Y-93501539D01*
X117530864Y-93471279D01*
X117471805Y-93534571D01*
X117415886Y-93588183D01*
X117360386Y-93628472D01*
X117304354Y-93656080D01*
X117281222Y-93663821D01*
X117254652Y-93670361D01*
X117229453Y-93673385D01*
X117202484Y-93672672D01*
X117170603Y-93668000D01*
X117130667Y-93659146D01*
X117098311Y-93650887D01*
X117062666Y-93641193D01*
X117029759Y-93631685D01*
X117003164Y-93623432D01*
X116986457Y-93617502D01*
X116986045Y-93617328D01*
X116955609Y-93602206D01*
X116925184Y-93583469D01*
X116898221Y-93563595D01*
X116878171Y-93545064D01*
X116869930Y-93533900D01*
X116862610Y-93507590D01*
X116866487Y-93482503D01*
X116880734Y-93462856D01*
X116884395Y-93460183D01*
X116893284Y-93455362D01*
X116902314Y-93454443D01*
X116914761Y-93458265D01*
X116933898Y-93467669D01*
X116952197Y-93477566D01*
X116983261Y-93493033D01*
X117021060Y-93509625D01*
X117058884Y-93524449D01*
X117070244Y-93528465D01*
X117135463Y-93546403D01*
X117193546Y-93552820D01*
X117245683Y-93547490D01*
X117293064Y-93530189D01*
X117336879Y-93500691D01*
X117366186Y-93472534D01*
X117404602Y-93424892D01*
X117432686Y-93374969D01*
X117453157Y-93317726D01*
X117456491Y-93305292D01*
X117464569Y-93268168D01*
X117470707Y-93228938D01*
X117474657Y-93190798D01*
X117476168Y-93156947D01*
X117474993Y-93130584D01*
X117471251Y-93115551D01*
X117462206Y-93105150D01*
X117444559Y-93089587D01*
X117421385Y-93071483D01*
X117408899Y-93062446D01*
X117344716Y-93014851D01*
X117293507Y-92971522D01*
X117255025Y-92932022D01*
X117229023Y-92895917D01*
X117215253Y-92862771D01*
X117213468Y-92832148D01*
X117223419Y-92803615D01*
X117244859Y-92776735D01*
X117245816Y-92775817D01*
X117290968Y-92742274D01*
X117343357Y-92719579D01*
X117400808Y-92708170D01*
X117461145Y-92708485D01*
G37*
G36*
X112438072Y-96394866D02*
G01*
X112461354Y-96321159D01*
X112492505Y-96253572D01*
X112530719Y-96193692D01*
X112575188Y-96143104D01*
X112625106Y-96103394D01*
X112656819Y-96085694D01*
X112680269Y-96075239D01*
X112700062Y-96068812D01*
X112721132Y-96065468D01*
X112748416Y-96064259D01*
X112769084Y-96064164D01*
X112803036Y-96064778D01*
X112827852Y-96067053D01*
X112848407Y-96071871D01*
X112869577Y-96080111D01*
X112877570Y-96083750D01*
X112926837Y-96111097D01*
X112972516Y-96146294D01*
X113017290Y-96191591D01*
X113043505Y-96222881D01*
X113063680Y-96247630D01*
X113080879Y-96267707D01*
X113093152Y-96280899D01*
X113098360Y-96285059D01*
X113104181Y-96278690D01*
X113114950Y-96260083D01*
X113130296Y-96229986D01*
X113149851Y-96189148D01*
X113173245Y-96138317D01*
X113198180Y-96082605D01*
X113241944Y-95986620D01*
X113283402Y-95902082D01*
X113323780Y-95826855D01*
X113364307Y-95758805D01*
X113406209Y-95695798D01*
X113450716Y-95635700D01*
X113467092Y-95615010D01*
X113558593Y-95506660D01*
X113655638Y-95402560D01*
X113759560Y-95301541D01*
X113871692Y-95202432D01*
X113993365Y-95104063D01*
X114125913Y-95005263D01*
X114270668Y-94904863D01*
X114291681Y-94890814D01*
X114391902Y-94825360D01*
X114483967Y-94768107D01*
X114570161Y-94717881D01*
X114652770Y-94673509D01*
X114734078Y-94633815D01*
X114816372Y-94597627D01*
X114901937Y-94563770D01*
X114989830Y-94532180D01*
X115055943Y-94509326D01*
X115109862Y-94490485D01*
X115152708Y-94475234D01*
X115185601Y-94463152D01*
X115209662Y-94453818D01*
X115226012Y-94446811D01*
X115235772Y-94441709D01*
X115240061Y-94438091D01*
X115240068Y-94438080D01*
X115246309Y-94417304D01*
X115246454Y-94385360D01*
X115240683Y-94343630D01*
X115229178Y-94293496D01*
X115214765Y-94244497D01*
X115201532Y-94202468D01*
X115189514Y-94162463D01*
X115178045Y-94121965D01*
X115166460Y-94078457D01*
X115154094Y-94029423D01*
X115140282Y-93972346D01*
X115124359Y-93904710D01*
X115119862Y-93885390D01*
X115105764Y-93826504D01*
X115090582Y-93766232D01*
X115074987Y-93707005D01*
X115059650Y-93651253D01*
X115045245Y-93601406D01*
X115032441Y-93559893D01*
X115021910Y-93529146D01*
X115020103Y-93524417D01*
X115007416Y-93486913D01*
X114994265Y-93438941D01*
X114981422Y-93384011D01*
X114969662Y-93325632D01*
X114959759Y-93267314D01*
X114953694Y-93223084D01*
X114948407Y-93168443D01*
X114944508Y-93106232D01*
X114941998Y-93039312D01*
X114940881Y-92970540D01*
X114941157Y-92902774D01*
X114942830Y-92838873D01*
X114945901Y-92781694D01*
X114950372Y-92734096D01*
X114953328Y-92713623D01*
X114986965Y-92552962D01*
X115031828Y-92400664D01*
X115077815Y-92280060D01*
X115112181Y-92198969D01*
X115078946Y-92166862D01*
X115051234Y-92142822D01*
X115012308Y-92113111D01*
X114963420Y-92078498D01*
X114905826Y-92039750D01*
X114840780Y-91997634D01*
X114769536Y-91952918D01*
X114693348Y-91906368D01*
X114613471Y-91858753D01*
X114531159Y-91810840D01*
X114447666Y-91763396D01*
X114364247Y-91717189D01*
X114282156Y-91672985D01*
X114210990Y-91635830D01*
X114091846Y-91575569D01*
X113982291Y-91522267D01*
X113880233Y-91475105D01*
X113783579Y-91433264D01*
X113690236Y-91395926D01*
X113598113Y-91362273D01*
X113505118Y-91331486D01*
X113409157Y-91302747D01*
X113308138Y-91275237D01*
X113253228Y-91261225D01*
X113187361Y-91244785D01*
X113133312Y-91231416D01*
X113089293Y-91220746D01*
X113053518Y-91212402D01*
X113024199Y-91206014D01*
X112999549Y-91201208D01*
X112977782Y-91197614D01*
X112957110Y-91194860D01*
X112935746Y-91192573D01*
X112913401Y-91190514D01*
X112853088Y-91183891D01*
X112802568Y-91175105D01*
X112757646Y-91163094D01*
X112714125Y-91146795D01*
X112680831Y-91131579D01*
X112618683Y-91094096D01*
X112566778Y-91047409D01*
X112525765Y-90992555D01*
X112496292Y-90930572D01*
X112479010Y-90862498D01*
X112476252Y-90826164D01*
X112583215Y-90826164D01*
X112584128Y-90856566D01*
X112587701Y-90879018D01*
X112595328Y-90899547D01*
X112604119Y-90916532D01*
X112621426Y-90942155D01*
X112642965Y-90966512D01*
X112655609Y-90977683D01*
X112694898Y-91001895D01*
X112743817Y-91023064D01*
X112798044Y-91039658D01*
X112853259Y-91050144D01*
X112863254Y-91051294D01*
X112937785Y-91061079D01*
X113022597Y-91075957D01*
X113115180Y-91095251D01*
X113213024Y-91118282D01*
X113313619Y-91144371D01*
X113414454Y-91172842D01*
X113513019Y-91203014D01*
X113606805Y-91234210D01*
X113693300Y-91265752D01*
X113766009Y-91295236D01*
X113858274Y-91336316D01*
X113959921Y-91383946D01*
X114068635Y-91436924D01*
X114182103Y-91494046D01*
X114298008Y-91554110D01*
X114414037Y-91615914D01*
X114527874Y-91678256D01*
X114637204Y-91739931D01*
X114739714Y-91799738D01*
X114757344Y-91810261D01*
X114797623Y-91834952D01*
X114843221Y-91863828D01*
X114891354Y-91895042D01*
X114939241Y-91926747D01*
X114984099Y-91957098D01*
X115023146Y-91984248D01*
X115053599Y-92006351D01*
X115058850Y-92010338D01*
X115086728Y-92030742D01*
X115117453Y-92051732D01*
X115139541Y-92065780D01*
X115179277Y-92089771D01*
X115193311Y-92072823D01*
X115205008Y-92058377D01*
X115221480Y-92037653D01*
X115236918Y-92018002D01*
X115254588Y-91997188D01*
X115280323Y-91969250D01*
X115311812Y-91936511D01*
X115346742Y-91901292D01*
X115382800Y-91865915D01*
X115417675Y-91832704D01*
X115449055Y-91803980D01*
X115456939Y-91797023D01*
X115479355Y-91777587D01*
X115508084Y-91752873D01*
X115538725Y-91726662D01*
X115556926Y-91711169D01*
X115581070Y-91690415D01*
X115600685Y-91673079D01*
X115613632Y-91661084D01*
X115617813Y-91656433D01*
X115615367Y-91653060D01*
X115607668Y-91644412D01*
X115594173Y-91629923D01*
X115574339Y-91609028D01*
X115547626Y-91581163D01*
X115513489Y-91545763D01*
X115471388Y-91502263D01*
X115420779Y-91450098D01*
X115361121Y-91388703D01*
X115333642Y-91360447D01*
X115272891Y-91298913D01*
X115213050Y-91240320D01*
X115152463Y-91183210D01*
X115089475Y-91126127D01*
X115022429Y-91067611D01*
X114949671Y-91006205D01*
X114869545Y-90940451D01*
X114780394Y-90868891D01*
X114730897Y-90829672D01*
X114647245Y-90764897D01*
X114571137Y-90708809D01*
X114500382Y-90659988D01*
X114432788Y-90617015D01*
X114366163Y-90578473D01*
X114298313Y-90542942D01*
X114256598Y-90522711D01*
X114181965Y-90489250D01*
X114103380Y-90457215D01*
X114024029Y-90427732D01*
X113947101Y-90401926D01*
X113875782Y-90380923D01*
X113813258Y-90365847D01*
X113811045Y-90365395D01*
X113788449Y-90361311D01*
X113764518Y-90358162D01*
X113737087Y-90355837D01*
X113703991Y-90354227D01*
X113663065Y-90353222D01*
X113612144Y-90352711D01*
X113558449Y-90352585D01*
X113484479Y-90352984D01*
X113421552Y-90354419D01*
X113366697Y-90357216D01*
X113316943Y-90361702D01*
X113269316Y-90368202D01*
X113220846Y-90377044D01*
X113168562Y-90388555D01*
X113117388Y-90401062D01*
X113057898Y-90417522D01*
X113004451Y-90435864D01*
X112953512Y-90457710D01*
X112901543Y-90484680D01*
X112845009Y-90518397D01*
X112804167Y-90544680D01*
X112741287Y-90587927D01*
X112690514Y-90627406D01*
X112650855Y-90664382D01*
X112621318Y-90700119D01*
X112600909Y-90735883D01*
X112588637Y-90772938D01*
X112583509Y-90812548D01*
X112583215Y-90826164D01*
X112476252Y-90826164D01*
X112474388Y-90801606D01*
X112479134Y-90738197D01*
X112494058Y-90680936D01*
X112520186Y-90627476D01*
X112558547Y-90575471D01*
X112586653Y-90545203D01*
X112645344Y-90492739D01*
X112715039Y-90441465D01*
X112792719Y-90393056D01*
X112875363Y-90349185D01*
X112959952Y-90311526D01*
X113043464Y-90281755D01*
X113062925Y-90276229D01*
X113992013Y-90276229D01*
X114005749Y-90289475D01*
X114016280Y-90294592D01*
X114031560Y-90300831D01*
X114057050Y-90311181D01*
X114089943Y-90324505D01*
X114127435Y-90339667D01*
X114154858Y-90350743D01*
X114232094Y-90382839D01*
X114300009Y-90413348D01*
X114361761Y-90444047D01*
X114420508Y-90476714D01*
X114479405Y-90513127D01*
X114541611Y-90555065D01*
X114610283Y-90604305D01*
X114627155Y-90616725D01*
X114709416Y-90677854D01*
X114783600Y-90733824D01*
X114851255Y-90785991D01*
X114913928Y-90835710D01*
X114973167Y-90884336D01*
X115030520Y-90933224D01*
X115087534Y-90983729D01*
X115145756Y-91037207D01*
X115206735Y-91095012D01*
X115272017Y-91158499D01*
X115343151Y-91229024D01*
X115421684Y-91307942D01*
X115454836Y-91341475D01*
X115505492Y-91392562D01*
X115553093Y-91440134D01*
X115596729Y-91483310D01*
X115635486Y-91521206D01*
X115668455Y-91552943D01*
X115694723Y-91577636D01*
X115713379Y-91594404D01*
X115723511Y-91602364D01*
X115724975Y-91602884D01*
X115733807Y-91599343D01*
X115753637Y-91591420D01*
X115782428Y-91579927D01*
X115818142Y-91565677D01*
X115858742Y-91549485D01*
X115873918Y-91543434D01*
X115916301Y-91526600D01*
X115955048Y-91511333D01*
X115987988Y-91498478D01*
X116012950Y-91488880D01*
X116027766Y-91483384D01*
X116030037Y-91482621D01*
X116040035Y-91477901D01*
X116045065Y-91470488D01*
X116044540Y-91459159D01*
X116037872Y-91442686D01*
X116024474Y-91419846D01*
X116003759Y-91389411D01*
X115975139Y-91350157D01*
X115951352Y-91318450D01*
X115822581Y-91159263D01*
X115681982Y-91006720D01*
X115530587Y-90861851D01*
X115369430Y-90725686D01*
X115312592Y-90681553D01*
X115179146Y-90584105D01*
X115050638Y-90498520D01*
X114925721Y-90424113D01*
X114803049Y-90360199D01*
X114681275Y-90306094D01*
X114559052Y-90261112D01*
X114435034Y-90224569D01*
X114393421Y-90214230D01*
X114348782Y-90206116D01*
X114298843Y-90201213D01*
X114246030Y-90199351D01*
X114192770Y-90200361D01*
X114141489Y-90204072D01*
X114094613Y-90210314D01*
X114054568Y-90218918D01*
X114023781Y-90229713D01*
X114005759Y-90241392D01*
X113992039Y-90260316D01*
X113992013Y-90276229D01*
X113062925Y-90276229D01*
X113081322Y-90271005D01*
X113150876Y-90255556D01*
X113230346Y-90242187D01*
X113315718Y-90231294D01*
X113402976Y-90223272D01*
X113488104Y-90218518D01*
X113567087Y-90217427D01*
X113611073Y-90218757D01*
X113652847Y-90221267D01*
X113696374Y-90224521D01*
X113738754Y-90228236D01*
X113777089Y-90232130D01*
X113808479Y-90235920D01*
X113830026Y-90239325D01*
X113835618Y-90240622D01*
X113846110Y-90236603D01*
X113860236Y-90220639D01*
X113867127Y-90210380D01*
X113894977Y-90170577D01*
X113924163Y-90138850D01*
X113956597Y-90114394D01*
X113994187Y-90096402D01*
X114038845Y-90084068D01*
X114092482Y-90076587D01*
X114157008Y-90073152D01*
X114193449Y-90072700D01*
X114251069Y-90073532D01*
X114303263Y-90076696D01*
X114353164Y-90082763D01*
X114403905Y-90092306D01*
X114458619Y-90105895D01*
X114520439Y-90124104D01*
X114579360Y-90143124D01*
X114672838Y-90176826D01*
X114765061Y-90215750D01*
X114858268Y-90261032D01*
X114954695Y-90313809D01*
X115056577Y-90375214D01*
X115131838Y-90423611D01*
X115317241Y-90553127D01*
X115491136Y-90690343D01*
X115654075Y-90835783D01*
X115806609Y-90989967D01*
X115949287Y-91153419D01*
X116078660Y-91321137D01*
X116103428Y-91354785D01*
X116126756Y-91385603D01*
X116146840Y-91411271D01*
X116161877Y-91429474D01*
X116168513Y-91436606D01*
X116187295Y-91454147D01*
X116353369Y-91454514D01*
X116407112Y-91454759D01*
X116451820Y-91455465D01*
X116490285Y-91456977D01*
X116525300Y-91459643D01*
X116559658Y-91463809D01*
X116596150Y-91469821D01*
X116637569Y-91478026D01*
X116686709Y-91488769D01*
X116746361Y-91502398D01*
X116754498Y-91504277D01*
X116836207Y-91524328D01*
X116907770Y-91544693D01*
X116973037Y-91566697D01*
X117035859Y-91591669D01*
X117100086Y-91620936D01*
X117117470Y-91629402D01*
X117206405Y-91675019D01*
X117286171Y-91720129D01*
X117359775Y-91766850D01*
X117430225Y-91817296D01*
X117500529Y-91873584D01*
X117573697Y-91937829D01*
X117628062Y-91988510D01*
X117721438Y-92078219D01*
X117805742Y-92161136D01*
X117880688Y-92236956D01*
X117945989Y-92305379D01*
X118001361Y-92366099D01*
X118046517Y-92418815D01*
X118081172Y-92463224D01*
X118095877Y-92484339D01*
X118120816Y-92524785D01*
X118149396Y-92575441D01*
X118180159Y-92633443D01*
X118211647Y-92695926D01*
X118242401Y-92760026D01*
X118270964Y-92822879D01*
X118286302Y-92858463D01*
X118336231Y-92988305D01*
X118376561Y-93117317D01*
X118407038Y-93244096D01*
X118427411Y-93367241D01*
X118437425Y-93485349D01*
X118436828Y-93597019D01*
X118431186Y-93661044D01*
X118420999Y-93724090D01*
X118405449Y-93787796D01*
X118383593Y-93855332D01*
X118354488Y-93929865D01*
X118343557Y-93955556D01*
X118312444Y-94026237D01*
X118283980Y-94087563D01*
X118256773Y-94141526D01*
X118229431Y-94190115D01*
X118200562Y-94235322D01*
X118168775Y-94279135D01*
X118132678Y-94323547D01*
X118090879Y-94370546D01*
X118041987Y-94422124D01*
X117984609Y-94480271D01*
X117958424Y-94506357D01*
X117857523Y-94609158D01*
X117766267Y-94707574D01*
X117685061Y-94801104D01*
X117614309Y-94889248D01*
X117554419Y-94971505D01*
X117505794Y-95047375D01*
X117475462Y-95102766D01*
X117438233Y-95186625D01*
X117404265Y-95282358D01*
X117374150Y-95388061D01*
X117348479Y-95501832D01*
X117343578Y-95527269D01*
X117337186Y-95563182D01*
X117333354Y-95591430D01*
X117331881Y-95616942D01*
X117332564Y-95644648D01*
X117335202Y-95679477D01*
X117336680Y-95695667D01*
X117346291Y-95795602D01*
X117355399Y-95883548D01*
X117364288Y-95961527D01*
X117373241Y-96031560D01*
X117382539Y-96095670D01*
X117392468Y-96155879D01*
X117403308Y-96214209D01*
X117415344Y-96272681D01*
X117421118Y-96299092D01*
X117440903Y-96395058D01*
X117455343Y-96482624D01*
X117464505Y-96564923D01*
X117468455Y-96645090D01*
X117467257Y-96726259D01*
X117460978Y-96811566D01*
X117449684Y-96904144D01*
X117435713Y-96993733D01*
X117419949Y-97082986D01*
X117404256Y-97160538D01*
X117387668Y-97228681D01*
X117369217Y-97289709D01*
X117347936Y-97345915D01*
X117322857Y-97399592D01*
X117293015Y-97453032D01*
X117257441Y-97508530D01*
X117215168Y-97568378D01*
X117165392Y-97634658D01*
X117117692Y-97694213D01*
X117074887Y-97741489D01*
X117036015Y-97776962D01*
X117000114Y-97801106D01*
X116966225Y-97814395D01*
X116933385Y-97817303D01*
X116900633Y-97810307D01*
X116867008Y-97793879D01*
X116856542Y-97787139D01*
X116838219Y-97774892D01*
X116824135Y-97765741D01*
X116820275Y-97763367D01*
X116812830Y-97766710D01*
X116798636Y-97779823D01*
X116779225Y-97801151D01*
X116758682Y-97825931D01*
X116736479Y-97854340D01*
X116713192Y-97885223D01*
X116690390Y-97916371D01*
X116669635Y-97945577D01*
X116652495Y-97970630D01*
X116640535Y-97989324D01*
X116635321Y-97999449D01*
X116635217Y-98000114D01*
X116641670Y-98007375D01*
X116658890Y-98014878D01*
X116683664Y-98021615D01*
X116712782Y-98026577D01*
X116722924Y-98027665D01*
X116763483Y-98032032D01*
X116808838Y-98038073D01*
X116856205Y-98045295D01*
X116902800Y-98053208D01*
X116945839Y-98061322D01*
X116982538Y-98069144D01*
X117010112Y-98076185D01*
X117022865Y-98080543D01*
X117066402Y-98106504D01*
X117102727Y-98142731D01*
X117131189Y-98187088D01*
X117151139Y-98237436D01*
X117161926Y-98291637D01*
X117162901Y-98347555D01*
X117153414Y-98403051D01*
X117135446Y-98450761D01*
X117115069Y-98482911D01*
X117085849Y-98517014D01*
X117051735Y-98549251D01*
X117016673Y-98575800D01*
X116991696Y-98589881D01*
X116940068Y-98609464D01*
X116877656Y-98626682D01*
X116807565Y-98641157D01*
X116732904Y-98652508D01*
X116656779Y-98660357D01*
X116582297Y-98664325D01*
X116512566Y-98664033D01*
X116450692Y-98659101D01*
X116438571Y-98657375D01*
X116421350Y-98655737D01*
X116392560Y-98654238D01*
X116353662Y-98652881D01*
X116306115Y-98651673D01*
X116251382Y-98650620D01*
X116190920Y-98649725D01*
X116126191Y-98648995D01*
X116058656Y-98648434D01*
X115989773Y-98648049D01*
X115921004Y-98647843D01*
X115853809Y-98647823D01*
X115789648Y-98647994D01*
X115729981Y-98648361D01*
X115676269Y-98648929D01*
X115629971Y-98649703D01*
X115592549Y-98650689D01*
X115565462Y-98651893D01*
X115550171Y-98653318D01*
X115547346Y-98654167D01*
X115546203Y-98660615D01*
X115552563Y-98671850D01*
X115567490Y-98689310D01*
X115591849Y-98714233D01*
X115625376Y-98750506D01*
X115658391Y-98791730D01*
X115688806Y-98834814D01*
X115714534Y-98876668D01*
X115733490Y-98914199D01*
X115741507Y-98935886D01*
X115749724Y-98981843D01*
X115749147Y-99028944D01*
X115740161Y-99072549D01*
X115727725Y-99100876D01*
X115698650Y-99139410D01*
X115658284Y-99176870D01*
X115609344Y-99211346D01*
X115554547Y-99240930D01*
X115496610Y-99263710D01*
X115495569Y-99264042D01*
X115456815Y-99273704D01*
X115411516Y-99280938D01*
X115364814Y-99285249D01*
X115321849Y-99286140D01*
X115291543Y-99283752D01*
X115247264Y-99276477D01*
X115195961Y-99267283D01*
X115139896Y-99256647D01*
X115081334Y-99245044D01*
X115022535Y-99232950D01*
X114965765Y-99220840D01*
X114913285Y-99209191D01*
X114867358Y-99198477D01*
X114830247Y-99189176D01*
X114804216Y-99181762D01*
X114800382Y-99180494D01*
X114776381Y-99171834D01*
X114743066Y-99159252D01*
X114704107Y-99144160D01*
X114663171Y-99127971D01*
X114644226Y-99120358D01*
X114581080Y-99095509D01*
X114524129Y-99074762D01*
X114469126Y-99056789D01*
X114411827Y-99040265D01*
X114347987Y-99023863D01*
X114295189Y-99011291D01*
X114227922Y-98994914D01*
X114171393Y-98979062D01*
X114122450Y-98962266D01*
X114077940Y-98943060D01*
X114034711Y-98919976D01*
X113989609Y-98891545D01*
X113939482Y-98856300D01*
X113901080Y-98827816D01*
X113862505Y-98799018D01*
X113832478Y-98777347D01*
X113808470Y-98761312D01*
X113787952Y-98749421D01*
X113768398Y-98740184D01*
X113747278Y-98732109D01*
X113727540Y-98725480D01*
X113664042Y-98701431D01*
X113602524Y-98670820D01*
X113541138Y-98632411D01*
X113478038Y-98584967D01*
X113411374Y-98527252D01*
X113363080Y-98481522D01*
X113304068Y-98422637D01*
X113254697Y-98370115D01*
X113213421Y-98321848D01*
X113178695Y-98275724D01*
X113148974Y-98229635D01*
X113122713Y-98181471D01*
X113098367Y-98129122D01*
X113089336Y-98107791D01*
X113054453Y-98017713D01*
X113025032Y-97928360D01*
X113000018Y-97835894D01*
X112978353Y-97736479D01*
X112962213Y-97646274D01*
X112955634Y-97607746D01*
X112949286Y-97573224D01*
X112943716Y-97545502D01*
X112939471Y-97527370D01*
X112937944Y-97522596D01*
X112932102Y-97514609D01*
X112920566Y-97508261D01*
X112900543Y-97502460D01*
X112870971Y-97496435D01*
X112818892Y-97484450D01*
X112775831Y-97468521D01*
X112738918Y-97446666D01*
X112705283Y-97416904D01*
X112672056Y-97377253D01*
X112646952Y-97341732D01*
X112616192Y-97292542D01*
X112588304Y-97240166D01*
X112562029Y-97181835D01*
X112536107Y-97114783D01*
X112512908Y-97047339D01*
X112480392Y-96939958D01*
X112454276Y-96835494D01*
X112434965Y-96736049D01*
X112422860Y-96643725D01*
X112418366Y-96560623D01*
X112418348Y-96554297D01*
X112418520Y-96551577D01*
X112526152Y-96551577D01*
X112528442Y-96628950D01*
X112539172Y-96714764D01*
X112558247Y-96810320D01*
X112564303Y-96835860D01*
X112580990Y-96899518D01*
X112600745Y-96967078D01*
X112622233Y-97034408D01*
X112644121Y-97097379D01*
X112665074Y-97151862D01*
X112670625Y-97165109D01*
X112692729Y-97209095D01*
X112719957Y-97251469D01*
X112750276Y-97289891D01*
X112781656Y-97322022D01*
X112812065Y-97345523D01*
X112837764Y-97357603D01*
X112857037Y-97360981D01*
X112881093Y-97362564D01*
X112905193Y-97362380D01*
X112924595Y-97360456D01*
X112934349Y-97357051D01*
X112934554Y-97355874D01*
X113053274Y-97355874D01*
X113053893Y-97420518D01*
X113055334Y-97480008D01*
X113057613Y-97531828D01*
X113060744Y-97573458D01*
X113062699Y-97590142D01*
X113077960Y-97682053D01*
X113097999Y-97774954D01*
X113122058Y-97866479D01*
X113149380Y-97954260D01*
X113179207Y-98035928D01*
X113210781Y-98109118D01*
X113243345Y-98171460D01*
X113254695Y-98190059D01*
X113266276Y-98205844D01*
X113285099Y-98228981D01*
X113308708Y-98256681D01*
X113334646Y-98286156D01*
X113360454Y-98314615D01*
X113383675Y-98339270D01*
X113401853Y-98357332D01*
X113403068Y-98358457D01*
X113442402Y-98394399D01*
X113474059Y-98422813D01*
X113500543Y-98445828D01*
X113524359Y-98465571D01*
X113548011Y-98484171D01*
X113574005Y-98503758D01*
X113574373Y-98504031D01*
X113626300Y-98540746D01*
X113670184Y-98567903D01*
X113705685Y-98585351D01*
X113732462Y-98592937D01*
X113750174Y-98590509D01*
X113755801Y-98585058D01*
X113757618Y-98575450D01*
X113759247Y-98554395D01*
X113760564Y-98524478D01*
X113761442Y-98488285D01*
X113761709Y-98464022D01*
X113762385Y-98416315D01*
X113763860Y-98380727D01*
X113766289Y-98355362D01*
X113769830Y-98338321D01*
X113772685Y-98331038D01*
X113788205Y-98308969D01*
X113806618Y-98299963D01*
X113823157Y-98301215D01*
X113836384Y-98307166D01*
X113846827Y-98318674D01*
X113854942Y-98337340D01*
X113861182Y-98364767D01*
X113866005Y-98402556D01*
X113869865Y-98452311D01*
X113870862Y-98469071D01*
X113873559Y-98510000D01*
X113876774Y-98548129D01*
X113880190Y-98580302D01*
X113883489Y-98603361D01*
X113885149Y-98611053D01*
X113898586Y-98646493D01*
X113919059Y-98679484D01*
X113947990Y-98711483D01*
X113986800Y-98743945D01*
X114036913Y-98778327D01*
X114066133Y-98796381D01*
X114141997Y-98835412D01*
X114225807Y-98865765D01*
X114318827Y-98888035D01*
X114393680Y-98904987D01*
X114478365Y-98929297D01*
X114571122Y-98960414D01*
X114670195Y-98997781D01*
X114680743Y-99001985D01*
X114750910Y-99029361D01*
X114815251Y-99052696D01*
X114876727Y-99072801D01*
X114938300Y-99090487D01*
X115002930Y-99106563D01*
X115073579Y-99121841D01*
X115153208Y-99137130D01*
X115214360Y-99148010D01*
X115260886Y-99155806D01*
X115297251Y-99160879D01*
X115327057Y-99163265D01*
X115353902Y-99163000D01*
X115381386Y-99160121D01*
X115413108Y-99154663D01*
X115435382Y-99150224D01*
X115488995Y-99135770D01*
X115536877Y-99116049D01*
X115577604Y-99092203D01*
X115609755Y-99065372D01*
X115631907Y-99036699D01*
X115642637Y-99007325D01*
X115642100Y-98984357D01*
X115631956Y-98957002D01*
X115612465Y-98922825D01*
X115585259Y-98883741D01*
X115551971Y-98841669D01*
X115514234Y-98798523D01*
X115473681Y-98756221D01*
X115431944Y-98716678D01*
X115390656Y-98681813D01*
X115372802Y-98668264D01*
X115325065Y-98634026D01*
X115281429Y-98604310D01*
X115240194Y-98578437D01*
X115199661Y-98555727D01*
X115158127Y-98535500D01*
X115113892Y-98517076D01*
X115101040Y-98512505D01*
X115866902Y-98512505D01*
X115937068Y-98521993D01*
X115966200Y-98524924D01*
X116007358Y-98527590D01*
X116058535Y-98529909D01*
X116117725Y-98531800D01*
X116182922Y-98533181D01*
X116224747Y-98533737D01*
X116281768Y-98534532D01*
X116337003Y-98535678D01*
X116388134Y-98537099D01*
X116432841Y-98538720D01*
X116468804Y-98540463D01*
X116493705Y-98542252D01*
X116498394Y-98542753D01*
X116559428Y-98546902D01*
X116627292Y-98545224D01*
X116704180Y-98537607D01*
X116759226Y-98529550D01*
X116822392Y-98518472D01*
X116873585Y-98507311D01*
X116914849Y-98495286D01*
X116948227Y-98481614D01*
X116975763Y-98465515D01*
X116999500Y-98446207D01*
X117013015Y-98432489D01*
X117038776Y-98395263D01*
X117052639Y-98354563D01*
X117055095Y-98312777D01*
X117046637Y-98272293D01*
X117027759Y-98235498D01*
X116998954Y-98204779D01*
X116961487Y-98182837D01*
X116940043Y-98176135D01*
X116906209Y-98168545D01*
X116859655Y-98160011D01*
X116800049Y-98150476D01*
X116727057Y-98139883D01*
X116658133Y-98130518D01*
X116603970Y-98123434D01*
X116561461Y-98118505D01*
X116528347Y-98116058D01*
X116502369Y-98116422D01*
X116481268Y-98119921D01*
X116462784Y-98126885D01*
X116444659Y-98137639D01*
X116424633Y-98152510D01*
X116406542Y-98166935D01*
X116341152Y-98216346D01*
X116263050Y-98269827D01*
X116172830Y-98326989D01*
X116071085Y-98387441D01*
X116067786Y-98389345D01*
X116026061Y-98413565D01*
X115986443Y-98436868D01*
X115951256Y-98457863D01*
X115922826Y-98475159D01*
X115903474Y-98487366D01*
X115899389Y-98490101D01*
X115866902Y-98512505D01*
X115101040Y-98512505D01*
X115065255Y-98499777D01*
X115010517Y-98482922D01*
X114947975Y-98465831D01*
X114875929Y-98447826D01*
X114792679Y-98428225D01*
X114744649Y-98417235D01*
X114691867Y-98404893D01*
X114651308Y-98394343D01*
X114621401Y-98384782D01*
X114600577Y-98375411D01*
X114587266Y-98365429D01*
X114579899Y-98354035D01*
X114576905Y-98340428D01*
X114576554Y-98331492D01*
X114582856Y-98303225D01*
X114593744Y-98287728D01*
X114604106Y-98277795D01*
X114614541Y-98272732D01*
X114629520Y-98271518D01*
X114653516Y-98273135D01*
X114656543Y-98273409D01*
X114689137Y-98277582D01*
X114723748Y-98283808D01*
X114742838Y-98288197D01*
X114775546Y-98294911D01*
X114806946Y-98298203D01*
X114833089Y-98297884D01*
X114850025Y-98293770D01*
X114850810Y-98293305D01*
X114860933Y-98280813D01*
X114872442Y-98256392D01*
X114884760Y-98222007D01*
X114897305Y-98179625D01*
X114909500Y-98131209D01*
X114920763Y-98078727D01*
X114930517Y-98024144D01*
X114930912Y-98021661D01*
X114935614Y-97979753D01*
X114938470Y-97927702D01*
X114939518Y-97869272D01*
X114938794Y-97808228D01*
X114936334Y-97748332D01*
X114932175Y-97693350D01*
X114927332Y-97653291D01*
X114921611Y-97617949D01*
X114913752Y-97573218D01*
X114904336Y-97522061D01*
X114893941Y-97467443D01*
X114883146Y-97412327D01*
X114872530Y-97359677D01*
X114862673Y-97312458D01*
X114854154Y-97273632D01*
X114848497Y-97249838D01*
X114823075Y-97171157D01*
X114786441Y-97092810D01*
X114737776Y-97013227D01*
X114693154Y-96952124D01*
X114660702Y-96912763D01*
X114620737Y-96867978D01*
X114575781Y-96820297D01*
X114528353Y-96772248D01*
X114480974Y-96726356D01*
X114436165Y-96685149D01*
X114396446Y-96651153D01*
X114380188Y-96638336D01*
X114332506Y-96601579D01*
X114290634Y-96568258D01*
X114255956Y-96539521D01*
X114229852Y-96516515D01*
X114213705Y-96500389D01*
X114212900Y-96499449D01*
X114204142Y-96481005D01*
X114200625Y-96455809D01*
X114200621Y-96455373D01*
X114205322Y-96428835D01*
X114218721Y-96412348D01*
X114239272Y-96406375D01*
X114265427Y-96411380D01*
X114294761Y-96427210D01*
X114327224Y-96450672D01*
X114366061Y-96480184D01*
X114408766Y-96513702D01*
X114452835Y-96549185D01*
X114495765Y-96584591D01*
X114535049Y-96617878D01*
X114568185Y-96647004D01*
X114592668Y-96669928D01*
X114593609Y-96670864D01*
X114628206Y-96706857D01*
X114667537Y-96750167D01*
X114708864Y-96797577D01*
X114749449Y-96845866D01*
X114786557Y-96891818D01*
X114817448Y-96932212D01*
X114826410Y-96944617D01*
X114861680Y-97000226D01*
X114895219Y-97063926D01*
X114923969Y-97129838D01*
X114927188Y-97138245D01*
X114933780Y-97159408D01*
X114942296Y-97192323D01*
X114952319Y-97234904D01*
X114963435Y-97285066D01*
X114975228Y-97340724D01*
X114987283Y-97399793D01*
X114999184Y-97460188D01*
X115010516Y-97519823D01*
X115020864Y-97576614D01*
X115029812Y-97628474D01*
X115036946Y-97673319D01*
X115041849Y-97709064D01*
X115043053Y-97719948D01*
X115048675Y-97817565D01*
X115046298Y-97919917D01*
X115035772Y-98028752D01*
X115016950Y-98145819D01*
X114999904Y-98228475D01*
X114977979Y-98327067D01*
X114994429Y-98340506D01*
X115009141Y-98349726D01*
X115032209Y-98361217D01*
X115058763Y-98372562D01*
X115059996Y-98373043D01*
X115088867Y-98384503D01*
X115116804Y-98395975D01*
X115137178Y-98404721D01*
X115153758Y-98411872D01*
X115180173Y-98422945D01*
X115213241Y-98436619D01*
X115249781Y-98451572D01*
X115263476Y-98457138D01*
X115301650Y-98472482D01*
X115330497Y-98483360D01*
X115353671Y-98490637D01*
X115374826Y-98495179D01*
X115397616Y-98497851D01*
X115425695Y-98499520D01*
X115445907Y-98500372D01*
X115483751Y-98501103D01*
X115520814Y-98500443D01*
X115552371Y-98498548D01*
X115570443Y-98496255D01*
X115603167Y-98487650D01*
X115646070Y-98472078D01*
X115699424Y-98449414D01*
X115763500Y-98419533D01*
X115838570Y-98382307D01*
X115924907Y-98337613D01*
X115996708Y-98299389D01*
X116048035Y-98271836D01*
X116097095Y-98245585D01*
X116142083Y-98221597D01*
X116181194Y-98200829D01*
X116212623Y-98184242D01*
X116234564Y-98172795D01*
X116242289Y-98168861D01*
X116295162Y-98138851D01*
X116352166Y-98100073D01*
X116409503Y-98055341D01*
X116463377Y-98007465D01*
X116473862Y-97997307D01*
X116504150Y-97966597D01*
X116534478Y-97933871D01*
X116566313Y-97897382D01*
X116601123Y-97855384D01*
X116640373Y-97806130D01*
X116685531Y-97747874D01*
X116707615Y-97718986D01*
X116761805Y-97647857D01*
X116757177Y-97501472D01*
X116755843Y-97445014D01*
X116755811Y-97394193D01*
X116757324Y-97346266D01*
X116760626Y-97298492D01*
X116765962Y-97248126D01*
X116773575Y-97192426D01*
X116783709Y-97128649D01*
X116796609Y-97054053D01*
X116797353Y-97049866D01*
X116805157Y-97005980D01*
X116812972Y-96962007D01*
X116820090Y-96921928D01*
X116825806Y-96889722D01*
X116827891Y-96877960D01*
X116840178Y-96807137D01*
X116849879Y-96747108D01*
X116857282Y-96694932D01*
X116862677Y-96647669D01*
X116866353Y-96602376D01*
X116868599Y-96556114D01*
X116869704Y-96505940D01*
X116869958Y-96449948D01*
X116869847Y-96397112D01*
X116869370Y-96355106D01*
X116868113Y-96320729D01*
X116865665Y-96290777D01*
X116861613Y-96262048D01*
X116855544Y-96231340D01*
X116847046Y-96195450D01*
X116835706Y-96151177D01*
X116827360Y-96119229D01*
X116821421Y-96093902D01*
X116819825Y-96077024D01*
X116822444Y-96063742D01*
X116825698Y-96056079D01*
X116840049Y-96038751D01*
X116858714Y-96033709D01*
X116878508Y-96041380D01*
X116885955Y-96048026D01*
X116895972Y-96063748D01*
X116907922Y-96090508D01*
X116920877Y-96125603D01*
X116933907Y-96166333D01*
X116946082Y-96209995D01*
X116956000Y-96251675D01*
X116960797Y-96277602D01*
X116964248Y-96305983D01*
X116966521Y-96339518D01*
X116967780Y-96380906D01*
X116968192Y-96432845D01*
X116968177Y-96449948D01*
X116968017Y-96481873D01*
X116967578Y-96511028D01*
X116966694Y-96538765D01*
X116965194Y-96566432D01*
X116962910Y-96595380D01*
X116959672Y-96626959D01*
X116955312Y-96662518D01*
X116949659Y-96703408D01*
X116942546Y-96750977D01*
X116933804Y-96806577D01*
X116923262Y-96871557D01*
X116910752Y-96947266D01*
X116896105Y-97035056D01*
X116891277Y-97063899D01*
X116880215Y-97130893D01*
X116871402Y-97186903D01*
X116864519Y-97234740D01*
X116859246Y-97277214D01*
X116855261Y-97317137D01*
X116852245Y-97357320D01*
X116849877Y-97400574D01*
X116848099Y-97442794D01*
X116846592Y-97489164D01*
X116846205Y-97524314D01*
X116847063Y-97551022D01*
X116849290Y-97572067D01*
X116853010Y-97590227D01*
X116855031Y-97597606D01*
X116870860Y-97637972D01*
X116891805Y-97670595D01*
X116916238Y-97693913D01*
X116942530Y-97706370D01*
X116968783Y-97706472D01*
X116993360Y-97694147D01*
X117021803Y-97668706D01*
X117053889Y-97630460D01*
X117089393Y-97579719D01*
X117128094Y-97516790D01*
X117169769Y-97441985D01*
X117197339Y-97389118D01*
X117233745Y-97313250D01*
X117264153Y-97239421D01*
X117289200Y-97165106D01*
X117309520Y-97087779D01*
X117325750Y-97004917D01*
X117338525Y-96913993D01*
X117348482Y-96812484D01*
X117351090Y-96778548D01*
X117354297Y-96698532D01*
X117353155Y-96612314D01*
X117347987Y-96523630D01*
X117339122Y-96436214D01*
X117326885Y-96353803D01*
X117311602Y-96280132D01*
X117305563Y-96256993D01*
X117297037Y-96221978D01*
X117287708Y-96176264D01*
X117278118Y-96123122D01*
X117268809Y-96065820D01*
X117260322Y-96007630D01*
X117253200Y-95951820D01*
X117249743Y-95920197D01*
X117241714Y-95837794D01*
X117235555Y-95767785D01*
X117231197Y-95708668D01*
X117228566Y-95658937D01*
X117227592Y-95617090D01*
X117228204Y-95581623D01*
X117230330Y-95551032D01*
X117231658Y-95539269D01*
X117254243Y-95406200D01*
X117287641Y-95276326D01*
X117331158Y-95151371D01*
X117384103Y-95033057D01*
X117445782Y-94923107D01*
X117515504Y-94823243D01*
X117523771Y-94812777D01*
X117554227Y-94775945D01*
X117593130Y-94730877D01*
X117638972Y-94679226D01*
X117690245Y-94622646D01*
X117745440Y-94562790D01*
X117803049Y-94501313D01*
X117861564Y-94439867D01*
X117903346Y-94396639D01*
X117960935Y-94336653D01*
X118009539Y-94283933D01*
X118050641Y-94236403D01*
X118085727Y-94191985D01*
X118116280Y-94148603D01*
X118143785Y-94104180D01*
X118169728Y-94056639D01*
X118195591Y-94003902D01*
X118216111Y-93959065D01*
X118231295Y-93925232D01*
X118246554Y-93891391D01*
X118259660Y-93862479D01*
X118265541Y-93849597D01*
X118297875Y-93762962D01*
X118319392Y-93668132D01*
X118330109Y-93565830D01*
X118330045Y-93456777D01*
X118319218Y-93341696D01*
X118297647Y-93221309D01*
X118265350Y-93096337D01*
X118244693Y-93030884D01*
X118222603Y-92969252D01*
X118195961Y-92902085D01*
X118165985Y-92831953D01*
X118133890Y-92761427D01*
X118100893Y-92693075D01*
X118068211Y-92629469D01*
X118037061Y-92573178D01*
X118008660Y-92526772D01*
X117999809Y-92513650D01*
X117986110Y-92496340D01*
X117963511Y-92470622D01*
X117933274Y-92437762D01*
X117896665Y-92399026D01*
X117854947Y-92355681D01*
X117809385Y-92308993D01*
X117761243Y-92260229D01*
X117711785Y-92210654D01*
X117662274Y-92161536D01*
X117613976Y-92114140D01*
X117568154Y-92069734D01*
X117526073Y-92029582D01*
X117488996Y-91994953D01*
X117458187Y-91967112D01*
X117434912Y-91947325D01*
X117432857Y-91945688D01*
X117358845Y-91891167D01*
X117275815Y-91836785D01*
X117188081Y-91785058D01*
X117099956Y-91738504D01*
X117015752Y-91699639D01*
X117000079Y-91693139D01*
X116967738Y-91681337D01*
X116924778Y-91667617D01*
X116874335Y-91652839D01*
X116819545Y-91637864D01*
X116763545Y-91623553D01*
X116709469Y-91610768D01*
X116666791Y-91601629D01*
X116529604Y-91580812D01*
X116393680Y-91573566D01*
X116259750Y-91579711D01*
X116128543Y-91599069D01*
X116000792Y-91631460D01*
X115877225Y-91676705D01*
X115758575Y-91734625D01*
X115645572Y-91805040D01*
X115554664Y-91874451D01*
X115476091Y-91944754D01*
X115401227Y-92020975D01*
X115331903Y-92100860D01*
X115269946Y-92182158D01*
X115217187Y-92262617D01*
X115175455Y-92339984D01*
X115173919Y-92343242D01*
X115151536Y-92397122D01*
X115129506Y-92461645D01*
X115108856Y-92533435D01*
X115090615Y-92609117D01*
X115085592Y-92632932D01*
X115073575Y-92693649D01*
X115064404Y-92745114D01*
X115057777Y-92790825D01*
X115053396Y-92834285D01*
X115050961Y-92878993D01*
X115050173Y-92928450D01*
X115050732Y-92986157D01*
X115051667Y-93029368D01*
X115054928Y-93121595D01*
X115059989Y-93201484D01*
X115067030Y-93270637D01*
X115076230Y-93330654D01*
X115087771Y-93383139D01*
X115094057Y-93405665D01*
X115117424Y-93484078D01*
X115137502Y-93552602D01*
X115155245Y-93614724D01*
X115171605Y-93673933D01*
X115187535Y-93733715D01*
X115203986Y-93797558D01*
X115221913Y-93868951D01*
X115234664Y-93920473D01*
X115249606Y-93980277D01*
X115264626Y-94038887D01*
X115279136Y-94094116D01*
X115292548Y-94143775D01*
X115304275Y-94185680D01*
X115313728Y-94217641D01*
X115318638Y-94232816D01*
X115339205Y-94298797D01*
X115352435Y-94357882D01*
X115359233Y-94414533D01*
X115360387Y-94438627D01*
X115358475Y-94480550D01*
X115349492Y-94511994D01*
X115332630Y-94535038D01*
X115318923Y-94545372D01*
X115305892Y-94551624D01*
X115281654Y-94561535D01*
X115248309Y-94574314D01*
X115207960Y-94589171D01*
X115162708Y-94605313D01*
X115125039Y-94618397D01*
X115076511Y-94635134D01*
X115030365Y-94651202D01*
X114988902Y-94665789D01*
X114954422Y-94678081D01*
X114929225Y-94687266D01*
X114917910Y-94691585D01*
X114888677Y-94703277D01*
X114857493Y-94715735D01*
X114845585Y-94720488D01*
X114806600Y-94737812D01*
X114757894Y-94762317D01*
X114701132Y-94792980D01*
X114637981Y-94828780D01*
X114570105Y-94868693D01*
X114499169Y-94911699D01*
X114426840Y-94956776D01*
X114354782Y-95002900D01*
X114284661Y-95049050D01*
X114218143Y-95094205D01*
X114156892Y-95137341D01*
X114109250Y-95172384D01*
X114034703Y-95230677D01*
X113957862Y-95294620D01*
X113880775Y-95362283D01*
X113805493Y-95431732D01*
X113734066Y-95501035D01*
X113668543Y-95568261D01*
X113610974Y-95631477D01*
X113569014Y-95681634D01*
X113474057Y-95812044D01*
X113387901Y-95953006D01*
X113310752Y-96103981D01*
X113242816Y-96264428D01*
X113184300Y-96433805D01*
X113135408Y-96611574D01*
X113096348Y-96797193D01*
X113067325Y-96990121D01*
X113066046Y-97000750D01*
X113062027Y-97043452D01*
X113058745Y-97096105D01*
X113056214Y-97156191D01*
X113054449Y-97221193D01*
X113053464Y-97288593D01*
X113053274Y-97355874D01*
X112934554Y-97355874D01*
X112935699Y-97349288D01*
X112937457Y-97329597D01*
X112939485Y-97300071D01*
X112941643Y-97262804D01*
X112943792Y-97219890D01*
X112944540Y-97203399D01*
X112948875Y-97122396D01*
X112954719Y-97045662D01*
X112962449Y-96970436D01*
X112972442Y-96893959D01*
X112985075Y-96813472D01*
X113000724Y-96726214D01*
X113019766Y-96629426D01*
X113029047Y-96584405D01*
X113038857Y-96536324D01*
X113045685Y-96500054D01*
X113049776Y-96473750D01*
X113051372Y-96455568D01*
X113050719Y-96443660D01*
X113048558Y-96437057D01*
X113035570Y-96414941D01*
X113017018Y-96386385D01*
X112995113Y-96354478D01*
X112972063Y-96322309D01*
X112950078Y-96292964D01*
X112931366Y-96269534D01*
X112918924Y-96255838D01*
X112876355Y-96222896D01*
X112830771Y-96202922D01*
X112782834Y-96195020D01*
X112737389Y-96197004D01*
X112697414Y-96209158D01*
X112661146Y-96232519D01*
X112626820Y-96268123D01*
X112603281Y-96300466D01*
X112570866Y-96357090D01*
X112547269Y-96416949D01*
X112532396Y-96481344D01*
X112526152Y-96551577D01*
X112418520Y-96551577D01*
X112423468Y-96473107D01*
X112438072Y-96394866D01*
G37*
G36*
X117543654Y-92198078D02*
G01*
X117586847Y-92212556D01*
X117628184Y-92239353D01*
X117636372Y-92246433D01*
X117654556Y-92263814D01*
X117664725Y-92277841D01*
X117669659Y-92294129D01*
X117672137Y-92318289D01*
X117672169Y-92318729D01*
X117671469Y-92355765D01*
X117664896Y-92391709D01*
X117653590Y-92422329D01*
X117638689Y-92443391D01*
X117638582Y-92443489D01*
X117618558Y-92453671D01*
X117590525Y-92457952D01*
X117559341Y-92456031D01*
X117535613Y-92449906D01*
X117513890Y-92439079D01*
X117488922Y-92422564D01*
X117473012Y-92409841D01*
X117436895Y-92372743D01*
X117412933Y-92336360D01*
X117401194Y-92301701D01*
X117401748Y-92269772D01*
X117414664Y-92241581D01*
X117440012Y-92218135D01*
X117459113Y-92207702D01*
X117500457Y-92196325D01*
X117543654Y-92198078D01*
G37*
G36*
X116467959Y-92329824D02*
G01*
X116500712Y-92352740D01*
X116529828Y-92387908D01*
X116538758Y-92402950D01*
X116558662Y-92449213D01*
X116567599Y-92493277D01*
X116565840Y-92533501D01*
X116553660Y-92568240D01*
X116531330Y-92595851D01*
X116503881Y-92612786D01*
X116486652Y-92619060D01*
X116470802Y-92621237D01*
X116451538Y-92619304D01*
X116424066Y-92613246D01*
X116421211Y-92612544D01*
X116372465Y-92595048D01*
X116334460Y-92569970D01*
X116307794Y-92538447D01*
X116293067Y-92501616D01*
X116290878Y-92460617D01*
X116301824Y-92416588D01*
X116309289Y-92399826D01*
X116334664Y-92361136D01*
X116364922Y-92334815D01*
X116398360Y-92320838D01*
X116433274Y-92319182D01*
X116467959Y-92329824D01*
G37*
G36*
X116267080Y-96098551D02*
G01*
X116280588Y-96104036D01*
X116291957Y-96114109D01*
X116301743Y-96130316D01*
X116310506Y-96154202D01*
X116318802Y-96187315D01*
X116327190Y-96231200D01*
X116336228Y-96287402D01*
X116336936Y-96292076D01*
X116341384Y-96317256D01*
X116348725Y-96353720D01*
X116358445Y-96399139D01*
X116370030Y-96451183D01*
X116382967Y-96507523D01*
X116396742Y-96565829D01*
X116403490Y-96593788D01*
X116425444Y-96685106D01*
X116443959Y-96764648D01*
X116459338Y-96834166D01*
X116471884Y-96895408D01*
X116481900Y-96950126D01*
X116489689Y-97000068D01*
X116495554Y-97046986D01*
X116499797Y-97092630D01*
X116502722Y-97138748D01*
X116504283Y-97176164D01*
X116502709Y-97294007D01*
X116490400Y-97419484D01*
X116467520Y-97551388D01*
X116435236Y-97684866D01*
X116414777Y-97752850D01*
X116393694Y-97808405D01*
X116370963Y-97853132D01*
X116345565Y-97888629D01*
X116316477Y-97916495D01*
X116282678Y-97938330D01*
X116269009Y-97945091D01*
X116249082Y-97953791D01*
X116231501Y-97959678D01*
X116212597Y-97963358D01*
X116188702Y-97965435D01*
X116156148Y-97966514D01*
X116137040Y-97966845D01*
X116100625Y-97966839D01*
X116066854Y-97965845D01*
X116039562Y-97964036D01*
X116022912Y-97961669D01*
X115976812Y-97944724D01*
X115935646Y-97916963D01*
X115911333Y-97893622D01*
X115891231Y-97871007D01*
X115876178Y-97850439D01*
X115864070Y-97828013D01*
X115852805Y-97799825D01*
X115840277Y-97761972D01*
X115840104Y-97761423D01*
X115824410Y-97704972D01*
X115809919Y-97638806D01*
X115796388Y-97561631D01*
X115783574Y-97472155D01*
X115779409Y-97439286D01*
X115762767Y-97311715D01*
X115745703Y-97196451D01*
X115727920Y-97091770D01*
X115709120Y-96995947D01*
X115689004Y-96907255D01*
X115683888Y-96886604D01*
X115658250Y-96793315D01*
X115630987Y-96711872D01*
X115601037Y-96640095D01*
X115567340Y-96575809D01*
X115528836Y-96516836D01*
X115484466Y-96460998D01*
X115467180Y-96441603D01*
X115434707Y-96402986D01*
X115414238Y-96370935D01*
X115405644Y-96344958D01*
X115408800Y-96324564D01*
X115423577Y-96309261D01*
X115431855Y-96304841D01*
X115454519Y-96301928D01*
X115480896Y-96311117D01*
X115510194Y-96331221D01*
X115541618Y-96361053D01*
X115574374Y-96399424D01*
X115607670Y-96445147D01*
X115640712Y-96497035D01*
X115672705Y-96553901D01*
X115702857Y-96614557D01*
X115730374Y-96677815D01*
X115754461Y-96742489D01*
X115774327Y-96807390D01*
X115778561Y-96823595D01*
X115798893Y-96910972D01*
X115819277Y-97011718D01*
X115839599Y-97125169D01*
X115859741Y-97250660D01*
X115879589Y-97387527D01*
X115888016Y-97449810D01*
X115899707Y-97532467D01*
X115911259Y-97602302D01*
X115922980Y-97660516D01*
X115935174Y-97708315D01*
X115948148Y-97746902D01*
X115962208Y-97777479D01*
X115977183Y-97800639D01*
X115996226Y-97821350D01*
X116017725Y-97835579D01*
X116044639Y-97844358D01*
X116079928Y-97848717D01*
X116117970Y-97849719D01*
X116161020Y-97848833D01*
X116193311Y-97845434D01*
X116218038Y-97838482D01*
X116238398Y-97826935D01*
X116257588Y-97809753D01*
X116264933Y-97801868D01*
X116277656Y-97786985D01*
X116288112Y-97772209D01*
X116297163Y-97755324D01*
X116305673Y-97734115D01*
X116314503Y-97706365D01*
X116324519Y-97669859D01*
X116336581Y-97622380D01*
X116339660Y-97609979D01*
X116354768Y-97548436D01*
X116366719Y-97497692D01*
X116375881Y-97454963D01*
X116382622Y-97417464D01*
X116387312Y-97382414D01*
X116390318Y-97347026D01*
X116392010Y-97308518D01*
X116392756Y-97264105D01*
X116392925Y-97211004D01*
X116392925Y-97207739D01*
X116392739Y-97158557D01*
X116391997Y-97115428D01*
X116390405Y-97076331D01*
X116387665Y-97039250D01*
X116383482Y-97002166D01*
X116377560Y-96963061D01*
X116369602Y-96919917D01*
X116359314Y-96870716D01*
X116346399Y-96813439D01*
X116330561Y-96746069D01*
X116316781Y-96688512D01*
X116297078Y-96605483D01*
X116280243Y-96531855D01*
X116265413Y-96463500D01*
X116251725Y-96396290D01*
X116238318Y-96326097D01*
X116224328Y-96248794D01*
X116221236Y-96231278D01*
X116215047Y-96195154D01*
X116211374Y-96169910D01*
X116210118Y-96152640D01*
X116211182Y-96140438D01*
X116214466Y-96130395D01*
X116217608Y-96123915D01*
X116231313Y-96104149D01*
X116247460Y-96096532D01*
X116267080Y-96098551D01*
G37*
%TO.C,L15*%
G36*
X138444392Y-66981529D02*
G01*
X137194392Y-66981529D01*
X136944392Y-66731529D01*
X136944392Y-66231529D01*
X138444392Y-66231529D01*
X138444392Y-66981529D01*
G37*
X138444392Y-66981529D02*
X137194392Y-66981529D01*
X136944392Y-66731529D01*
X136944392Y-66231529D01*
X138444392Y-66231529D01*
X138444392Y-66981529D01*
G36*
X143444392Y-65231529D02*
G01*
X141944392Y-65231529D01*
X141944392Y-64481529D01*
X143444392Y-64481529D01*
X143444392Y-65231529D01*
G37*
X143444392Y-65231529D02*
X141944392Y-65231529D01*
X141944392Y-64481529D01*
X143444392Y-64481529D01*
X143444392Y-65231529D01*
G36*
X143444392Y-66981529D02*
G01*
X141944392Y-66981529D01*
X141944392Y-66231529D01*
X143444392Y-66231529D01*
X143444392Y-66981529D01*
G37*
X143444392Y-66981529D02*
X141944392Y-66981529D01*
X141944392Y-66231529D01*
X143444392Y-66231529D01*
X143444392Y-66981529D01*
G36*
X138444392Y-65231529D02*
G01*
X136944392Y-65231529D01*
X136944392Y-64481529D01*
X138444392Y-64481529D01*
X138444392Y-65231529D01*
G37*
X138444392Y-65231529D02*
X136944392Y-65231529D01*
X136944392Y-64481529D01*
X138444392Y-64481529D01*
X138444392Y-65231529D01*
%TO.C,BT1*%
G36*
X197850000Y-82149279D02*
G01*
X195850000Y-82149279D01*
X195850000Y-80749279D01*
X197850000Y-80749279D01*
X197850000Y-82149279D01*
G37*
X197850000Y-82149279D02*
X195850000Y-82149279D01*
X195850000Y-80749279D01*
X197850000Y-80749279D01*
X197850000Y-82149279D01*
G36*
X197850000Y-84350721D02*
G01*
X195850000Y-84350721D01*
X195850000Y-82950721D01*
X197850000Y-82950721D01*
X197850000Y-84350721D01*
G37*
X197850000Y-84350721D02*
X195850000Y-84350721D01*
X195850000Y-82950721D01*
X197850000Y-82950721D01*
X197850000Y-84350721D01*
%TO.C,L18*%
G36*
X146569424Y-93180968D02*
G01*
X145319424Y-93180968D01*
X145069424Y-92930968D01*
X145069424Y-92430968D01*
X146569424Y-92430968D01*
X146569424Y-93180968D01*
G37*
X146569424Y-93180968D02*
X145319424Y-93180968D01*
X145069424Y-92930968D01*
X145069424Y-92430968D01*
X146569424Y-92430968D01*
X146569424Y-93180968D01*
G36*
X146569424Y-91430968D02*
G01*
X145069424Y-91430968D01*
X145069424Y-90680968D01*
X146569424Y-90680968D01*
X146569424Y-91430968D01*
G37*
X146569424Y-91430968D02*
X145069424Y-91430968D01*
X145069424Y-90680968D01*
X146569424Y-90680968D01*
X146569424Y-91430968D01*
G36*
X151569424Y-91430968D02*
G01*
X150069424Y-91430968D01*
X150069424Y-90680968D01*
X151569424Y-90680968D01*
X151569424Y-91430968D01*
G37*
X151569424Y-91430968D02*
X150069424Y-91430968D01*
X150069424Y-90680968D01*
X151569424Y-90680968D01*
X151569424Y-91430968D01*
G36*
X151569424Y-93180968D02*
G01*
X150069424Y-93180968D01*
X150069424Y-92430968D01*
X151569424Y-92430968D01*
X151569424Y-93180968D01*
G37*
X151569424Y-93180968D02*
X150069424Y-93180968D01*
X150069424Y-92430968D01*
X151569424Y-92430968D01*
X151569424Y-93180968D01*
%TO.C,L20*%
G36*
X190747669Y-102517304D02*
G01*
X190430705Y-103197035D01*
X189297821Y-102668762D01*
X189176898Y-102336531D01*
X189388207Y-101883377D01*
X190747669Y-102517304D01*
G37*
X190747669Y-102517304D02*
X190430705Y-103197035D01*
X189297821Y-102668762D01*
X189176898Y-102336531D01*
X189388207Y-101883377D01*
X190747669Y-102517304D01*
G36*
X195279208Y-104630395D02*
G01*
X194962244Y-105310126D01*
X193602783Y-104676199D01*
X193919746Y-103996468D01*
X195279208Y-104630395D01*
G37*
X195279208Y-104630395D02*
X194962244Y-105310126D01*
X193602783Y-104676199D01*
X193919746Y-103996468D01*
X195279208Y-104630395D01*
G36*
X196018790Y-103044357D02*
G01*
X195701826Y-103724088D01*
X194342365Y-103090160D01*
X194659328Y-102410429D01*
X196018790Y-103044357D01*
G37*
X196018790Y-103044357D02*
X195701826Y-103724088D01*
X194342365Y-103090160D01*
X194659328Y-102410429D01*
X196018790Y-103044357D01*
G36*
X191487251Y-100931266D02*
G01*
X191170287Y-101610996D01*
X189810826Y-100977069D01*
X190127789Y-100297338D01*
X191487251Y-100931266D01*
G37*
X191487251Y-100931266D02*
X191170287Y-101610996D01*
X189810826Y-100977069D01*
X190127789Y-100297338D01*
X191487251Y-100931266D01*
%TO.C,L8*%
G36*
X97793879Y-68088592D02*
G01*
X96299587Y-68219325D01*
X96234220Y-67472179D01*
X97728512Y-67341446D01*
X97793879Y-68088592D01*
G37*
X97793879Y-68088592D02*
X96299587Y-68219325D01*
X96234220Y-67472179D01*
X97728512Y-67341446D01*
X97793879Y-68088592D01*
G36*
X102927375Y-69396154D02*
G01*
X101433083Y-69526887D01*
X101367716Y-68779741D01*
X102862008Y-68649008D01*
X102927375Y-69396154D01*
G37*
X102927375Y-69396154D02*
X101433083Y-69526887D01*
X101367716Y-68779741D01*
X102862008Y-68649008D01*
X102927375Y-69396154D01*
G36*
X102774852Y-67652813D02*
G01*
X101280560Y-67783547D01*
X101215193Y-67036401D01*
X102709486Y-66905667D01*
X102774852Y-67652813D01*
G37*
X102774852Y-67652813D02*
X101280560Y-67783547D01*
X101215193Y-67036401D01*
X102709486Y-66905667D01*
X102774852Y-67652813D01*
G36*
X97946401Y-69831932D02*
G01*
X96701158Y-69940877D01*
X96430320Y-69713617D01*
X96386743Y-69215520D01*
X97881035Y-69084786D01*
X97946401Y-69831932D01*
G37*
X97946401Y-69831932D02*
X96701158Y-69940877D01*
X96430320Y-69713617D01*
X96386743Y-69215520D01*
X97881035Y-69084786D01*
X97946401Y-69831932D01*
%TO.C,RSW1*%
G36*
X212588000Y-84650000D02*
G01*
X210988000Y-84650000D01*
X210988000Y-83850000D01*
X212588000Y-83850000D01*
X212588000Y-84650000D01*
G37*
X212588000Y-84650000D02*
X210988000Y-84650000D01*
X210988000Y-83850000D01*
X212588000Y-83850000D01*
X212588000Y-84650000D01*
G36*
X212588000Y-81250000D02*
G01*
X210988000Y-81250000D01*
X210988000Y-80450000D01*
X212588000Y-80450000D01*
X212588000Y-81250000D01*
G37*
X212588000Y-81250000D02*
X210988000Y-81250000D01*
X210988000Y-80450000D01*
X212588000Y-80450000D01*
X212588000Y-81250000D01*
%TO.C,SW18*%
G36*
X155119424Y-103100968D02*
G01*
X152919424Y-103100968D01*
X152919424Y-101200968D01*
X155119424Y-101200968D01*
X155119424Y-103100968D01*
G37*
X155119424Y-103100968D02*
X152919424Y-103100968D01*
X152919424Y-101200968D01*
X155119424Y-101200968D01*
X155119424Y-103100968D01*
G36*
X142419424Y-100560968D02*
G01*
X140219424Y-100560968D01*
X140219424Y-98660968D01*
X142419424Y-98660968D01*
X142419424Y-100560968D01*
G37*
X142419424Y-100560968D02*
X140219424Y-100560968D01*
X140219424Y-98660968D01*
X142419424Y-98660968D01*
X142419424Y-100560968D01*
%TO.C,D14*%
G36*
X123167197Y-84857864D02*
G01*
X121968841Y-84920667D01*
X121924356Y-84071832D01*
X123122711Y-84009029D01*
X123167197Y-84857864D01*
G37*
X123167197Y-84857864D02*
X121968841Y-84920667D01*
X121924356Y-84071832D01*
X123122711Y-84009029D01*
X123167197Y-84857864D01*
G36*
X119622062Y-85043656D02*
G01*
X118423707Y-85106459D01*
X118379221Y-84257624D01*
X119577577Y-84194821D01*
X119622062Y-85043656D01*
G37*
X119622062Y-85043656D02*
X118423707Y-85106459D01*
X118379221Y-84257624D01*
X119577577Y-84194821D01*
X119622062Y-85043656D01*
%TO.C,L6*%
G36*
X186121322Y-34611407D02*
G01*
X186069005Y-35359580D01*
X184572659Y-35254945D01*
X184624976Y-34506772D01*
X186121322Y-34611407D01*
G37*
X186121322Y-34611407D02*
X186069005Y-35359580D01*
X184572659Y-35254945D01*
X184624976Y-34506772D01*
X186121322Y-34611407D01*
G36*
X181011428Y-36008362D02*
G01*
X180959111Y-36756535D01*
X179712156Y-36669339D01*
X179480204Y-36402509D01*
X179515082Y-35903727D01*
X181011428Y-36008362D01*
G37*
X181011428Y-36008362D02*
X180959111Y-36756535D01*
X179712156Y-36669339D01*
X179480204Y-36402509D01*
X179515082Y-35903727D01*
X181011428Y-36008362D01*
G36*
X181133502Y-34262625D02*
G01*
X181081185Y-35010798D01*
X179584839Y-34906163D01*
X179637156Y-34157990D01*
X181133502Y-34262625D01*
G37*
X181133502Y-34262625D02*
X181081185Y-35010798D01*
X179584839Y-34906163D01*
X179637156Y-34157990D01*
X181133502Y-34262625D01*
G36*
X185999249Y-36357144D02*
G01*
X185946931Y-37105317D01*
X184450585Y-37000682D01*
X184502902Y-36252509D01*
X185999249Y-36357144D01*
G37*
X185999249Y-36357144D02*
X185946931Y-37105317D01*
X184450585Y-37000682D01*
X184502902Y-36252509D01*
X185999249Y-36357144D01*
%TO.C,SW13*%
G36*
X96137857Y-96776088D02*
G01*
X93946229Y-96967831D01*
X93780633Y-95075061D01*
X95972261Y-94883318D01*
X96137857Y-96776088D01*
G37*
X96137857Y-96776088D02*
X93946229Y-96967831D01*
X93780633Y-95075061D01*
X95972261Y-94883318D01*
X96137857Y-96776088D01*
G36*
X109010905Y-98199545D02*
G01*
X106819277Y-98391287D01*
X106653681Y-96498517D01*
X108845309Y-96306775D01*
X109010905Y-98199545D01*
G37*
X109010905Y-98199545D02*
X106819277Y-98391287D01*
X106653681Y-96498517D01*
X108845309Y-96306775D01*
X109010905Y-98199545D01*
%TO.C,D3*%
G36*
X121146610Y-46302776D02*
G01*
X119948254Y-46365579D01*
X119903769Y-45516744D01*
X121102124Y-45453941D01*
X121146610Y-46302776D01*
G37*
X121146610Y-46302776D02*
X119948254Y-46365579D01*
X119903769Y-45516744D01*
X121102124Y-45453941D01*
X121146610Y-46302776D01*
G36*
X117601475Y-46488568D02*
G01*
X116403120Y-46551371D01*
X116358634Y-45702536D01*
X117556990Y-45639733D01*
X117601475Y-46488568D01*
G37*
X117601475Y-46488568D02*
X116403120Y-46551371D01*
X116358634Y-45702536D01*
X117556990Y-45639733D01*
X117601475Y-46488568D01*
%TO.C,D12*%
G36*
X182921587Y-67826116D02*
G01*
X182862294Y-68674045D01*
X181665217Y-68590338D01*
X181724510Y-67742408D01*
X182921587Y-67826116D01*
G37*
X182921587Y-67826116D02*
X182862294Y-68674045D01*
X181665217Y-68590338D01*
X181724510Y-67742408D01*
X182921587Y-67826116D01*
G36*
X179380235Y-67578480D02*
G01*
X179320942Y-68426410D01*
X178123865Y-68342702D01*
X178183158Y-67494773D01*
X179380235Y-67578480D01*
G37*
X179380235Y-67578480D02*
X179320942Y-68426410D01*
X178123865Y-68342702D01*
X178183158Y-67494773D01*
X179380235Y-67578480D01*
%TO.C,SW10*%
G36*
X134294392Y-55057529D02*
G01*
X132094392Y-55057529D01*
X132094392Y-53157529D01*
X134294392Y-53157529D01*
X134294392Y-55057529D01*
G37*
X134294392Y-55057529D02*
X132094392Y-55057529D01*
X132094392Y-53157529D01*
X134294392Y-53157529D01*
X134294392Y-55057529D01*
G36*
X146994392Y-57597529D02*
G01*
X144794392Y-57597529D01*
X144794392Y-55697529D01*
X146994392Y-55697529D01*
X146994392Y-57597529D01*
G37*
X146994392Y-57597529D02*
X144794392Y-57597529D01*
X144794392Y-55697529D01*
X146994392Y-55697529D01*
X146994392Y-57597529D01*
%TO.C,D5*%
G36*
X164184537Y-43978871D02*
G01*
X164140051Y-44827706D01*
X162941696Y-44764903D01*
X162986181Y-43916068D01*
X164184537Y-43978871D01*
G37*
X164184537Y-43978871D02*
X164140051Y-44827706D01*
X162941696Y-44764903D01*
X162986181Y-43916068D01*
X164184537Y-43978871D01*
G36*
X160639402Y-43793079D02*
G01*
X160594917Y-44641914D01*
X159396561Y-44579111D01*
X159441047Y-43730276D01*
X160639402Y-43793079D01*
G37*
X160639402Y-43793079D02*
X160594917Y-44641914D01*
X159396561Y-44579111D01*
X159441047Y-43730276D01*
X160639402Y-43793079D01*
%TO.C,SW12*%
G36*
X175090375Y-61190674D02*
G01*
X174957838Y-63086046D01*
X172763197Y-62932582D01*
X172895734Y-61037210D01*
X175090375Y-61190674D01*
G37*
X175090375Y-61190674D02*
X174957838Y-63086046D01*
X172763197Y-62932582D01*
X172895734Y-61037210D01*
X175090375Y-61190674D01*
G36*
X187582257Y-64610394D02*
G01*
X187449720Y-66505766D01*
X185255079Y-66352302D01*
X185387616Y-64456930D01*
X187582257Y-64610394D01*
G37*
X187582257Y-64610394D02*
X187449720Y-66505766D01*
X185255079Y-66352302D01*
X185387616Y-64456930D01*
X187582257Y-64610394D01*
%TO.C,D18*%
G36*
X158396424Y-94325968D02*
G01*
X157546424Y-94325968D01*
X157546424Y-93125968D01*
X158396424Y-93125968D01*
X158396424Y-94325968D01*
G37*
X158396424Y-94325968D02*
X157546424Y-94325968D01*
X157546424Y-93125968D01*
X158396424Y-93125968D01*
X158396424Y-94325968D01*
G36*
X158396424Y-90775968D02*
G01*
X157546424Y-90775968D01*
X157546424Y-89575968D01*
X158396424Y-89575968D01*
X158396424Y-90775968D01*
G37*
X158396424Y-90775968D02*
X157546424Y-90775968D01*
X157546424Y-89575968D01*
X158396424Y-89575968D01*
X158396424Y-90775968D01*
%TO.C,L11*%
G36*
X159790374Y-49006789D02*
G01*
X159751122Y-49755761D01*
X158253178Y-49677257D01*
X158292430Y-48928285D01*
X159790374Y-49006789D01*
G37*
X159790374Y-49006789D02*
X159751122Y-49755761D01*
X158253178Y-49677257D01*
X158292430Y-48928285D01*
X159790374Y-49006789D01*
G36*
X164783522Y-49268469D02*
G01*
X164744270Y-50017441D01*
X163246325Y-49938937D01*
X163285577Y-49189965D01*
X164783522Y-49268469D01*
G37*
X164783522Y-49268469D02*
X164744270Y-50017441D01*
X163246325Y-49938937D01*
X163285577Y-49189965D01*
X164783522Y-49268469D01*
G36*
X164691934Y-51016071D02*
G01*
X164652682Y-51765043D01*
X163154737Y-51686539D01*
X163193989Y-50937567D01*
X164691934Y-51016071D01*
G37*
X164691934Y-51016071D02*
X164652682Y-51765043D01*
X163154737Y-51686539D01*
X163193989Y-50937567D01*
X164691934Y-51016071D01*
G36*
X159698786Y-50754391D02*
G01*
X159659534Y-51503363D01*
X158411247Y-51437943D01*
X158174674Y-51175202D01*
X158200842Y-50675887D01*
X159698786Y-50754391D01*
G37*
X159698786Y-50754391D02*
X159659534Y-51503363D01*
X158411247Y-51437943D01*
X158174674Y-51175202D01*
X158200842Y-50675887D01*
X159698786Y-50754391D01*
%TO.C,D8*%
G36*
X99600206Y-82137621D02*
G01*
X98404773Y-82242208D01*
X98330690Y-81395442D01*
X99526124Y-81290855D01*
X99600206Y-82137621D01*
G37*
X99600206Y-82137621D02*
X98404773Y-82242208D01*
X98330690Y-81395442D01*
X99526124Y-81290855D01*
X99600206Y-82137621D01*
G36*
X103136698Y-81828218D02*
G01*
X101941264Y-81932805D01*
X101867182Y-81086039D01*
X103062615Y-80981452D01*
X103136698Y-81828218D01*
G37*
X103136698Y-81828218D02*
X101941264Y-81932805D01*
X101867182Y-81086039D01*
X103062615Y-80981452D01*
X103136698Y-81828218D01*
%TO.C,L5*%
G36*
X160709079Y-31476847D02*
G01*
X160669827Y-32225819D01*
X159421540Y-32160399D01*
X159184967Y-31897658D01*
X159211135Y-31398343D01*
X160709079Y-31476847D01*
G37*
X160709079Y-31476847D02*
X160669827Y-32225819D01*
X159421540Y-32160399D01*
X159184967Y-31897658D01*
X159211135Y-31398343D01*
X160709079Y-31476847D01*
G36*
X165793815Y-29990925D02*
G01*
X165754563Y-30739897D01*
X164256618Y-30661393D01*
X164295870Y-29912421D01*
X165793815Y-29990925D01*
G37*
X165793815Y-29990925D02*
X165754563Y-30739897D01*
X164256618Y-30661393D01*
X164295870Y-29912421D01*
X165793815Y-29990925D01*
G36*
X160800667Y-29729245D02*
G01*
X160761415Y-30478217D01*
X159263471Y-30399713D01*
X159302723Y-29650741D01*
X160800667Y-29729245D01*
G37*
X160800667Y-29729245D02*
X160761415Y-30478217D01*
X159263471Y-30399713D01*
X159302723Y-29650741D01*
X160800667Y-29729245D01*
G36*
X165702227Y-31738527D02*
G01*
X165662975Y-32487499D01*
X164165030Y-32408995D01*
X164204282Y-31660023D01*
X165702227Y-31738527D01*
G37*
X165702227Y-31738527D02*
X165662975Y-32487499D01*
X164165030Y-32408995D01*
X164204282Y-31660023D01*
X165702227Y-31738527D01*
%TO.C,D16*%
G36*
X162163950Y-82533960D02*
G01*
X162119464Y-83382795D01*
X160921109Y-83319992D01*
X160965594Y-82471157D01*
X162163950Y-82533960D01*
G37*
X162163950Y-82533960D02*
X162119464Y-83382795D01*
X160921109Y-83319992D01*
X160965594Y-82471157D01*
X162163950Y-82533960D01*
G36*
X158618815Y-82348168D02*
G01*
X158574330Y-83197003D01*
X157375974Y-83134200D01*
X157420460Y-82285365D01*
X158618815Y-82348168D01*
G37*
X158618815Y-82348168D02*
X158574330Y-83197003D01*
X157375974Y-83134200D01*
X157420460Y-82285365D01*
X158618815Y-82348168D01*
%TO.C,SW14*%
G36*
X114640654Y-80274828D02*
G01*
X112443669Y-80389968D01*
X112344230Y-78492571D01*
X114541215Y-78377432D01*
X114640654Y-80274828D01*
G37*
X114640654Y-80274828D02*
X112443669Y-80389968D01*
X112344230Y-78492571D01*
X114541215Y-78377432D01*
X114640654Y-80274828D01*
G36*
X127456182Y-82146681D02*
G01*
X125259197Y-82261820D01*
X125159759Y-80364424D01*
X127356744Y-80249285D01*
X127456182Y-82146681D01*
G37*
X127456182Y-82146681D02*
X125259197Y-82261820D01*
X125159759Y-80364424D01*
X127356744Y-80249285D01*
X127456182Y-82146681D01*
%TO.C,D2*%
G36*
X101454243Y-62597676D02*
G01*
X100258809Y-62702263D01*
X100184727Y-61855497D01*
X101380160Y-61750910D01*
X101454243Y-62597676D01*
G37*
X101454243Y-62597676D02*
X100258809Y-62702263D01*
X100184727Y-61855497D01*
X101380160Y-61750910D01*
X101454243Y-62597676D01*
G36*
X97917751Y-62907079D02*
G01*
X96722318Y-63011666D01*
X96648235Y-62164900D01*
X97843669Y-62060313D01*
X97917751Y-62907079D01*
G37*
X97917751Y-62907079D02*
X96722318Y-63011666D01*
X96648235Y-62164900D01*
X97843669Y-62060313D01*
X97917751Y-62907079D01*
%TO.C,SW3*%
G36*
X125435595Y-43591592D02*
G01*
X123238610Y-43706731D01*
X123139172Y-41809335D01*
X125336157Y-41694196D01*
X125435595Y-43591592D01*
G37*
X125435595Y-43591592D02*
X123238610Y-43706731D01*
X123139172Y-41809335D01*
X125336157Y-41694196D01*
X125435595Y-43591592D01*
G36*
X112620067Y-41719739D02*
G01*
X110423082Y-41834879D01*
X110323643Y-39937482D01*
X112520628Y-39822343D01*
X112620067Y-41719739D01*
G37*
X112620067Y-41719739D02*
X110423082Y-41834879D01*
X110323643Y-39937482D01*
X112520628Y-39822343D01*
X112620067Y-41719739D01*
%TO.C,SW2*%
G36*
X105645996Y-59738460D02*
G01*
X103454368Y-59930202D01*
X103288772Y-58037432D01*
X105480400Y-57845690D01*
X105645996Y-59738460D01*
G37*
X105645996Y-59738460D02*
X103454368Y-59930202D01*
X103288772Y-58037432D01*
X105480400Y-57845690D01*
X105645996Y-59738460D01*
G36*
X92772948Y-58315003D02*
G01*
X90581320Y-58506746D01*
X90415724Y-56613976D01*
X92607352Y-56422233D01*
X92772948Y-58315003D01*
G37*
X92772948Y-58315003D02*
X90581320Y-58506746D01*
X90415724Y-56613976D01*
X92607352Y-56422233D01*
X92772948Y-58315003D01*
%TO.C,U1*%
G36*
X210264000Y-64508500D02*
G01*
X209248000Y-64508500D01*
X209248000Y-63492500D01*
X210264000Y-63492500D01*
X210264000Y-64508500D01*
G37*
X210264000Y-64508500D02*
X209248000Y-64508500D01*
X209248000Y-63492500D01*
X210264000Y-63492500D01*
X210264000Y-64508500D01*
G36*
X199088000Y-49268500D02*
G01*
X198072000Y-49268500D01*
X198072000Y-48252500D01*
X199088000Y-48252500D01*
X199088000Y-49268500D01*
G37*
X199088000Y-49268500D02*
X198072000Y-49268500D01*
X198072000Y-48252500D01*
X199088000Y-48252500D01*
X199088000Y-49268500D01*
G36*
X199088000Y-64508500D02*
G01*
X198072000Y-64508500D01*
X198072000Y-63492500D01*
X199088000Y-63492500D01*
X199088000Y-64508500D01*
G37*
X199088000Y-64508500D02*
X198072000Y-64508500D01*
X198072000Y-63492500D01*
X199088000Y-63492500D01*
X199088000Y-64508500D01*
G36*
X199088000Y-61968500D02*
G01*
X198072000Y-61968500D01*
X198072000Y-60952500D01*
X199088000Y-60952500D01*
X199088000Y-61968500D01*
G37*
X199088000Y-61968500D02*
X198072000Y-61968500D01*
X198072000Y-60952500D01*
X199088000Y-60952500D01*
X199088000Y-61968500D01*
G36*
X210264000Y-59428500D02*
G01*
X209248000Y-59428500D01*
X209248000Y-58412500D01*
X210264000Y-58412500D01*
X210264000Y-59428500D01*
G37*
X210264000Y-59428500D02*
X209248000Y-59428500D01*
X209248000Y-58412500D01*
X210264000Y-58412500D01*
X210264000Y-59428500D01*
G36*
X199088000Y-67048500D02*
G01*
X198072000Y-67048500D01*
X198072000Y-66032500D01*
X199088000Y-66032500D01*
X199088000Y-67048500D01*
G37*
X199088000Y-67048500D02*
X198072000Y-67048500D01*
X198072000Y-66032500D01*
X199088000Y-66032500D01*
X199088000Y-67048500D01*
G36*
X199088000Y-69588500D02*
G01*
X198072000Y-69588500D01*
X198072000Y-68572500D01*
X199088000Y-68572500D01*
X199088000Y-69588500D01*
G37*
X199088000Y-69588500D02*
X198072000Y-69588500D01*
X198072000Y-68572500D01*
X199088000Y-68572500D01*
X199088000Y-69588500D01*
G36*
X210264000Y-56888500D02*
G01*
X209248000Y-56888500D01*
X209248000Y-55872500D01*
X210264000Y-55872500D01*
X210264000Y-56888500D01*
G37*
X210264000Y-56888500D02*
X209248000Y-56888500D01*
X209248000Y-55872500D01*
X210264000Y-55872500D01*
X210264000Y-56888500D01*
G36*
X199088000Y-46728500D02*
G01*
X198072000Y-46728500D01*
X198072000Y-45712500D01*
X199088000Y-45712500D01*
X199088000Y-46728500D01*
G37*
X199088000Y-46728500D02*
X198072000Y-46728500D01*
X198072000Y-45712500D01*
X199088000Y-45712500D01*
X199088000Y-46728500D01*
G36*
X199088000Y-51808500D02*
G01*
X198072000Y-51808500D01*
X198072000Y-50792500D01*
X199088000Y-50792500D01*
X199088000Y-51808500D01*
G37*
X199088000Y-51808500D02*
X198072000Y-51808500D01*
X198072000Y-50792500D01*
X199088000Y-50792500D01*
X199088000Y-51808500D01*
G36*
X210264000Y-61968500D02*
G01*
X209248000Y-61968500D01*
X209248000Y-60952500D01*
X210264000Y-60952500D01*
X210264000Y-61968500D01*
G37*
X210264000Y-61968500D02*
X209248000Y-61968500D01*
X209248000Y-60952500D01*
X210264000Y-60952500D01*
X210264000Y-61968500D01*
G36*
X210264000Y-74668500D02*
G01*
X209248000Y-74668500D01*
X209248000Y-73652500D01*
X210264000Y-73652500D01*
X210264000Y-74668500D01*
G37*
X210264000Y-74668500D02*
X209248000Y-74668500D01*
X209248000Y-73652500D01*
X210264000Y-73652500D01*
X210264000Y-74668500D01*
G36*
X199088000Y-74668500D02*
G01*
X198072000Y-74668500D01*
X198072000Y-73652500D01*
X199088000Y-73652500D01*
X199088000Y-74668500D01*
G37*
X199088000Y-74668500D02*
X198072000Y-74668500D01*
X198072000Y-73652500D01*
X199088000Y-73652500D01*
X199088000Y-74668500D01*
G36*
X210264000Y-51808500D02*
G01*
X209248000Y-51808500D01*
X209248000Y-50792500D01*
X210264000Y-50792500D01*
X210264000Y-51808500D01*
G37*
X210264000Y-51808500D02*
X209248000Y-51808500D01*
X209248000Y-50792500D01*
X210264000Y-50792500D01*
X210264000Y-51808500D01*
G36*
X199088000Y-72128500D02*
G01*
X198072000Y-72128500D01*
X198072000Y-71112500D01*
X199088000Y-71112500D01*
X199088000Y-72128500D01*
G37*
X199088000Y-72128500D02*
X198072000Y-72128500D01*
X198072000Y-71112500D01*
X199088000Y-71112500D01*
X199088000Y-72128500D01*
G36*
X199088000Y-59428500D02*
G01*
X198072000Y-59428500D01*
X198072000Y-58412500D01*
X199088000Y-58412500D01*
X199088000Y-59428500D01*
G37*
X199088000Y-59428500D02*
X198072000Y-59428500D01*
X198072000Y-58412500D01*
X199088000Y-58412500D01*
X199088000Y-59428500D01*
G36*
X210264000Y-49268500D02*
G01*
X209248000Y-49268500D01*
X209248000Y-48252500D01*
X210264000Y-48252500D01*
X210264000Y-49268500D01*
G37*
X210264000Y-49268500D02*
X209248000Y-49268500D01*
X209248000Y-48252500D01*
X210264000Y-48252500D01*
X210264000Y-49268500D01*
G36*
X199088000Y-54348500D02*
G01*
X198072000Y-54348500D01*
X198072000Y-53332500D01*
X199088000Y-53332500D01*
X199088000Y-54348500D01*
G37*
X199088000Y-54348500D02*
X198072000Y-54348500D01*
X198072000Y-53332500D01*
X199088000Y-53332500D01*
X199088000Y-54348500D01*
G36*
X210264000Y-54348500D02*
G01*
X209248000Y-54348500D01*
X209248000Y-53332500D01*
X210264000Y-53332500D01*
X210264000Y-54348500D01*
G37*
X210264000Y-54348500D02*
X209248000Y-54348500D01*
X209248000Y-53332500D01*
X210264000Y-53332500D01*
X210264000Y-54348500D01*
G36*
X210264000Y-46728500D02*
G01*
X209248000Y-46728500D01*
X209248000Y-45712500D01*
X210264000Y-45712500D01*
X210264000Y-46728500D01*
G37*
X210264000Y-46728500D02*
X209248000Y-46728500D01*
X209248000Y-45712500D01*
X210264000Y-45712500D01*
X210264000Y-46728500D01*
G36*
X210264000Y-72128500D02*
G01*
X209248000Y-72128500D01*
X209248000Y-71112500D01*
X210264000Y-71112500D01*
X210264000Y-72128500D01*
G37*
X210264000Y-72128500D02*
X209248000Y-72128500D01*
X209248000Y-71112500D01*
X210264000Y-71112500D01*
X210264000Y-72128500D01*
G36*
X210264000Y-69588500D02*
G01*
X209248000Y-69588500D01*
X209248000Y-68572500D01*
X210264000Y-68572500D01*
X210264000Y-69588500D01*
G37*
X210264000Y-69588500D02*
X209248000Y-69588500D01*
X209248000Y-68572500D01*
X210264000Y-68572500D01*
X210264000Y-69588500D01*
G36*
X210264000Y-67048500D02*
G01*
X209248000Y-67048500D01*
X209248000Y-66032500D01*
X210264000Y-66032500D01*
X210264000Y-67048500D01*
G37*
X210264000Y-67048500D02*
X209248000Y-67048500D01*
X209248000Y-66032500D01*
X210264000Y-66032500D01*
X210264000Y-67048500D01*
G36*
X199088000Y-56888500D02*
G01*
X198072000Y-56888500D01*
X198072000Y-55872500D01*
X199088000Y-55872500D01*
X199088000Y-56888500D01*
G37*
X199088000Y-56888500D02*
X198072000Y-56888500D01*
X198072000Y-55872500D01*
X199088000Y-55872500D01*
X199088000Y-56888500D01*
%TO.C,SW8*%
G36*
X107328451Y-78969002D02*
G01*
X105136823Y-79160744D01*
X104971227Y-77267974D01*
X107162855Y-77076232D01*
X107328451Y-78969002D01*
G37*
X107328451Y-78969002D02*
X105136823Y-79160744D01*
X104971227Y-77267974D01*
X107162855Y-77076232D01*
X107328451Y-78969002D01*
G36*
X94455403Y-77545545D02*
G01*
X92263775Y-77737288D01*
X92098179Y-75844518D01*
X94289807Y-75652775D01*
X94455403Y-77545545D01*
G37*
X94455403Y-77545545D02*
X92263775Y-77737288D01*
X92098179Y-75844518D01*
X94289807Y-75652775D01*
X94455403Y-77545545D01*
%TO.C,PSW1*%
G36*
X203718000Y-44272854D02*
G01*
X203118000Y-44272854D01*
X203118000Y-42872854D01*
X203718000Y-42872854D01*
X203718000Y-44272854D01*
G37*
X203718000Y-44272854D02*
X203118000Y-44272854D01*
X203118000Y-42872854D01*
X203718000Y-42872854D01*
X203718000Y-44272854D01*
G36*
X206718000Y-44272854D02*
G01*
X206118000Y-44272854D01*
X206118000Y-42872854D01*
X206718000Y-42872854D01*
X206718000Y-44272854D01*
G37*
X206718000Y-44272854D02*
X206118000Y-44272854D01*
X206118000Y-42872854D01*
X206718000Y-42872854D01*
X206718000Y-44272854D01*
G36*
X200968000Y-41072854D02*
G01*
X200068000Y-41072854D01*
X200068000Y-40372854D01*
X200968000Y-40372854D01*
X200968000Y-41072854D01*
G37*
X200968000Y-41072854D02*
X200068000Y-41072854D01*
X200068000Y-40372854D01*
X200968000Y-40372854D01*
X200968000Y-41072854D01*
G36*
X202218000Y-44272854D02*
G01*
X201618000Y-44272854D01*
X201618000Y-42872854D01*
X202218000Y-42872854D01*
X202218000Y-44272854D01*
G37*
X202218000Y-44272854D02*
X201618000Y-44272854D01*
X201618000Y-42872854D01*
X202218000Y-42872854D01*
X202218000Y-44272854D01*
G36*
X208268000Y-41072854D02*
G01*
X207368000Y-41072854D01*
X207368000Y-40372854D01*
X208268000Y-40372854D01*
X208268000Y-41072854D01*
G37*
X208268000Y-41072854D02*
X207368000Y-41072854D01*
X207368000Y-40372854D01*
X208268000Y-40372854D01*
X208268000Y-41072854D01*
G36*
X200968000Y-43272854D02*
G01*
X200068000Y-43272854D01*
X200068000Y-42572854D01*
X200968000Y-42572854D01*
X200968000Y-43272854D01*
G37*
X200968000Y-43272854D02*
X200068000Y-43272854D01*
X200068000Y-42572854D01*
X200968000Y-42572854D01*
X200968000Y-43272854D01*
G36*
X208268000Y-43272854D02*
G01*
X207368000Y-43272854D01*
X207368000Y-42572854D01*
X208268000Y-42572854D01*
X208268000Y-43272854D01*
G37*
X208268000Y-43272854D02*
X207368000Y-43272854D01*
X207368000Y-42572854D01*
X208268000Y-42572854D01*
X208268000Y-43272854D01*
%TO.C,D11*%
G36*
X163174244Y-63256416D02*
G01*
X163129758Y-64105251D01*
X161931403Y-64042448D01*
X161975888Y-63193613D01*
X163174244Y-63256416D01*
G37*
X163174244Y-63256416D02*
X163129758Y-64105251D01*
X161931403Y-64042448D01*
X161975888Y-63193613D01*
X163174244Y-63256416D01*
G36*
X159629109Y-63070624D02*
G01*
X159584624Y-63919459D01*
X158386268Y-63856656D01*
X158430754Y-63007821D01*
X159629109Y-63070624D01*
G37*
X159629109Y-63070624D02*
X159584624Y-63919459D01*
X158386268Y-63856656D01*
X158430754Y-63007821D01*
X159629109Y-63070624D01*
%TO.C,L10*%
G36*
X138444392Y-45927529D02*
G01*
X136944392Y-45927529D01*
X136944392Y-45177529D01*
X138444392Y-45177529D01*
X138444392Y-45927529D01*
G37*
X138444392Y-45927529D02*
X136944392Y-45927529D01*
X136944392Y-45177529D01*
X138444392Y-45177529D01*
X138444392Y-45927529D01*
G36*
X143444392Y-47677529D02*
G01*
X141944392Y-47677529D01*
X141944392Y-46927529D01*
X143444392Y-46927529D01*
X143444392Y-47677529D01*
G37*
X143444392Y-47677529D02*
X141944392Y-47677529D01*
X141944392Y-46927529D01*
X143444392Y-46927529D01*
X143444392Y-47677529D01*
G36*
X143444392Y-45927529D02*
G01*
X141944392Y-45927529D01*
X141944392Y-45177529D01*
X143444392Y-45177529D01*
X143444392Y-45927529D01*
G37*
X143444392Y-45927529D02*
X141944392Y-45927529D01*
X141944392Y-45177529D01*
X143444392Y-45177529D01*
X143444392Y-45927529D01*
G36*
X138444392Y-47677529D02*
G01*
X137194392Y-47677529D01*
X136944392Y-47427529D01*
X136944392Y-46927529D01*
X138444392Y-46927529D01*
X138444392Y-47677529D01*
G37*
X138444392Y-47677529D02*
X137194392Y-47677529D01*
X136944392Y-47427529D01*
X136944392Y-46927529D01*
X138444392Y-46927529D01*
X138444392Y-47677529D01*
%TO.C,L2*%
G36*
X96263947Y-50601390D02*
G01*
X95018704Y-50710335D01*
X94747866Y-50483075D01*
X94704289Y-49984978D01*
X96198581Y-49854244D01*
X96263947Y-50601390D01*
G37*
X96263947Y-50601390D02*
X95018704Y-50710335D01*
X94747866Y-50483075D01*
X94704289Y-49984978D01*
X96198581Y-49854244D01*
X96263947Y-50601390D01*
G36*
X96111425Y-48858050D02*
G01*
X94617133Y-48988783D01*
X94551766Y-48241637D01*
X96046058Y-48110904D01*
X96111425Y-48858050D01*
G37*
X96111425Y-48858050D02*
X94617133Y-48988783D01*
X94551766Y-48241637D01*
X96046058Y-48110904D01*
X96111425Y-48858050D01*
G36*
X101092398Y-48422271D02*
G01*
X99598106Y-48553005D01*
X99532739Y-47805859D01*
X101027032Y-47675125D01*
X101092398Y-48422271D01*
G37*
X101092398Y-48422271D02*
X99598106Y-48553005D01*
X99532739Y-47805859D01*
X101027032Y-47675125D01*
X101092398Y-48422271D01*
G36*
X101244921Y-50165612D02*
G01*
X99750629Y-50296345D01*
X99685262Y-49549199D01*
X101179554Y-49418466D01*
X101244921Y-50165612D01*
G37*
X101244921Y-50165612D02*
X99750629Y-50296345D01*
X99685262Y-49549199D01*
X101179554Y-49418466D01*
X101244921Y-50165612D01*
%TO.C,D17*%
G36*
X178033655Y-86835455D02*
G01*
X177974362Y-87683385D01*
X176777285Y-87599677D01*
X176836578Y-86751748D01*
X178033655Y-86835455D01*
G37*
X178033655Y-86835455D02*
X177974362Y-87683385D01*
X176777285Y-87599677D01*
X176836578Y-86751748D01*
X178033655Y-86835455D01*
G36*
X181575007Y-87083091D02*
G01*
X181515714Y-87931020D01*
X180318637Y-87847313D01*
X180377930Y-86999383D01*
X181575007Y-87083091D01*
G37*
X181575007Y-87083091D02*
X181515714Y-87931020D01*
X180318637Y-87847313D01*
X180377930Y-86999383D01*
X181575007Y-87083091D01*
%TO.C,L16*%
G36*
X158780081Y-68284334D02*
G01*
X158740829Y-69033306D01*
X157242885Y-68954802D01*
X157282137Y-68205830D01*
X158780081Y-68284334D01*
G37*
X158780081Y-68284334D02*
X158740829Y-69033306D01*
X157242885Y-68954802D01*
X157282137Y-68205830D01*
X158780081Y-68284334D01*
G36*
X158688493Y-70031936D02*
G01*
X158649241Y-70780908D01*
X157400954Y-70715488D01*
X157164381Y-70452747D01*
X157190549Y-69953432D01*
X158688493Y-70031936D01*
G37*
X158688493Y-70031936D02*
X158649241Y-70780908D01*
X157400954Y-70715488D01*
X157164381Y-70452747D01*
X157190549Y-69953432D01*
X158688493Y-70031936D01*
G36*
X163773229Y-68546014D02*
G01*
X163733977Y-69294986D01*
X162236032Y-69216482D01*
X162275284Y-68467510D01*
X163773229Y-68546014D01*
G37*
X163773229Y-68546014D02*
X163733977Y-69294986D01*
X162236032Y-69216482D01*
X162275284Y-68467510D01*
X163773229Y-68546014D01*
G36*
X163681641Y-70293616D02*
G01*
X163642389Y-71042588D01*
X162144444Y-70964084D01*
X162183696Y-70215112D01*
X163681641Y-70293616D01*
G37*
X163681641Y-70293616D02*
X163642389Y-71042588D01*
X162144444Y-70964084D01*
X162183696Y-70215112D01*
X163681641Y-70293616D01*
%TO.C,SW11*%
G36*
X155228420Y-56758659D02*
G01*
X155128982Y-58656055D01*
X152931997Y-58540916D01*
X153031435Y-56643520D01*
X155228420Y-56758659D01*
G37*
X155228420Y-56758659D02*
X155128982Y-58656055D01*
X152931997Y-58540916D01*
X153031435Y-56643520D01*
X155228420Y-56758659D01*
G36*
X167778082Y-59959845D02*
G01*
X167678644Y-61857241D01*
X165481659Y-61742102D01*
X165581097Y-59844706D01*
X167778082Y-59959845D01*
G37*
X167778082Y-59959845D02*
X167678644Y-61857241D01*
X165481659Y-61742102D01*
X165581097Y-59844706D01*
X167778082Y-59959845D01*
%TO.C,L9*%
G36*
X117388434Y-53410204D02*
G01*
X116140147Y-53475624D01*
X115877405Y-53239050D01*
X115851237Y-52739736D01*
X117349182Y-52661232D01*
X117388434Y-53410204D01*
G37*
X117388434Y-53410204D02*
X116140147Y-53475624D01*
X115877405Y-53239050D01*
X115851237Y-52739736D01*
X117349182Y-52661232D01*
X117388434Y-53410204D01*
G36*
X122289993Y-51400922D02*
G01*
X120792049Y-51479426D01*
X120752797Y-50730454D01*
X122250741Y-50651950D01*
X122289993Y-51400922D01*
G37*
X122289993Y-51400922D02*
X120792049Y-51479426D01*
X120752797Y-50730454D01*
X122250741Y-50651950D01*
X122289993Y-51400922D01*
G36*
X122381581Y-53148524D02*
G01*
X120883637Y-53227028D01*
X120844385Y-52478056D01*
X122342329Y-52399552D01*
X122381581Y-53148524D01*
G37*
X122381581Y-53148524D02*
X120883637Y-53227028D01*
X120844385Y-52478056D01*
X122342329Y-52399552D01*
X122381581Y-53148524D01*
G36*
X117296846Y-51662602D02*
G01*
X115798901Y-51741106D01*
X115759649Y-50992134D01*
X117257594Y-50913630D01*
X117296846Y-51662602D01*
G37*
X117296846Y-51662602D02*
X115798901Y-51741106D01*
X115759649Y-50992134D01*
X117257594Y-50913630D01*
X117296846Y-51662602D01*
%TO.C,D10*%
G36*
X139019392Y-60080529D02*
G01*
X137819392Y-60080529D01*
X137819392Y-59230529D01*
X139019392Y-59230529D01*
X139019392Y-60080529D01*
G37*
X139019392Y-60080529D02*
X137819392Y-60080529D01*
X137819392Y-59230529D01*
X139019392Y-59230529D01*
X139019392Y-60080529D01*
G36*
X142569392Y-60080529D02*
G01*
X141369392Y-60080529D01*
X141369392Y-59230529D01*
X142569392Y-59230529D01*
X142569392Y-60080529D01*
G37*
X142569392Y-60080529D02*
X141369392Y-60080529D01*
X141369392Y-59230529D01*
X142569392Y-59230529D01*
X142569392Y-60080529D01*
%TO.C,L17*%
G36*
X178318270Y-74522316D02*
G01*
X178265953Y-75270489D01*
X177018998Y-75183293D01*
X176787046Y-74916463D01*
X176821924Y-74417681D01*
X178318270Y-74522316D01*
G37*
X178318270Y-74522316D02*
X178265953Y-75270489D01*
X177018998Y-75183293D01*
X176787046Y-74916463D01*
X176821924Y-74417681D01*
X178318270Y-74522316D01*
G36*
X183428164Y-73125361D02*
G01*
X183375847Y-73873534D01*
X181879501Y-73768899D01*
X181931818Y-73020726D01*
X183428164Y-73125361D01*
G37*
X183428164Y-73125361D02*
X183375847Y-73873534D01*
X181879501Y-73768899D01*
X181931818Y-73020726D01*
X183428164Y-73125361D01*
G36*
X183306091Y-74871098D02*
G01*
X183253773Y-75619271D01*
X181757427Y-75514636D01*
X181809744Y-74766463D01*
X183306091Y-74871098D01*
G37*
X183306091Y-74871098D02*
X183253773Y-75619271D01*
X181757427Y-75514636D01*
X181809744Y-74766463D01*
X183306091Y-74871098D01*
G36*
X178440344Y-72776579D02*
G01*
X178388027Y-73524752D01*
X176891681Y-73420117D01*
X176943998Y-72671944D01*
X178440344Y-72776579D01*
G37*
X178440344Y-72776579D02*
X178388027Y-73524752D01*
X176891681Y-73420117D01*
X176943998Y-72671944D01*
X178440344Y-72776579D01*
%TO.C,SW6*%
G36*
X188928837Y-45353417D02*
G01*
X188796300Y-47248789D01*
X186601659Y-47095325D01*
X186734196Y-45199953D01*
X188928837Y-45353417D01*
G37*
X188928837Y-45353417D02*
X188796300Y-47248789D01*
X186601659Y-47095325D01*
X186734196Y-45199953D01*
X188928837Y-45353417D01*
G36*
X176436955Y-41933697D02*
G01*
X176304418Y-43829069D01*
X174109777Y-43675605D01*
X174242314Y-41780233D01*
X176436955Y-41933697D01*
G37*
X176436955Y-41933697D02*
X176304418Y-43829069D01*
X174109777Y-43675605D01*
X174242314Y-41780233D01*
X176436955Y-41933697D01*
%TO.C,L4*%
G36*
X143444392Y-26623529D02*
G01*
X141944392Y-26623529D01*
X141944392Y-25873529D01*
X143444392Y-25873529D01*
X143444392Y-26623529D01*
G37*
X143444392Y-26623529D02*
X141944392Y-26623529D01*
X141944392Y-25873529D01*
X143444392Y-25873529D01*
X143444392Y-26623529D01*
G36*
X138444392Y-28373529D02*
G01*
X137194392Y-28373529D01*
X136944392Y-28123529D01*
X136944392Y-27623529D01*
X138444392Y-27623529D01*
X138444392Y-28373529D01*
G37*
X138444392Y-28373529D02*
X137194392Y-28373529D01*
X136944392Y-28123529D01*
X136944392Y-27623529D01*
X138444392Y-27623529D01*
X138444392Y-28373529D01*
G36*
X143444392Y-28373529D02*
G01*
X141944392Y-28373529D01*
X141944392Y-27623529D01*
X143444392Y-27623529D01*
X143444392Y-28373529D01*
G37*
X143444392Y-28373529D02*
X141944392Y-28373529D01*
X141944392Y-27623529D01*
X143444392Y-27623529D01*
X143444392Y-28373529D01*
G36*
X138444392Y-26623529D02*
G01*
X136944392Y-26623529D01*
X136944392Y-25873529D01*
X138444392Y-25873529D01*
X138444392Y-26623529D01*
G37*
X138444392Y-26623529D02*
X136944392Y-26623529D01*
X136944392Y-25873529D01*
X138444392Y-25873529D01*
X138444392Y-26623529D01*
%TO.C,D4*%
G36*
X142569392Y-40776529D02*
G01*
X141369392Y-40776529D01*
X141369392Y-39926529D01*
X142569392Y-39926529D01*
X142569392Y-40776529D01*
G37*
X142569392Y-40776529D02*
X141369392Y-40776529D01*
X141369392Y-39926529D01*
X142569392Y-39926529D01*
X142569392Y-40776529D01*
G36*
X139019392Y-40776529D02*
G01*
X137819392Y-40776529D01*
X137819392Y-39926529D01*
X139019392Y-39926529D01*
X139019392Y-40776529D01*
G37*
X139019392Y-40776529D02*
X137819392Y-40776529D01*
X137819392Y-39926529D01*
X139019392Y-39926529D01*
X139019392Y-40776529D01*
%TO.C,L3*%
G36*
X121279700Y-32123378D02*
G01*
X119781756Y-32201882D01*
X119742504Y-31452910D01*
X121240448Y-31374406D01*
X121279700Y-32123378D01*
G37*
X121279700Y-32123378D02*
X119781756Y-32201882D01*
X119742504Y-31452910D01*
X121240448Y-31374406D01*
X121279700Y-32123378D01*
G36*
X121371288Y-33870980D02*
G01*
X119873344Y-33949484D01*
X119834092Y-33200512D01*
X121332036Y-33122008D01*
X121371288Y-33870980D01*
G37*
X121371288Y-33870980D02*
X119873344Y-33949484D01*
X119834092Y-33200512D01*
X121332036Y-33122008D01*
X121371288Y-33870980D01*
G36*
X116286553Y-32385058D02*
G01*
X114788608Y-32463562D01*
X114749356Y-31714590D01*
X116247301Y-31636086D01*
X116286553Y-32385058D01*
G37*
X116286553Y-32385058D02*
X114788608Y-32463562D01*
X114749356Y-31714590D01*
X116247301Y-31636086D01*
X116286553Y-32385058D01*
G36*
X116378141Y-34132660D02*
G01*
X115129854Y-34198080D01*
X114867112Y-33961506D01*
X114840944Y-33462192D01*
X116338889Y-33383688D01*
X116378141Y-34132660D01*
G37*
X116378141Y-34132660D02*
X115129854Y-34198080D01*
X114867112Y-33961506D01*
X114840944Y-33462192D01*
X116338889Y-33383688D01*
X116378141Y-34132660D01*
%TO.C,SW5*%
G36*
X156238714Y-37481114D02*
G01*
X156139276Y-39378510D01*
X153942291Y-39263371D01*
X154041729Y-37365975D01*
X156238714Y-37481114D01*
G37*
X156238714Y-37481114D02*
X156139276Y-39378510D01*
X153942291Y-39263371D01*
X154041729Y-37365975D01*
X156238714Y-37481114D01*
G36*
X168788376Y-40682300D02*
G01*
X168688938Y-42579696D01*
X166491953Y-42464557D01*
X166591391Y-40567161D01*
X168788376Y-40682300D01*
G37*
X168788376Y-40682300D02*
X168688938Y-42579696D01*
X166491953Y-42464557D01*
X166591391Y-40567161D01*
X168788376Y-40682300D01*
%TO.C,SW7*%
G36*
X89054058Y-88439004D02*
G01*
X86862430Y-88630746D01*
X86696834Y-86737976D01*
X88888462Y-86546234D01*
X89054058Y-88439004D01*
G37*
X89054058Y-88439004D02*
X86862430Y-88630746D01*
X86696834Y-86737976D01*
X88888462Y-86546234D01*
X89054058Y-88439004D01*
G36*
X76181010Y-87015547D02*
G01*
X73989382Y-87207290D01*
X73823786Y-85314520D01*
X76015414Y-85122777D01*
X76181010Y-87015547D01*
G37*
X76181010Y-87015547D02*
X73989382Y-87207290D01*
X73823786Y-85314520D01*
X76015414Y-85122777D01*
X76181010Y-87015547D01*
%TO.C,SW20*%
G36*
X184353580Y-106409736D02*
G01*
X183550606Y-108131721D01*
X181556728Y-107201961D01*
X182359703Y-105479976D01*
X184353580Y-106409736D01*
G37*
X184353580Y-106409736D02*
X183550606Y-108131721D01*
X181556728Y-107201961D01*
X182359703Y-105479976D01*
X184353580Y-106409736D01*
G36*
X194790239Y-114079010D02*
G01*
X193987264Y-115800994D01*
X191993387Y-114871234D01*
X192796362Y-113149249D01*
X194790239Y-114079010D01*
G37*
X194790239Y-114079010D02*
X193987264Y-115800994D01*
X191993387Y-114871234D01*
X192796362Y-113149249D01*
X194790239Y-114079010D01*
%TO.C,D19*%
G36*
X163498523Y-94276473D02*
G01*
X162648523Y-94276473D01*
X162648523Y-93076473D01*
X163498523Y-93076473D01*
X163498523Y-94276473D01*
G37*
X163498523Y-94276473D02*
X162648523Y-94276473D01*
X162648523Y-93076473D01*
X163498523Y-93076473D01*
X163498523Y-94276473D01*
G36*
X163498523Y-90726473D02*
G01*
X162648523Y-90726473D01*
X162648523Y-89526473D01*
X163498523Y-89526473D01*
X163498523Y-90726473D01*
G37*
X163498523Y-90726473D02*
X162648523Y-90726473D01*
X162648523Y-89526473D01*
X163498523Y-89526473D01*
X163498523Y-90726473D01*
%TO.C,D13*%
G36*
X101282660Y-101368163D02*
G01*
X100087227Y-101472750D01*
X100013144Y-100625984D01*
X101208578Y-100521397D01*
X101282660Y-101368163D01*
G37*
X101282660Y-101368163D02*
X100087227Y-101472750D01*
X100013144Y-100625984D01*
X101208578Y-100521397D01*
X101282660Y-101368163D01*
G36*
X104819152Y-101058760D02*
G01*
X103623718Y-101163347D01*
X103549636Y-100316581D01*
X104745069Y-100211994D01*
X104819152Y-101058760D01*
G37*
X104819152Y-101058760D02*
X103623718Y-101163347D01*
X103549636Y-100316581D01*
X104745069Y-100211994D01*
X104819152Y-101058760D01*
%TO.C,SW19*%
G36*
X164550587Y-100126395D02*
G01*
X164058830Y-101961654D01*
X161933794Y-101392252D01*
X162425550Y-99556993D01*
X164550587Y-100126395D01*
G37*
X164550587Y-100126395D02*
X164058830Y-101961654D01*
X161933794Y-101392252D01*
X162425550Y-99556993D01*
X164550587Y-100126395D01*
G36*
X176160444Y-105866848D02*
G01*
X175668688Y-107702107D01*
X173543651Y-107132705D01*
X174035407Y-105297446D01*
X176160444Y-105866848D01*
G37*
X176160444Y-105866848D02*
X175668688Y-107702107D01*
X173543651Y-107132705D01*
X174035407Y-105297446D01*
X176160444Y-105866848D01*
%TO.C,L14*%
G36*
X118307140Y-70940146D02*
G01*
X116809195Y-71018650D01*
X116769943Y-70269678D01*
X118267888Y-70191174D01*
X118307140Y-70940146D01*
G37*
X118307140Y-70940146D02*
X116809195Y-71018650D01*
X116769943Y-70269678D01*
X118267888Y-70191174D01*
X118307140Y-70940146D01*
G36*
X123391875Y-72426068D02*
G01*
X121893931Y-72504572D01*
X121854679Y-71755600D01*
X123352623Y-71677096D01*
X123391875Y-72426068D01*
G37*
X123391875Y-72426068D02*
X121893931Y-72504572D01*
X121854679Y-71755600D01*
X123352623Y-71677096D01*
X123391875Y-72426068D01*
G36*
X123300287Y-70678466D02*
G01*
X121802343Y-70756970D01*
X121763091Y-70007998D01*
X123261035Y-69929494D01*
X123300287Y-70678466D01*
G37*
X123300287Y-70678466D02*
X121802343Y-70756970D01*
X121763091Y-70007998D01*
X123261035Y-69929494D01*
X123300287Y-70678466D01*
G36*
X118398728Y-72687748D02*
G01*
X117150441Y-72753168D01*
X116887699Y-72516594D01*
X116861531Y-72017280D01*
X118359476Y-71938776D01*
X118398728Y-72687748D01*
G37*
X118398728Y-72687748D02*
X117150441Y-72753168D01*
X116887699Y-72516594D01*
X116861531Y-72017280D01*
X118359476Y-71938776D01*
X118398728Y-72687748D01*
%TO.C,SW15*%
G36*
X146994392Y-76901529D02*
G01*
X144794392Y-76901529D01*
X144794392Y-75001529D01*
X146994392Y-75001529D01*
X146994392Y-76901529D01*
G37*
X146994392Y-76901529D02*
X144794392Y-76901529D01*
X144794392Y-75001529D01*
X146994392Y-75001529D01*
X146994392Y-76901529D01*
G36*
X134294392Y-74361529D02*
G01*
X132094392Y-74361529D01*
X132094392Y-72461529D01*
X134294392Y-72461529D01*
X134294392Y-74361529D01*
G37*
X134294392Y-74361529D02*
X132094392Y-74361529D01*
X132094392Y-72461529D01*
X134294392Y-72461529D01*
X134294392Y-74361529D01*
%TO.C,SW9*%
G36*
X113630361Y-60997283D02*
G01*
X111433376Y-61112423D01*
X111333937Y-59215026D01*
X113530922Y-59099887D01*
X113630361Y-60997283D01*
G37*
X113630361Y-60997283D02*
X111433376Y-61112423D01*
X111333937Y-59215026D01*
X113530922Y-59099887D01*
X113630361Y-60997283D01*
G36*
X126445889Y-62869136D02*
G01*
X124248904Y-62984275D01*
X124149466Y-61086879D01*
X126346451Y-60971740D01*
X126445889Y-62869136D01*
G37*
X126445889Y-62869136D02*
X124248904Y-62984275D01*
X124149466Y-61086879D01*
X126346451Y-60971740D01*
X126445889Y-62869136D01*
%TO.C,D6*%
G36*
X180726813Y-48321503D02*
G01*
X180667520Y-49169433D01*
X179470443Y-49085725D01*
X179529736Y-48237796D01*
X180726813Y-48321503D01*
G37*
X180726813Y-48321503D02*
X180667520Y-49169433D01*
X179470443Y-49085725D01*
X179529736Y-48237796D01*
X180726813Y-48321503D01*
G36*
X184268165Y-48569139D02*
G01*
X184208872Y-49417068D01*
X183011795Y-49333361D01*
X183071088Y-48485431D01*
X184268165Y-48569139D01*
G37*
X184268165Y-48569139D02*
X184208872Y-49417068D01*
X183011795Y-49333361D01*
X183071088Y-48485431D01*
X184268165Y-48569139D01*
%TO.C,SW1*%
G36*
X87371604Y-69208461D02*
G01*
X85179976Y-69400203D01*
X85014380Y-67507433D01*
X87206008Y-67315691D01*
X87371604Y-69208461D01*
G37*
X87371604Y-69208461D02*
X85179976Y-69400203D01*
X85014380Y-67507433D01*
X87206008Y-67315691D01*
X87371604Y-69208461D01*
G36*
X74498556Y-67785004D02*
G01*
X72306928Y-67976747D01*
X72141332Y-66083977D01*
X74332960Y-65892234D01*
X74498556Y-67785004D01*
G37*
X74498556Y-67785004D02*
X72306928Y-67976747D01*
X72141332Y-66083977D01*
X74332960Y-65892234D01*
X74498556Y-67785004D01*
%TO.C,D15*%
G36*
X139019392Y-79384529D02*
G01*
X137819392Y-79384529D01*
X137819392Y-78534529D01*
X139019392Y-78534529D01*
X139019392Y-79384529D01*
G37*
X139019392Y-79384529D02*
X137819392Y-79384529D01*
X137819392Y-78534529D01*
X139019392Y-78534529D01*
X139019392Y-79384529D01*
G36*
X142569392Y-79384529D02*
G01*
X141369392Y-79384529D01*
X141369392Y-78534529D01*
X142569392Y-78534529D01*
X142569392Y-79384529D01*
G37*
X142569392Y-79384529D02*
X141369392Y-79384529D01*
X141369392Y-78534529D01*
X142569392Y-78534529D01*
X142569392Y-79384529D01*
%TO.C,O1*%
G36*
X200843529Y-78606000D02*
G01*
X199827529Y-78606000D01*
X199827529Y-77590000D01*
X200843529Y-77590000D01*
X200843529Y-78606000D01*
G37*
X200843529Y-78606000D02*
X199827529Y-78606000D01*
X199827529Y-77590000D01*
X200843529Y-77590000D01*
X200843529Y-78606000D01*
G36*
X208463529Y-78606000D02*
G01*
X207447529Y-78606000D01*
X207447529Y-77590000D01*
X208463529Y-77590000D01*
X208463529Y-78606000D01*
G37*
X208463529Y-78606000D02*
X207447529Y-78606000D01*
X207447529Y-77590000D01*
X208463529Y-77590000D01*
X208463529Y-78606000D01*
G36*
X203383529Y-78606000D02*
G01*
X202367529Y-78606000D01*
X202367529Y-77590000D01*
X203383529Y-77590000D01*
X203383529Y-78606000D01*
G37*
X203383529Y-78606000D02*
X202367529Y-78606000D01*
X202367529Y-77590000D01*
X203383529Y-77590000D01*
X203383529Y-78606000D01*
G36*
X205923529Y-78606000D02*
G01*
X204907529Y-78606000D01*
X204907529Y-77590000D01*
X205923529Y-77590000D01*
X205923529Y-78606000D01*
G37*
X205923529Y-78606000D02*
X204907529Y-78606000D01*
X204907529Y-77590000D01*
X205923529Y-77590000D01*
X205923529Y-78606000D01*
%TO.C,L1*%
G36*
X82970528Y-59635613D02*
G01*
X81476236Y-59766346D01*
X81410869Y-59019200D01*
X82905161Y-58888467D01*
X82970528Y-59635613D01*
G37*
X82970528Y-59635613D02*
X81476236Y-59766346D01*
X81410869Y-59019200D01*
X82905161Y-58888467D01*
X82970528Y-59635613D01*
G36*
X77989554Y-60071391D02*
G01*
X76744311Y-60180336D01*
X76473473Y-59953076D01*
X76429896Y-59454979D01*
X77924188Y-59324245D01*
X77989554Y-60071391D01*
G37*
X77989554Y-60071391D02*
X76744311Y-60180336D01*
X76473473Y-59953076D01*
X76429896Y-59454979D01*
X77924188Y-59324245D01*
X77989554Y-60071391D01*
G36*
X77837032Y-58328051D02*
G01*
X76342740Y-58458784D01*
X76277373Y-57711638D01*
X77771665Y-57580905D01*
X77837032Y-58328051D01*
G37*
X77837032Y-58328051D02*
X76342740Y-58458784D01*
X76277373Y-57711638D01*
X77771665Y-57580905D01*
X77837032Y-58328051D01*
G36*
X82818005Y-57892272D02*
G01*
X81323713Y-58023006D01*
X81258346Y-57275860D01*
X82752639Y-57145126D01*
X82818005Y-57892272D01*
G37*
X82818005Y-57892272D02*
X81323713Y-58023006D01*
X81258346Y-57275860D01*
X82752639Y-57145126D01*
X82818005Y-57892272D01*
%TO.C,D1*%
G36*
X83179850Y-72067677D02*
G01*
X81984416Y-72172264D01*
X81910334Y-71325498D01*
X83105767Y-71220911D01*
X83179850Y-72067677D01*
G37*
X83179850Y-72067677D02*
X81984416Y-72172264D01*
X81910334Y-71325498D01*
X83105767Y-71220911D01*
X83179850Y-72067677D01*
G36*
X79643358Y-72377080D02*
G01*
X78447925Y-72481667D01*
X78373842Y-71634901D01*
X79569276Y-71530314D01*
X79643358Y-72377080D01*
G37*
X79643358Y-72377080D02*
X78447925Y-72481667D01*
X78373842Y-71634901D01*
X79569276Y-71530314D01*
X79643358Y-72377080D01*
%TO.C,SW16*%
G36*
X154218127Y-76036203D02*
G01*
X154118689Y-77933599D01*
X151921704Y-77818460D01*
X152021142Y-75921064D01*
X154218127Y-76036203D01*
G37*
X154218127Y-76036203D02*
X154118689Y-77933599D01*
X151921704Y-77818460D01*
X152021142Y-75921064D01*
X154218127Y-76036203D01*
G36*
X166767789Y-79237389D02*
G01*
X166668351Y-81134785D01*
X164471366Y-81019646D01*
X164570804Y-79122250D01*
X166767789Y-79237389D01*
G37*
X166767789Y-79237389D02*
X166668351Y-81134785D01*
X164471366Y-81019646D01*
X164570804Y-79122250D01*
X166767789Y-79237389D01*
%TO.C,L12*%
G36*
X184774742Y-53868384D02*
G01*
X184722425Y-54616557D01*
X183226079Y-54511922D01*
X183278396Y-53763749D01*
X184774742Y-53868384D01*
G37*
X184774742Y-53868384D02*
X184722425Y-54616557D01*
X183226079Y-54511922D01*
X183278396Y-53763749D01*
X184774742Y-53868384D01*
G36*
X179664848Y-55265339D02*
G01*
X179612531Y-56013512D01*
X178365576Y-55926316D01*
X178133624Y-55659486D01*
X178168502Y-55160704D01*
X179664848Y-55265339D01*
G37*
X179664848Y-55265339D02*
X179612531Y-56013512D01*
X178365576Y-55926316D01*
X178133624Y-55659486D01*
X178168502Y-55160704D01*
X179664848Y-55265339D01*
G36*
X179786922Y-53519602D02*
G01*
X179734605Y-54267775D01*
X178238259Y-54163140D01*
X178290576Y-53414967D01*
X179786922Y-53519602D01*
G37*
X179786922Y-53519602D02*
X179734605Y-54267775D01*
X178238259Y-54163140D01*
X178290576Y-53414967D01*
X179786922Y-53519602D01*
G36*
X184652669Y-55614121D02*
G01*
X184600351Y-56362294D01*
X183104005Y-56257659D01*
X183156322Y-55509486D01*
X184652669Y-55614121D01*
G37*
X184652669Y-55614121D02*
X184600351Y-56362294D01*
X183104005Y-56257659D01*
X183156322Y-55509486D01*
X184652669Y-55614121D01*
%TO.C,D9*%
G36*
X118611769Y-65766112D02*
G01*
X117413414Y-65828915D01*
X117368928Y-64980080D01*
X118567284Y-64917277D01*
X118611769Y-65766112D01*
G37*
X118611769Y-65766112D02*
X117413414Y-65828915D01*
X117368928Y-64980080D01*
X118567284Y-64917277D01*
X118611769Y-65766112D01*
G36*
X122156904Y-65580320D02*
G01*
X120958548Y-65643123D01*
X120914063Y-64794288D01*
X122112418Y-64731485D01*
X122156904Y-65580320D01*
G37*
X122156904Y-65580320D02*
X120958548Y-65643123D01*
X120914063Y-64794288D01*
X122112418Y-64731485D01*
X122156904Y-65580320D01*
%TD*%
D11*
%TO.C,EN1*%
X150819424Y-89530968D03*
D12*
X145819424Y-89530968D03*
X148319424Y-89530968D03*
X145819424Y-104030968D03*
X150819424Y-104030968D03*
%TD*%
D13*
%TO.C,*%
X158775970Y-101782173D03*
%TD*%
D14*
%TO.C,D7*%
X78896909Y-91393500D03*
D12*
X86021693Y-90770162D03*
%TD*%
D13*
%TO.C,*%
X149603000Y-60960000D03*
%TD*%
D11*
%TO.C,D20*%
X160438337Y-88374968D03*
D12*
X160438337Y-95526968D03*
%TD*%
D15*
%TO.C,SW17*%
X184810752Y-79587547D03*
D16*
X181922577Y-84477991D03*
X183366665Y-82032769D03*
D15*
X174675502Y-78878821D03*
D16*
X176854951Y-84123628D03*
X175765226Y-81501226D03*
D17*
X179743127Y-79233184D03*
%TD*%
%TO.C,SW4*%
X140194392Y-32223529D03*
D16*
X136384392Y-34763530D03*
D15*
X135114392Y-32223529D03*
D16*
X144004392Y-34763529D03*
D15*
X145274392Y-32223529D03*
D16*
X142734392Y-37303529D03*
X137654392Y-37303529D03*
%TD*%
%TO.C,SW18*%
X145779424Y-102110968D03*
D15*
X143239424Y-97030968D03*
D16*
X152129424Y-99570968D03*
X144509424Y-99570969D03*
D15*
X153399424Y-97030968D03*
D16*
X150859424Y-102110968D03*
D17*
X148319424Y-97030968D03*
%TD*%
D13*
%TO.C,*%
X151244988Y-32143541D03*
%TD*%
D18*
%TO.C,D14*%
X117202110Y-84744897D03*
D12*
X124344308Y-84370591D03*
%TD*%
D13*
%TO.C,*%
X197056000Y-40132000D03*
%TD*%
%TO.C,*%
X91703707Y-91731488D03*
%TD*%
D19*
%TO.C,B-*%
X210259993Y-43595113D03*
%TD*%
D16*
%TO.C,SW13*%
X105724623Y-94943573D03*
X99620163Y-98027347D03*
D15*
X106768415Y-92302551D03*
D16*
X104680832Y-97584595D03*
D17*
X101707746Y-92745302D03*
D15*
X96647077Y-93188053D03*
D16*
X98133620Y-95607701D03*
%TD*%
D18*
%TO.C,D3*%
X115181523Y-46189809D03*
D12*
X122323721Y-45815503D03*
%TD*%
D20*
%TO.C,D12*%
X176955437Y-67834960D03*
D12*
X184090015Y-68333858D03*
%TD*%
D16*
%TO.C,SW10*%
X137654392Y-56607529D03*
D15*
X145274392Y-51527529D03*
D17*
X140194392Y-51527529D03*
D16*
X142734392Y-56607529D03*
X144004392Y-54067529D03*
X136384392Y-54067530D03*
D15*
X135114392Y-51527529D03*
%TD*%
D21*
%TO.C,D5*%
X158219450Y-44091838D03*
D12*
X165361648Y-44466144D03*
%TD*%
D13*
%TO.C,*%
X88487061Y-53034620D03*
%TD*%
D22*
%TO.C,PUCK1*%
X168626893Y-63820893D03*
X130579107Y-61826893D03*
X150600000Y-43800000D03*
%TD*%
D16*
%TO.C,SW12*%
X178201530Y-64866652D03*
D15*
X186157331Y-60330571D03*
D16*
X184713244Y-62775793D03*
D17*
X181089706Y-59976208D03*
D16*
X183269156Y-65221015D03*
D15*
X176022081Y-59621845D03*
D16*
X177111805Y-62244250D03*
%TD*%
D11*
%TO.C,D18*%
X157971424Y-88374968D03*
D12*
X157971424Y-95526968D03*
%TD*%
D14*
%TO.C,D8*%
X97171302Y-81923499D03*
D12*
X104296086Y-81300161D03*
%TD*%
D21*
%TO.C,D16*%
X156198863Y-82646927D03*
D12*
X163341061Y-83021233D03*
%TD*%
D16*
%TO.C,SW14*%
X118077170Y-81646855D03*
D15*
X115274784Y-76706751D03*
D16*
X124285534Y-78778003D03*
D17*
X120347822Y-76440884D03*
D15*
X125420860Y-76175017D03*
D16*
X116675977Y-79176804D03*
X123150208Y-81380989D03*
%TD*%
D14*
%TO.C,D2*%
X95488847Y-62692957D03*
D12*
X102613631Y-62069619D03*
%TD*%
D23*
%TO.C,J1*%
X210895675Y-88306422D03*
X203895675Y-88306422D03*
D24*
X201295675Y-90506422D03*
X201295675Y-86106422D03*
X209195675Y-86106422D03*
X209195675Y-90506422D03*
X206195675Y-86106422D03*
X206195675Y-90506422D03*
X202195675Y-90506422D03*
X202195675Y-86106422D03*
%TD*%
D15*
%TO.C,SW3*%
X123400273Y-37619928D03*
D16*
X122264947Y-40222914D03*
X121129621Y-42825900D03*
D17*
X118327235Y-37885795D03*
D16*
X116056583Y-43091766D03*
X114655390Y-40621715D03*
D15*
X113254197Y-38151662D03*
%TD*%
D16*
%TO.C,SW2*%
X94768711Y-57146616D03*
X102359714Y-56482488D03*
D17*
X98342837Y-54284217D03*
D15*
X103403506Y-53841466D03*
D16*
X101315923Y-59123510D03*
D15*
X93282168Y-54726968D03*
D16*
X96255254Y-59566262D03*
%TD*%
D25*
%TO.C,U1*%
X210010000Y-58920500D03*
D12*
X211788000Y-61460500D03*
D26*
X198326000Y-58920500D03*
X198326000Y-53840500D03*
D12*
X196548000Y-69080500D03*
D25*
X210010000Y-66540500D03*
D12*
X196548000Y-56380500D03*
D25*
X210010000Y-48760500D03*
D26*
X198326000Y-66540500D03*
X198326000Y-56380500D03*
X198326000Y-71620500D03*
X198326000Y-64000500D03*
D12*
X196548000Y-66540500D03*
D25*
X210010000Y-64000500D03*
D12*
X211788000Y-58920500D03*
D25*
X210010000Y-46220500D03*
D26*
X198326000Y-74160500D03*
D12*
X196548000Y-58920500D03*
X211788000Y-71620500D03*
D25*
X210010000Y-69080500D03*
D26*
X198326000Y-48760500D03*
D12*
X211788000Y-69080500D03*
X211788000Y-66540500D03*
X211788000Y-46220500D03*
X211788000Y-74160500D03*
X196548000Y-51300500D03*
X211788000Y-53840500D03*
D25*
X210010000Y-71620500D03*
D12*
X196548000Y-61460500D03*
D26*
X198326000Y-69080500D03*
X198326000Y-46220500D03*
D25*
X210010000Y-53840500D03*
D12*
X211788000Y-56380500D03*
X196548000Y-74160500D03*
X196548000Y-64000500D03*
D25*
X210010000Y-74160500D03*
D12*
X211788000Y-64000500D03*
X196548000Y-53840500D03*
D26*
X198326000Y-61460500D03*
X198326000Y-51300500D03*
D12*
X211788000Y-48760500D03*
X211788000Y-51300500D03*
D25*
X210010000Y-56380500D03*
D12*
X196548000Y-46220500D03*
D25*
X210010000Y-51300500D03*
X210010000Y-61460500D03*
D12*
X196548000Y-48760500D03*
X196548000Y-71620500D03*
D27*
X208994000Y-46220500D03*
X208994000Y-48760500D03*
X208994000Y-51300500D03*
X208994000Y-53840500D03*
X208994000Y-56380500D03*
X208994000Y-58920500D03*
X208994000Y-61460500D03*
X208994000Y-64000500D03*
X208994000Y-66540500D03*
X208994000Y-69080500D03*
X208994000Y-71620500D03*
X208994000Y-74160500D03*
D28*
X199342000Y-74160500D03*
X199342000Y-71620500D03*
X199342000Y-69080500D03*
X199342000Y-66540500D03*
X199342000Y-64000500D03*
X199342000Y-61460500D03*
X199342000Y-58920500D03*
X199342000Y-56380500D03*
X199342000Y-53840500D03*
X199342000Y-51300500D03*
X199342000Y-48760500D03*
X199342000Y-46220500D03*
%TD*%
D16*
%TO.C,SW8*%
X97937709Y-78796804D03*
D15*
X105085961Y-73072008D03*
D16*
X104042169Y-75713030D03*
X102998378Y-78354052D03*
D15*
X94964623Y-73957510D03*
D16*
X96451166Y-76377158D03*
D17*
X100025292Y-73514759D03*
%TD*%
D29*
%TO.C,PSW1*%
X202668000Y-41822854D03*
X205668000Y-41822854D03*
X205668000Y-41822854D03*
X202668000Y-41822854D03*
%TD*%
D21*
%TO.C,D11*%
X157209157Y-63369383D03*
D12*
X164351355Y-63743689D03*
%TD*%
D19*
%TO.C,B+*%
X198161159Y-43595113D03*
%TD*%
D20*
%TO.C,D17*%
X175608857Y-87091935D03*
D12*
X182743435Y-87590833D03*
%TD*%
D16*
%TO.C,SW11*%
X163476294Y-60645646D03*
X164877487Y-58175594D03*
D15*
X166278680Y-55705542D03*
D16*
X157267930Y-57776795D03*
D17*
X161205642Y-55439675D03*
D15*
X156132604Y-55173808D03*
D16*
X158403256Y-60379780D03*
%TD*%
D11*
%TO.C,D10*%
X136618392Y-59655529D03*
D12*
X143770392Y-59655529D03*
%TD*%
D16*
%TO.C,SW6*%
X178458385Y-42987273D03*
D15*
X177368661Y-40364868D03*
X187503911Y-41073594D03*
D16*
X184615736Y-45964038D03*
X186059824Y-43518816D03*
X179548110Y-45609675D03*
D17*
X182436286Y-40719231D03*
%TD*%
D11*
%TO.C,D4*%
X136618392Y-40351529D03*
D12*
X143770392Y-40351529D03*
%TD*%
D16*
%TO.C,SW5*%
X159413550Y-41102235D03*
D15*
X157142898Y-35896263D03*
D17*
X162215936Y-36162130D03*
D16*
X164486588Y-41368101D03*
D15*
X167288974Y-36427997D03*
D16*
X165887781Y-38898049D03*
X158278224Y-38499250D03*
%TD*%
%TO.C,SW7*%
X84723985Y-87824054D03*
D17*
X81750899Y-82984761D03*
D16*
X79663316Y-88266806D03*
X78176773Y-85847160D03*
D15*
X86811568Y-82542010D03*
X76690230Y-83427512D03*
D16*
X85767776Y-85183032D03*
%TD*%
%TO.C,SW20*%
X185863181Y-108117749D03*
X192769246Y-111338099D03*
X185940741Y-110956495D03*
D17*
X190389664Y-107425902D03*
D15*
X194993708Y-109572803D03*
D16*
X190544785Y-113103396D03*
D15*
X185785620Y-105279001D03*
%TD*%
D11*
%TO.C,D19*%
X163073523Y-88325473D03*
D12*
X163073523Y-95477473D03*
%TD*%
D14*
%TO.C,D13*%
X98853756Y-101154041D03*
D12*
X105978540Y-100530703D03*
%TD*%
D16*
%TO.C,SW19*%
X166903172Y-104328471D03*
X173694201Y-103518520D03*
D17*
X170671424Y-100078968D03*
D15*
X175578327Y-101393769D03*
D16*
X166333846Y-101546320D03*
D15*
X165764521Y-98764167D03*
D16*
X171810075Y-105643272D03*
%TD*%
%TO.C,SW15*%
X142734392Y-75911529D03*
X144004392Y-73371529D03*
D15*
X145274392Y-70831529D03*
X135114392Y-70831529D03*
D17*
X140194392Y-70831529D03*
D16*
X137654392Y-75911529D03*
X136384392Y-73371530D03*
%TD*%
D17*
%TO.C,SW9*%
X119337529Y-57163339D03*
D16*
X117066877Y-62369310D03*
D15*
X124410567Y-56897472D03*
D16*
X123275241Y-59500458D03*
X115665684Y-59899259D03*
X122139915Y-62103444D03*
D15*
X114264491Y-57429206D03*
%TD*%
D20*
%TO.C,D6*%
X178302015Y-48577983D03*
D12*
X185436593Y-49076881D03*
%TD*%
D16*
%TO.C,SW1*%
X77980862Y-69036263D03*
X76494319Y-66616617D03*
X84085322Y-65952489D03*
X83041531Y-68593511D03*
D17*
X80068445Y-63754218D03*
D15*
X75007776Y-64196969D03*
X85129114Y-63311467D03*
%TD*%
D11*
%TO.C,D15*%
X136618392Y-78959529D03*
D12*
X143770392Y-78959529D03*
%TD*%
D30*
%TO.C,O1*%
X205415529Y-78352000D03*
D12*
X200335529Y-80010000D03*
X205415529Y-80010000D03*
D30*
X200335529Y-78352000D03*
X207955529Y-78352000D03*
D12*
X207955529Y-80010000D03*
D30*
X202875529Y-78352000D03*
D12*
X202875529Y-80010000D03*
D31*
X207955529Y-77336000D03*
X205415529Y-77336000D03*
X202875529Y-77336000D03*
X200335529Y-77336000D03*
%TD*%
D14*
%TO.C,D1*%
X77214454Y-72162958D03*
D12*
X84339238Y-71539620D03*
%TD*%
D16*
%TO.C,SW16*%
X156257637Y-77054339D03*
X163867194Y-77453138D03*
D17*
X160195349Y-74717219D03*
D15*
X155122311Y-74451352D03*
D16*
X157392963Y-79657324D03*
X162466001Y-79923190D03*
D15*
X165268387Y-74983086D03*
%TD*%
D13*
%TO.C,*%
X211280000Y-40132000D03*
%TD*%
D18*
%TO.C,D9*%
X116191817Y-65467353D03*
D12*
X123334015Y-65093047D03*
%TD*%
D13*
%TO.C,*%
X203200000Y-95250000D03*
%TD*%
M02*
