%TF.GenerationSoftware,KiCad,Pcbnew,(6.0.7)*%
%TF.CreationDate,2022-10-20T09:52:42+02:00*%
%TF.ProjectId,Hopper-mx,486f7070-6572-42d6-9d78-2e6b69636164,rev?*%
%TF.SameCoordinates,Original*%
%TF.FileFunction,Profile,NP*%
%FSLAX46Y46*%
G04 Gerber Fmt 4.6, Leading zero omitted, Abs format (unit mm)*
G04 Created by KiCad (PCBNEW (6.0.7)) date 2022-10-20 09:52:42*
%MOMM*%
%LPD*%
G01*
G04 APERTURE LIST*
%TA.AperFunction,Profile*%
%ADD10C,0.100000*%
%TD*%
G04 APERTURE END LIST*
D10*
X174499517Y-27664767D02*
G75*
G03*
X172505469Y-25927077I-1994017J-275233D01*
G01*
X104377649Y-42574718D02*
X89934929Y-43765697D01*
X131806567Y-21005311D02*
G75*
G03*
X128868208Y-22999045I-36267J-3108689D01*
G01*
X90170000Y-96520000D02*
X90946695Y-101737240D01*
X151442834Y-22860017D02*
G75*
G03*
X154223477Y-24819969I2725666J914517D01*
G01*
X110332546Y-26924246D02*
G75*
G03*
X106522546Y-30734245I4J-3810004D01*
G01*
X95042985Y-104761910D02*
X110645326Y-103335978D01*
X68580000Y-57150000D02*
X71120000Y-91440000D01*
X125730008Y-26085552D02*
G75*
G03*
X128868208Y-22999045I-1523208J4687352D01*
G01*
X193644494Y-30494599D02*
X176506153Y-28862589D01*
X213820000Y-82804000D02*
X213820000Y-86868000D01*
X194216000Y-120640000D02*
X177452000Y-113020000D01*
X72472825Y-53192883D02*
G75*
G03*
X68580000Y-57150000I310545J-4198847D01*
G01*
X194216008Y-120639950D02*
G75*
G03*
X196253578Y-119688270I307392J1998950D01*
G01*
X213741793Y-87349931D02*
G75*
G03*
X213820000Y-86868000I-1445793J481931D01*
G01*
X213820000Y-60960000D02*
X213820000Y-39624000D01*
X196100746Y-35560000D02*
X196184494Y-33034599D01*
X151442931Y-22859977D02*
G75*
G03*
X148608995Y-21005119I-3053031J-1572223D01*
G01*
X213741793Y-87349931D02*
X196253578Y-119688270D01*
X125730000Y-26085527D02*
X110332546Y-26924245D01*
X134151804Y-107651532D02*
G75*
G03*
X136932196Y-107940000I5563096J40076132D01*
G01*
X90946714Y-101737235D02*
G75*
G03*
X95042985Y-104761910I3983086J1108135D01*
G01*
X148608995Y-21005119D02*
X131806567Y-21005309D01*
X213820000Y-60960000D02*
X213820000Y-82804000D01*
X158148000Y-107940000D02*
X136932196Y-107940000D01*
X104377667Y-42574773D02*
G75*
G03*
X106680000Y-39370000I-1085567J3209273D01*
G01*
X196184501Y-33034599D02*
G75*
G03*
X193644494Y-30494599I-2540001J-1D01*
G01*
X83174864Y-52152873D02*
G75*
G03*
X86271119Y-48362660I-720814J3748623D01*
G01*
X196100746Y-35560000D02*
G75*
G03*
X198120000Y-37579254I2019254J0D01*
G01*
X106522546Y-30734245D02*
X106680000Y-39370000D01*
X90170000Y-96520000D02*
G75*
G03*
X87630000Y-93980000I-2540000J0D01*
G01*
X174499510Y-27664758D02*
G75*
G03*
X176506153Y-28862589I2006690J1081958D01*
G01*
X83174864Y-52152875D02*
X72472825Y-53192885D01*
X213820002Y-39624000D02*
G75*
G03*
X211923159Y-37592000I-1896802J130700D01*
G01*
X87630000Y-93980000D02*
X74930000Y-95250000D01*
X134151804Y-107651529D02*
X110645326Y-103335978D01*
X89934930Y-43765705D02*
G75*
G03*
X86271119Y-48362660I462660J-4127265D01*
G01*
X211923159Y-37592000D02*
X198120000Y-37579254D01*
X71120000Y-91440000D02*
G75*
G03*
X74930000Y-95250000I3810000J0D01*
G01*
X172505469Y-25927077D02*
X154223477Y-24819969D01*
X177452000Y-113020000D02*
X158148000Y-107940000D01*
%TO.C,L7*%
X82130988Y-79297603D02*
X80736316Y-79419621D01*
X79478654Y-76518192D02*
X79740121Y-79506777D01*
X81869521Y-76309019D02*
X80474848Y-76431037D01*
X83127183Y-79210447D02*
X82865716Y-76221863D01*
X82865715Y-76221863D02*
G75*
G03*
X81869521Y-76309019I-498097J-43578D01*
G01*
X80474848Y-76431037D02*
G75*
G03*
X79478654Y-76518192I-498097J-43578D01*
G01*
X82130987Y-79297603D02*
G75*
G03*
X83127183Y-79210447I498098J43578D01*
G01*
X79740120Y-79506777D02*
G75*
G03*
X80736316Y-79419621I498098J43578D01*
G01*
%TO.C,L13*%
X99435502Y-86278733D02*
X99696969Y-89267318D01*
X102087836Y-89058144D02*
X100693164Y-89180162D01*
X103084031Y-88970988D02*
X102822564Y-85982404D01*
X101826369Y-86069560D02*
X100431696Y-86191578D01*
X102822563Y-85982404D02*
G75*
G03*
X101826369Y-86069560I-498097J-43578D01*
G01*
X102087835Y-89058144D02*
G75*
G03*
X103084031Y-88970988I498098J43578D01*
G01*
X100431696Y-86191578D02*
G75*
G03*
X99435502Y-86278733I-498097J-43578D01*
G01*
X99696968Y-89267318D02*
G75*
G03*
X100693164Y-89180162I498098J43578D01*
G01*
%TO.C,L19*%
X172188154Y-96716969D02*
X170835858Y-96354623D01*
X173154080Y-96975789D02*
X173930537Y-94078011D01*
X172964611Y-93819192D02*
X171612315Y-93456845D01*
X170646389Y-93198026D02*
X169869932Y-96095804D01*
X172188154Y-96716969D02*
G75*
G03*
X173154080Y-96975789I482963J-129410D01*
G01*
X171612315Y-93456845D02*
G75*
G03*
X170646389Y-93198026I-482963J129409D01*
G01*
X173930537Y-94078011D02*
G75*
G03*
X172964611Y-93819192I-482963J129410D01*
G01*
X169869932Y-96095804D02*
G75*
G03*
X170835858Y-96354623I482963J-129409D01*
G01*
%TO.C,L15*%
X140894392Y-67191529D02*
X139494392Y-67191529D01*
X140894392Y-64191529D02*
X139494392Y-64191529D01*
X141894392Y-67191529D02*
X141894392Y-64191529D01*
X138494392Y-64191529D02*
X138494392Y-67191529D01*
X139494392Y-64191529D02*
G75*
G03*
X138494392Y-64191529I-500000J0D01*
G01*
X141894392Y-64191529D02*
G75*
G03*
X140894392Y-64191529I-500000J0D01*
G01*
X138494392Y-67191529D02*
G75*
G03*
X139494392Y-67191529I500000J0D01*
G01*
X140894392Y-67191529D02*
G75*
G03*
X141894392Y-67191529I500000J0D01*
G01*
%TO.C,L18*%
X146619424Y-90390968D02*
X146619424Y-93390968D01*
X150019424Y-93390968D02*
X150019424Y-90390968D01*
X149019424Y-93390968D02*
X147619424Y-93390968D01*
X149019424Y-90390968D02*
X147619424Y-90390968D01*
X147619424Y-90390968D02*
G75*
G03*
X146619424Y-90390968I-500000J0D01*
G01*
X149019424Y-93390968D02*
G75*
G03*
X150019424Y-93390968I500000J0D01*
G01*
X146619424Y-93390968D02*
G75*
G03*
X147619424Y-93390968I500000J0D01*
G01*
X150019424Y-90390968D02*
G75*
G03*
X149019424Y-90390968I-500000J0D01*
G01*
%TO.C,L20*%
X192562410Y-104422774D02*
X191293579Y-103831109D01*
X193468717Y-104845393D02*
X194736572Y-102126469D01*
X191655126Y-100689567D02*
X190387271Y-103408491D01*
X193830264Y-101703851D02*
X192561433Y-101112185D01*
X192562411Y-104422775D02*
G75*
G03*
X193468717Y-104845393I453153J-211309D01*
G01*
X190387271Y-103408491D02*
G75*
G03*
X191293579Y-103831109I453154J-211309D01*
G01*
X192561434Y-101112185D02*
G75*
G03*
X191655126Y-100689567I-453154J211309D01*
G01*
X194736572Y-102126469D02*
G75*
G03*
X193830264Y-101703851I-453154J211309D01*
G01*
%TO.C,L8*%
X101401576Y-69740446D02*
X101140109Y-66751862D01*
X97753047Y-67048191D02*
X98014514Y-70036776D01*
X100143914Y-66839018D02*
X98749241Y-66961036D01*
X100405381Y-69827602D02*
X99010709Y-69949620D01*
X101140108Y-66751862D02*
G75*
G03*
X100143914Y-66839018I-498097J-43578D01*
G01*
X100405380Y-69827602D02*
G75*
G03*
X101401576Y-69740446I498098J43578D01*
G01*
X98749241Y-66961036D02*
G75*
G03*
X97753047Y-67048191I-498097J-43578D01*
G01*
X98014513Y-70036776D02*
G75*
G03*
X99010709Y-69949620I498098J43578D01*
G01*
%TO.C,L6*%
X183388494Y-37136927D02*
X181991904Y-37039268D01*
X181203610Y-33976819D02*
X180994340Y-36969511D01*
X184386058Y-37206683D02*
X184595328Y-34213991D01*
X183597763Y-34144234D02*
X182201174Y-34046575D01*
X183388494Y-37136927D02*
G75*
G03*
X184386058Y-37206683I498782J-34878D01*
G01*
X180994340Y-36969511D02*
G75*
G03*
X181991904Y-37039268I498782J-34878D01*
G01*
X182201174Y-34046575D02*
G75*
G03*
X181203610Y-33976819I-498782J34878D01*
G01*
X184595327Y-34213991D02*
G75*
G03*
X183597763Y-34144234I-498782J34878D01*
G01*
%TO.C,L11*%
X162252194Y-48845410D02*
X160854112Y-48772139D01*
X162095186Y-51841298D02*
X160697104Y-51768028D01*
X163093815Y-51893634D02*
X163250823Y-48897746D01*
X159855483Y-48719803D02*
X159698475Y-51715692D01*
X160854113Y-48772139D02*
G75*
G03*
X159855483Y-48719803I-499315J26168D01*
G01*
X163250822Y-48897746D02*
G75*
G03*
X162252194Y-48845410I-499314J26168D01*
G01*
X162095187Y-51841298D02*
G75*
G03*
X163093815Y-51893634I499314J-26168D01*
G01*
X159698476Y-51715692D02*
G75*
G03*
X160697104Y-51768028I499314J-26168D01*
G01*
%TO.C,L5*%
X164104108Y-32616090D02*
X164261116Y-29620202D01*
X160865776Y-29442259D02*
X160708768Y-32438148D01*
X163105479Y-32563754D02*
X161707397Y-32490484D01*
X163262487Y-29567866D02*
X161864405Y-29494595D01*
X163105480Y-32563754D02*
G75*
G03*
X164104108Y-32616090I499314J-26168D01*
G01*
X164261115Y-29620202D02*
G75*
G03*
X163262487Y-29567866I-499314J26168D01*
G01*
X161864406Y-29494595D02*
G75*
G03*
X160865776Y-29442259I-499315J26168D01*
G01*
X160708769Y-32438148D02*
G75*
G03*
X161707397Y-32490484I499314J-26168D01*
G01*
%TO.C,L10*%
X138494392Y-44887529D02*
X138494392Y-47887529D01*
X140894392Y-47887529D02*
X139494392Y-47887529D01*
X140894392Y-44887529D02*
X139494392Y-44887529D01*
X141894392Y-47887529D02*
X141894392Y-44887529D01*
X140894392Y-47887529D02*
G75*
G03*
X141894392Y-47887529I500000J0D01*
G01*
X138494392Y-47887529D02*
G75*
G03*
X139494392Y-47887529I500000J0D01*
G01*
X141894392Y-44887529D02*
G75*
G03*
X140894392Y-44887529I-500000J0D01*
G01*
X139494392Y-44887529D02*
G75*
G03*
X138494392Y-44887529I-500000J0D01*
G01*
%TO.C,L2*%
X98722927Y-50597060D02*
X97328255Y-50719078D01*
X99719122Y-50509904D02*
X99457655Y-47521320D01*
X96070593Y-47817649D02*
X96332060Y-50806234D01*
X98461460Y-47608476D02*
X97066787Y-47730494D01*
X97066787Y-47730494D02*
G75*
G03*
X96070593Y-47817649I-498097J-43578D01*
G01*
X98722926Y-50597060D02*
G75*
G03*
X99719122Y-50509904I498098J43578D01*
G01*
X99457654Y-47521320D02*
G75*
G03*
X98461460Y-47608476I-498097J-43578D01*
G01*
X96332059Y-50806234D02*
G75*
G03*
X97328255Y-50719078I498098J43578D01*
G01*
%TO.C,L16*%
X161084893Y-71118843D02*
X159686811Y-71045573D01*
X158845190Y-67997348D02*
X158688182Y-70993237D01*
X161241901Y-68122955D02*
X159843819Y-68049684D01*
X162083522Y-71171179D02*
X162240530Y-68175291D01*
X161084894Y-71118843D02*
G75*
G03*
X162083522Y-71171179I499314J-26168D01*
G01*
X162240529Y-68175291D02*
G75*
G03*
X161241901Y-68122955I-499314J26168D01*
G01*
X159843820Y-68049684D02*
G75*
G03*
X158845190Y-67997348I-499315J26168D01*
G01*
X158688183Y-70993237D02*
G75*
G03*
X159686811Y-71045573I499314J-26168D01*
G01*
%TO.C,L9*%
X117292348Y-50621411D02*
X117449356Y-53617299D01*
X119846067Y-53491693D02*
X118447985Y-53564963D01*
X119689059Y-50495804D02*
X118290977Y-50569075D01*
X120844696Y-53439357D02*
X120687688Y-50443468D01*
X119846066Y-53491693D02*
G75*
G03*
X120844696Y-53439357I499315J26168D01*
G01*
X118290978Y-50569075D02*
G75*
G03*
X117292348Y-50621411I-499315J-26168D01*
G01*
X120687687Y-50443468D02*
G75*
G03*
X119689059Y-50495804I-499314J-26168D01*
G01*
X117449355Y-53617299D02*
G75*
G03*
X118447985Y-53564963I499315J26168D01*
G01*
%TO.C,L17*%
X180904605Y-72658188D02*
X179508016Y-72560529D01*
X181692900Y-75720637D02*
X181902170Y-72727945D01*
X178510452Y-72490773D02*
X178301182Y-75483465D01*
X180695336Y-75650881D02*
X179298746Y-75553222D01*
X179508016Y-72560529D02*
G75*
G03*
X178510452Y-72490773I-498782J34878D01*
G01*
X181902169Y-72727945D02*
G75*
G03*
X180904605Y-72658188I-498782J34878D01*
G01*
X180695336Y-75650881D02*
G75*
G03*
X181692900Y-75720637I498782J-34878D01*
G01*
X178301182Y-75483465D02*
G75*
G03*
X179298746Y-75553222I498782J-34878D01*
G01*
%TO.C,L4*%
X140894392Y-25583529D02*
X139494392Y-25583529D01*
X138494392Y-25583529D02*
X138494392Y-28583529D01*
X141894392Y-28583529D02*
X141894392Y-25583529D01*
X140894392Y-28583529D02*
X139494392Y-28583529D01*
X138494392Y-28583529D02*
G75*
G03*
X139494392Y-28583529I500000J0D01*
G01*
X141894392Y-25583529D02*
G75*
G03*
X140894392Y-25583529I-500000J0D01*
G01*
X139494392Y-25583529D02*
G75*
G03*
X138494392Y-25583529I-500000J0D01*
G01*
X140894392Y-28583529D02*
G75*
G03*
X141894392Y-28583529I500000J0D01*
G01*
%TO.C,L3*%
X116282055Y-31343867D02*
X116439063Y-34339755D01*
X118678766Y-31218260D02*
X117280684Y-31291531D01*
X119834403Y-34161813D02*
X119677395Y-31165924D01*
X118835774Y-34214149D02*
X117437692Y-34287419D01*
X119677394Y-31165924D02*
G75*
G03*
X118678766Y-31218260I-499314J-26168D01*
G01*
X117280685Y-31291531D02*
G75*
G03*
X116282055Y-31343867I-499315J-26168D01*
G01*
X116439062Y-34339755D02*
G75*
G03*
X117437692Y-34287419I499315J26168D01*
G01*
X118835773Y-34214149D02*
G75*
G03*
X119834403Y-34161813I499315J26168D01*
G01*
%TO.C,L14*%
X118302642Y-69898955D02*
X118459650Y-72894843D01*
X120856361Y-72769237D02*
X119458279Y-72842507D01*
X121854990Y-72716901D02*
X121697982Y-69721012D01*
X120699353Y-69773348D02*
X119301271Y-69846619D01*
X121697981Y-69721012D02*
G75*
G03*
X120699353Y-69773348I-499314J-26168D01*
G01*
X118459649Y-72894843D02*
G75*
G03*
X119458279Y-72842507I499315J26168D01*
G01*
X120856360Y-72769237D02*
G75*
G03*
X121854990Y-72716901I499315J26168D01*
G01*
X119301272Y-69846619D02*
G75*
G03*
X118302642Y-69898955I-499315J-26168D01*
G01*
%TO.C,L1*%
X77796200Y-57287650D02*
X78057667Y-60276235D01*
X81444729Y-59979905D02*
X81183262Y-56991321D01*
X80187067Y-57078477D02*
X78792394Y-57200495D01*
X80448534Y-60067061D02*
X79053862Y-60189079D01*
X80448533Y-60067061D02*
G75*
G03*
X81444729Y-59979905I498098J43578D01*
G01*
X78057666Y-60276235D02*
G75*
G03*
X79053862Y-60189079I498098J43578D01*
G01*
X78792394Y-57200495D02*
G75*
G03*
X77796200Y-57287650I-498097J-43578D01*
G01*
X81183261Y-56991321D02*
G75*
G03*
X80187067Y-57078477I-498097J-43578D01*
G01*
%TO.C,L12*%
X182251183Y-53401211D02*
X180854594Y-53303552D01*
X183039478Y-56463660D02*
X183248748Y-53470968D01*
X179857030Y-53233796D02*
X179647760Y-56226488D01*
X182041914Y-56393904D02*
X180645324Y-56296245D01*
X180854594Y-53303552D02*
G75*
G03*
X179857030Y-53233796I-498782J34878D01*
G01*
X183248747Y-53470968D02*
G75*
G03*
X182251183Y-53401211I-498782J34878D01*
G01*
X182041914Y-56393904D02*
G75*
G03*
X183039478Y-56463660I498782J-34878D01*
G01*
X179647760Y-56226488D02*
G75*
G03*
X180645324Y-56296245I498782J-34878D01*
G01*
%TD*%
M02*
