%TF.GenerationSoftware,KiCad,Pcbnew,(6.0.7)*%
%TF.CreationDate,2022-10-20T09:52:42+02:00*%
%TF.ProjectId,Hopper-mx,486f7070-6572-42d6-9d78-2e6b69636164,rev?*%
%TF.SameCoordinates,Original*%
%TF.FileFunction,Soldermask,Bot*%
%TF.FilePolarity,Negative*%
%FSLAX46Y46*%
G04 Gerber Fmt 4.6, Leading zero omitted, Abs format (unit mm)*
G04 Created by KiCad (PCBNEW (6.0.7)) date 2022-10-20 09:52:42*
%MOMM*%
%LPD*%
G01*
G04 APERTURE LIST*
G04 Aperture macros list*
%AMRotRect*
0 Rectangle, with rotation*
0 The origin of the aperture is its center*
0 $1 length*
0 $2 width*
0 $3 Rotation angle, in degrees counterclockwise*
0 Add horizontal line*
21,1,$1,$2,0,0,$3*%
%AMFreePoly0*
4,1,6,0.600000,0.200000,0.000000,-0.400000,-0.600000,0.200000,-0.600000,0.400000,0.600000,0.400000,0.600000,0.200000,0.600000,0.200000,$1*%
%AMFreePoly1*
4,1,6,0.600000,-0.250000,-0.600000,-0.250000,-0.600000,1.000000,0.000000,0.400000,0.600000,1.000000,0.600000,-0.250000,0.600000,-0.250000,$1*%
G04 Aperture macros list end*
%ADD10C,0.100000*%
%ADD11R,1.600000X1.600000*%
%ADD12C,1.600000*%
%ADD13C,3.500000*%
%ADD14RotRect,1.600000X1.600000X185.000000*%
%ADD15C,1.900000*%
%ADD16C,3.000000*%
%ADD17C,4.100000*%
%ADD18RotRect,1.600000X1.600000X183.000000*%
%ADD19C,1.397000*%
%ADD20RotRect,1.600000X1.600000X176.000000*%
%ADD21RotRect,1.600000X1.600000X177.000000*%
%ADD22C,4.000000*%
%ADD23C,0.800000*%
%ADD24O,2.200000X1.700000*%
%ADD25FreePoly0,90.000000*%
%ADD26FreePoly0,270.000000*%
%ADD27FreePoly1,90.000000*%
%ADD28FreePoly1,270.000000*%
%ADD29C,0.900000*%
%ADD30FreePoly0,180.000000*%
%ADD31FreePoly1,180.000000*%
G04 APERTURE END LIST*
%TO.C,L7*%
G36*
X84652982Y-78866155D02*
G01*
X83158690Y-78996888D01*
X83093323Y-78249742D01*
X84587615Y-78119009D01*
X84652982Y-78866155D01*
G37*
D10*
X84652982Y-78866155D02*
X83158690Y-78996888D01*
X83093323Y-78249742D01*
X84587615Y-78119009D01*
X84652982Y-78866155D01*
G36*
X84500459Y-77122814D02*
G01*
X83006167Y-77253548D01*
X82940800Y-76506402D01*
X84435093Y-76375668D01*
X84500459Y-77122814D01*
G37*
X84500459Y-77122814D02*
X83006167Y-77253548D01*
X82940800Y-76506402D01*
X84435093Y-76375668D01*
X84500459Y-77122814D01*
G36*
X79672008Y-79301933D02*
G01*
X78177716Y-79432667D01*
X78112350Y-78685521D01*
X79606642Y-78554787D01*
X79672008Y-79301933D01*
G37*
X79672008Y-79301933D02*
X78177716Y-79432667D01*
X78112350Y-78685521D01*
X79606642Y-78554787D01*
X79672008Y-79301933D01*
G36*
X79519486Y-77558593D02*
G01*
X78025194Y-77689326D01*
X77981616Y-77191229D01*
X78208876Y-76920391D01*
X79454119Y-76811447D01*
X79519486Y-77558593D01*
G37*
X79519486Y-77558593D02*
X78025194Y-77689326D01*
X77981616Y-77191229D01*
X78208876Y-76920391D01*
X79454119Y-76811447D01*
X79519486Y-77558593D01*
%TO.C,L13*%
G36*
X104457307Y-86883355D02*
G01*
X102963015Y-87014089D01*
X102897648Y-86266943D01*
X104391941Y-86136209D01*
X104457307Y-86883355D01*
G37*
X104457307Y-86883355D02*
X102963015Y-87014089D01*
X102897648Y-86266943D01*
X104391941Y-86136209D01*
X104457307Y-86883355D01*
G36*
X104609830Y-88626696D02*
G01*
X103115538Y-88757429D01*
X103050171Y-88010283D01*
X104544463Y-87879550D01*
X104609830Y-88626696D01*
G37*
X104609830Y-88626696D02*
X103115538Y-88757429D01*
X103050171Y-88010283D01*
X104544463Y-87879550D01*
X104609830Y-88626696D01*
G36*
X99476334Y-87319134D02*
G01*
X97982042Y-87449867D01*
X97938464Y-86951770D01*
X98165724Y-86680932D01*
X99410967Y-86571988D01*
X99476334Y-87319134D01*
G37*
X99476334Y-87319134D02*
X97982042Y-87449867D01*
X97938464Y-86951770D01*
X98165724Y-86680932D01*
X99410967Y-86571988D01*
X99476334Y-87319134D01*
G36*
X99628856Y-89062474D02*
G01*
X98134564Y-89193208D01*
X98069198Y-88446062D01*
X99563490Y-88315328D01*
X99628856Y-89062474D01*
G37*
X99628856Y-89062474D02*
X98134564Y-89193208D01*
X98069198Y-88446062D01*
X99563490Y-88315328D01*
X99628856Y-89062474D01*
%TO.C,D7*%
G36*
X81325813Y-91607622D02*
G01*
X80130380Y-91712209D01*
X80056297Y-90865443D01*
X81251731Y-90760856D01*
X81325813Y-91607622D01*
G37*
X81325813Y-91607622D02*
X80130380Y-91712209D01*
X80056297Y-90865443D01*
X81251731Y-90760856D01*
X81325813Y-91607622D01*
G36*
X84862305Y-91298219D02*
G01*
X83666871Y-91402806D01*
X83592789Y-90556040D01*
X84788222Y-90451453D01*
X84862305Y-91298219D01*
G37*
X84862305Y-91298219D02*
X83666871Y-91402806D01*
X83592789Y-90556040D01*
X84788222Y-90451453D01*
X84862305Y-91298219D01*
%TO.C,L19*%
G36*
X174899731Y-96449669D02*
G01*
X174705617Y-97174114D01*
X173256728Y-96785885D01*
X173450843Y-96061441D01*
X174899731Y-96449669D01*
G37*
X174899731Y-96449669D02*
X174705617Y-97174114D01*
X173256728Y-96785885D01*
X173450843Y-96061441D01*
X174899731Y-96449669D01*
G36*
X170070102Y-95155574D02*
G01*
X169875988Y-95880018D01*
X168427099Y-95491790D01*
X168621213Y-94767345D01*
X170070102Y-95155574D01*
G37*
X170070102Y-95155574D02*
X169875988Y-95880018D01*
X168427099Y-95491790D01*
X168621213Y-94767345D01*
X170070102Y-95155574D01*
G36*
X170523036Y-93465204D02*
G01*
X170328921Y-94189648D01*
X168880032Y-93801420D01*
X169009442Y-93318457D01*
X169315628Y-93141680D01*
X170523036Y-93465204D01*
G37*
X170523036Y-93465204D02*
X170328921Y-94189648D01*
X168880032Y-93801420D01*
X169009442Y-93318457D01*
X169315628Y-93141680D01*
X170523036Y-93465204D01*
G36*
X175352665Y-94759299D02*
G01*
X175158550Y-95483743D01*
X173709662Y-95095515D01*
X173903776Y-94371070D01*
X175352665Y-94759299D01*
G37*
X175352665Y-94759299D02*
X175158550Y-95483743D01*
X173709662Y-95095515D01*
X173903776Y-94371070D01*
X175352665Y-94759299D01*
%TO.C,D20*%
G36*
X160863337Y-94325968D02*
G01*
X160013337Y-94325968D01*
X160013337Y-93125968D01*
X160863337Y-93125968D01*
X160863337Y-94325968D01*
G37*
X160863337Y-94325968D02*
X160013337Y-94325968D01*
X160013337Y-93125968D01*
X160863337Y-93125968D01*
X160863337Y-94325968D01*
G36*
X160863337Y-90775968D02*
G01*
X160013337Y-90775968D01*
X160013337Y-89575968D01*
X160863337Y-89575968D01*
X160863337Y-90775968D01*
G37*
X160863337Y-90775968D02*
X160013337Y-90775968D01*
X160013337Y-89575968D01*
X160863337Y-89575968D01*
X160863337Y-90775968D01*
%TO.C,SW17*%
G36*
X174863448Y-83072146D02*
G01*
X174730911Y-84967518D01*
X172536270Y-84814054D01*
X172668807Y-82918682D01*
X174863448Y-83072146D01*
G37*
X174863448Y-83072146D02*
X174730911Y-84967518D01*
X172536270Y-84814054D01*
X172668807Y-82918682D01*
X174863448Y-83072146D01*
G36*
X187709693Y-81424241D02*
G01*
X187577155Y-83319613D01*
X185382515Y-83166148D01*
X185515052Y-81270777D01*
X187709693Y-81424241D01*
G37*
X187709693Y-81424241D02*
X187577155Y-83319613D01*
X185382515Y-83166148D01*
X185515052Y-81270777D01*
X187709693Y-81424241D01*
%TO.C,SW4*%
G36*
X135594392Y-38293529D02*
G01*
X133394392Y-38293529D01*
X133394392Y-36393529D01*
X135594392Y-36393529D01*
X135594392Y-38293529D01*
G37*
X135594392Y-38293529D02*
X133394392Y-38293529D01*
X133394392Y-36393529D01*
X135594392Y-36393529D01*
X135594392Y-38293529D01*
G36*
X148294392Y-35753529D02*
G01*
X146094392Y-35753529D01*
X146094392Y-33853529D01*
X148294392Y-33853529D01*
X148294392Y-35753529D01*
G37*
X148294392Y-35753529D02*
X146094392Y-35753529D01*
X146094392Y-33853529D01*
X148294392Y-33853529D01*
X148294392Y-35753529D01*
%TO.C,*%
G36*
X113401109Y-92719579D02*
G01*
X113453498Y-92742274D01*
X113498650Y-92775817D01*
X113499607Y-92776735D01*
X113521047Y-92803615D01*
X113530998Y-92832148D01*
X113529213Y-92862771D01*
X113515443Y-92895917D01*
X113489441Y-92932022D01*
X113450959Y-92971522D01*
X113399750Y-93014851D01*
X113335567Y-93062446D01*
X113323081Y-93071483D01*
X113299907Y-93089587D01*
X113282260Y-93105150D01*
X113273215Y-93115551D01*
X113269473Y-93130584D01*
X113268298Y-93156947D01*
X113269809Y-93190798D01*
X113273759Y-93228938D01*
X113279897Y-93268168D01*
X113287975Y-93305292D01*
X113291309Y-93317726D01*
X113311780Y-93374969D01*
X113339864Y-93424892D01*
X113378280Y-93472534D01*
X113407587Y-93500691D01*
X113451402Y-93530189D01*
X113498783Y-93547490D01*
X113550920Y-93552820D01*
X113609003Y-93546403D01*
X113674222Y-93528465D01*
X113685582Y-93524449D01*
X113723406Y-93509625D01*
X113761205Y-93493033D01*
X113792269Y-93477566D01*
X113810568Y-93467669D01*
X113829705Y-93458265D01*
X113842152Y-93454443D01*
X113851182Y-93455362D01*
X113860071Y-93460183D01*
X113863732Y-93462856D01*
X113877979Y-93482503D01*
X113881856Y-93507590D01*
X113874536Y-93533900D01*
X113866295Y-93545064D01*
X113846245Y-93563595D01*
X113819282Y-93583469D01*
X113788857Y-93602206D01*
X113758421Y-93617328D01*
X113758009Y-93617502D01*
X113741302Y-93623432D01*
X113714707Y-93631685D01*
X113681800Y-93641193D01*
X113646155Y-93650887D01*
X113613799Y-93659146D01*
X113573863Y-93668000D01*
X113541982Y-93672672D01*
X113515013Y-93673385D01*
X113489814Y-93670361D01*
X113463244Y-93663821D01*
X113440112Y-93656080D01*
X113384080Y-93628472D01*
X113328580Y-93588183D01*
X113272661Y-93534571D01*
X113213602Y-93471279D01*
X113191872Y-93501539D01*
X113171847Y-93527743D01*
X113138059Y-93563293D01*
X113101498Y-93589986D01*
X113058456Y-93610861D01*
X112998239Y-93632538D01*
X112939984Y-93647124D01*
X112888731Y-93651671D01*
X112842785Y-93645948D01*
X112800449Y-93629726D01*
X112760026Y-93602774D01*
X112719820Y-93564862D01*
X112695349Y-93537699D01*
X112669756Y-93505018D01*
X112654639Y-93478175D01*
X112649486Y-93455750D01*
X112653786Y-93436321D01*
X112667024Y-93418469D01*
X112669368Y-93416207D01*
X112688777Y-93403812D01*
X112709720Y-93402308D01*
X112733328Y-93412137D01*
X112760735Y-93433739D01*
X112793072Y-93467556D01*
X112812702Y-93489337D01*
X112833028Y-93509243D01*
X112850781Y-93522005D01*
X112869288Y-93529897D01*
X112891874Y-93535198D01*
X112896860Y-93536029D01*
X112942415Y-93536371D01*
X112990168Y-93525285D01*
X113036710Y-93503899D01*
X113078637Y-93473341D01*
X113085329Y-93467049D01*
X113109670Y-93438022D01*
X113127435Y-93404089D01*
X113139295Y-93363108D01*
X113145919Y-93312934D01*
X113147979Y-93251423D01*
X113147840Y-93229106D01*
X113146711Y-93200908D01*
X113143874Y-93180178D01*
X113138656Y-93162826D01*
X113130380Y-93144765D01*
X113125358Y-93135781D01*
X113106935Y-93110882D01*
X113086953Y-93092518D01*
X113086215Y-93092015D01*
X113041881Y-93055674D01*
X113010834Y-93015897D01*
X112992573Y-92971836D01*
X112986597Y-92922644D01*
X112989549Y-92889885D01*
X113003111Y-92853209D01*
X113028943Y-92820673D01*
X113040074Y-92811177D01*
X113068405Y-92791984D01*
X113104540Y-92771474D01*
X113144899Y-92751488D01*
X113185898Y-92733866D01*
X113223958Y-92720449D01*
X113283321Y-92708485D01*
X113343658Y-92708170D01*
X113401109Y-92719579D01*
G37*
G36*
X114346106Y-92320838D02*
G01*
X114379544Y-92334815D01*
X114409802Y-92361136D01*
X114435177Y-92399826D01*
X114442642Y-92416588D01*
X114453588Y-92460617D01*
X114451399Y-92501616D01*
X114436672Y-92538447D01*
X114410006Y-92569970D01*
X114372001Y-92595048D01*
X114323255Y-92612544D01*
X114320400Y-92613246D01*
X114292928Y-92619304D01*
X114273664Y-92621237D01*
X114257814Y-92619060D01*
X114240585Y-92612786D01*
X114213136Y-92595851D01*
X114190806Y-92568240D01*
X114178626Y-92533501D01*
X114176867Y-92493277D01*
X114185804Y-92449213D01*
X114205708Y-92402950D01*
X114214638Y-92387908D01*
X114243754Y-92352740D01*
X114276507Y-92329824D01*
X114311192Y-92319182D01*
X114346106Y-92320838D01*
G37*
G36*
X118248174Y-90930572D02*
G01*
X118218701Y-90992555D01*
X118177688Y-91047409D01*
X118125783Y-91094096D01*
X118063635Y-91131579D01*
X118030341Y-91146795D01*
X117986820Y-91163094D01*
X117941898Y-91175105D01*
X117891378Y-91183891D01*
X117831065Y-91190514D01*
X117808720Y-91192573D01*
X117787356Y-91194860D01*
X117766684Y-91197614D01*
X117744917Y-91201208D01*
X117720267Y-91206014D01*
X117690948Y-91212402D01*
X117655173Y-91220746D01*
X117611154Y-91231416D01*
X117557105Y-91244785D01*
X117491238Y-91261225D01*
X117436328Y-91275237D01*
X117335309Y-91302747D01*
X117239348Y-91331486D01*
X117146353Y-91362273D01*
X117054230Y-91395926D01*
X116960887Y-91433264D01*
X116864233Y-91475105D01*
X116762175Y-91522267D01*
X116652620Y-91575569D01*
X116533476Y-91635830D01*
X116462310Y-91672985D01*
X116380219Y-91717189D01*
X116296800Y-91763396D01*
X116213307Y-91810840D01*
X116130995Y-91858753D01*
X116051118Y-91906368D01*
X115974930Y-91952918D01*
X115903686Y-91997634D01*
X115838640Y-92039750D01*
X115781046Y-92078498D01*
X115732158Y-92113111D01*
X115693232Y-92142822D01*
X115665520Y-92166862D01*
X115632285Y-92198969D01*
X115666651Y-92280060D01*
X115712638Y-92400664D01*
X115757501Y-92552962D01*
X115791138Y-92713623D01*
X115794094Y-92734096D01*
X115798565Y-92781694D01*
X115801636Y-92838873D01*
X115803309Y-92902774D01*
X115803585Y-92970540D01*
X115802468Y-93039312D01*
X115799958Y-93106232D01*
X115796059Y-93168443D01*
X115790772Y-93223084D01*
X115784707Y-93267314D01*
X115774804Y-93325632D01*
X115763044Y-93384011D01*
X115750201Y-93438941D01*
X115737050Y-93486913D01*
X115724363Y-93524417D01*
X115722556Y-93529146D01*
X115712025Y-93559893D01*
X115699221Y-93601406D01*
X115684816Y-93651253D01*
X115669479Y-93707005D01*
X115653884Y-93766232D01*
X115638702Y-93826504D01*
X115624604Y-93885390D01*
X115620107Y-93904710D01*
X115604184Y-93972346D01*
X115590372Y-94029423D01*
X115578006Y-94078457D01*
X115566421Y-94121965D01*
X115554952Y-94162463D01*
X115542934Y-94202468D01*
X115529701Y-94244497D01*
X115515288Y-94293496D01*
X115503783Y-94343630D01*
X115498012Y-94385360D01*
X115498157Y-94417304D01*
X115504398Y-94438080D01*
X115504405Y-94438091D01*
X115508694Y-94441709D01*
X115518454Y-94446811D01*
X115534804Y-94453818D01*
X115558865Y-94463152D01*
X115591758Y-94475234D01*
X115634604Y-94490485D01*
X115688523Y-94509326D01*
X115754636Y-94532180D01*
X115842529Y-94563770D01*
X115928094Y-94597627D01*
X116010388Y-94633815D01*
X116091696Y-94673509D01*
X116174305Y-94717881D01*
X116260499Y-94768107D01*
X116352564Y-94825360D01*
X116452785Y-94890814D01*
X116473798Y-94904863D01*
X116618553Y-95005263D01*
X116751101Y-95104063D01*
X116872774Y-95202432D01*
X116984906Y-95301541D01*
X117088828Y-95402560D01*
X117185873Y-95506660D01*
X117277374Y-95615010D01*
X117293750Y-95635700D01*
X117338257Y-95695798D01*
X117380159Y-95758805D01*
X117420686Y-95826855D01*
X117461064Y-95902082D01*
X117502522Y-95986620D01*
X117546286Y-96082605D01*
X117571221Y-96138317D01*
X117594615Y-96189148D01*
X117614170Y-96229986D01*
X117629516Y-96260083D01*
X117640285Y-96278690D01*
X117646106Y-96285059D01*
X117651314Y-96280899D01*
X117663587Y-96267707D01*
X117680786Y-96247630D01*
X117700961Y-96222881D01*
X117727176Y-96191591D01*
X117771950Y-96146294D01*
X117817629Y-96111097D01*
X117866896Y-96083750D01*
X117874889Y-96080111D01*
X117896059Y-96071871D01*
X117916614Y-96067053D01*
X117941430Y-96064778D01*
X117975382Y-96064164D01*
X117996050Y-96064259D01*
X118023334Y-96065468D01*
X118044404Y-96068812D01*
X118064197Y-96075239D01*
X118087647Y-96085694D01*
X118119360Y-96103394D01*
X118169278Y-96143104D01*
X118213747Y-96193692D01*
X118251961Y-96253572D01*
X118283112Y-96321159D01*
X118306394Y-96394866D01*
X118320998Y-96473107D01*
X118325946Y-96551577D01*
X118326118Y-96554297D01*
X118326100Y-96560623D01*
X118321606Y-96643725D01*
X118309501Y-96736049D01*
X118290190Y-96835494D01*
X118264074Y-96939958D01*
X118231558Y-97047339D01*
X118208359Y-97114783D01*
X118182437Y-97181835D01*
X118156162Y-97240166D01*
X118128274Y-97292542D01*
X118097514Y-97341732D01*
X118072410Y-97377253D01*
X118039183Y-97416904D01*
X118005548Y-97446666D01*
X117968635Y-97468521D01*
X117925574Y-97484450D01*
X117873495Y-97496435D01*
X117843923Y-97502460D01*
X117823900Y-97508261D01*
X117812364Y-97514609D01*
X117806522Y-97522596D01*
X117804995Y-97527370D01*
X117800750Y-97545502D01*
X117795180Y-97573224D01*
X117788832Y-97607746D01*
X117782253Y-97646274D01*
X117766113Y-97736479D01*
X117744448Y-97835894D01*
X117719434Y-97928360D01*
X117690013Y-98017713D01*
X117655130Y-98107791D01*
X117646099Y-98129122D01*
X117621753Y-98181471D01*
X117595492Y-98229635D01*
X117565771Y-98275724D01*
X117531045Y-98321848D01*
X117489769Y-98370115D01*
X117440398Y-98422637D01*
X117381386Y-98481522D01*
X117333092Y-98527252D01*
X117266428Y-98584967D01*
X117203328Y-98632411D01*
X117141942Y-98670820D01*
X117080424Y-98701431D01*
X117016926Y-98725480D01*
X116997188Y-98732109D01*
X116976068Y-98740184D01*
X116956514Y-98749421D01*
X116935996Y-98761312D01*
X116911988Y-98777347D01*
X116881961Y-98799018D01*
X116843386Y-98827816D01*
X116804984Y-98856300D01*
X116754857Y-98891545D01*
X116709755Y-98919976D01*
X116666526Y-98943060D01*
X116622016Y-98962266D01*
X116573073Y-98979062D01*
X116516544Y-98994914D01*
X116449277Y-99011291D01*
X116396479Y-99023863D01*
X116332639Y-99040265D01*
X116275340Y-99056789D01*
X116220337Y-99074762D01*
X116163386Y-99095509D01*
X116100240Y-99120358D01*
X116081295Y-99127971D01*
X116040359Y-99144160D01*
X116001400Y-99159252D01*
X115968085Y-99171834D01*
X115944084Y-99180494D01*
X115940250Y-99181762D01*
X115914219Y-99189176D01*
X115877108Y-99198477D01*
X115831181Y-99209191D01*
X115778701Y-99220840D01*
X115721931Y-99232950D01*
X115663132Y-99245044D01*
X115604570Y-99256647D01*
X115548505Y-99267283D01*
X115497202Y-99276477D01*
X115452923Y-99283752D01*
X115422617Y-99286140D01*
X115379652Y-99285249D01*
X115332950Y-99280938D01*
X115287651Y-99273704D01*
X115248897Y-99264042D01*
X115247856Y-99263710D01*
X115189919Y-99240930D01*
X115135122Y-99211346D01*
X115086182Y-99176870D01*
X115045816Y-99139410D01*
X115016741Y-99100876D01*
X115004305Y-99072549D01*
X114995319Y-99028944D01*
X114994742Y-98981843D01*
X115002959Y-98935886D01*
X115010976Y-98914199D01*
X115029932Y-98876668D01*
X115055660Y-98834814D01*
X115086075Y-98791730D01*
X115119090Y-98750506D01*
X115152617Y-98714233D01*
X115176976Y-98689310D01*
X115191903Y-98671850D01*
X115198263Y-98660615D01*
X115197120Y-98654167D01*
X115194295Y-98653318D01*
X115179004Y-98651893D01*
X115151917Y-98650689D01*
X115114495Y-98649703D01*
X115068197Y-98648929D01*
X115014485Y-98648361D01*
X114954818Y-98647994D01*
X114890657Y-98647823D01*
X114823462Y-98647843D01*
X114754693Y-98648049D01*
X114685810Y-98648434D01*
X114618275Y-98648995D01*
X114553546Y-98649725D01*
X114493084Y-98650620D01*
X114438351Y-98651673D01*
X114390804Y-98652881D01*
X114351906Y-98654238D01*
X114323116Y-98655737D01*
X114305895Y-98657375D01*
X114293774Y-98659101D01*
X114231900Y-98664033D01*
X114162169Y-98664325D01*
X114087687Y-98660357D01*
X114011562Y-98652508D01*
X113936901Y-98641157D01*
X113866810Y-98626682D01*
X113804398Y-98609464D01*
X113752770Y-98589881D01*
X113727793Y-98575800D01*
X113692731Y-98549251D01*
X113658617Y-98517014D01*
X113629397Y-98482911D01*
X113609020Y-98450761D01*
X113591052Y-98403051D01*
X113581565Y-98347555D01*
X113582171Y-98312777D01*
X113689371Y-98312777D01*
X113691827Y-98354563D01*
X113705690Y-98395263D01*
X113731451Y-98432489D01*
X113744966Y-98446207D01*
X113768703Y-98465515D01*
X113796239Y-98481614D01*
X113829617Y-98495286D01*
X113870881Y-98507311D01*
X113922074Y-98518472D01*
X113985240Y-98529550D01*
X114040286Y-98537607D01*
X114117174Y-98545224D01*
X114185038Y-98546902D01*
X114246072Y-98542753D01*
X114250761Y-98542252D01*
X114275662Y-98540463D01*
X114311625Y-98538720D01*
X114356332Y-98537099D01*
X114407463Y-98535678D01*
X114462698Y-98534532D01*
X114519719Y-98533737D01*
X114561544Y-98533181D01*
X114626741Y-98531800D01*
X114685931Y-98529909D01*
X114737108Y-98527590D01*
X114778266Y-98524924D01*
X114807398Y-98521993D01*
X114877564Y-98512505D01*
X114845077Y-98490101D01*
X114840992Y-98487366D01*
X114821640Y-98475159D01*
X114793210Y-98457863D01*
X114758023Y-98436868D01*
X114718405Y-98413565D01*
X114676680Y-98389345D01*
X114673381Y-98387441D01*
X114571636Y-98326989D01*
X114481416Y-98269827D01*
X114403314Y-98216346D01*
X114337924Y-98166935D01*
X114319833Y-98152510D01*
X114299807Y-98137639D01*
X114281682Y-98126885D01*
X114263198Y-98119921D01*
X114242097Y-98116422D01*
X114216119Y-98116058D01*
X114183005Y-98118505D01*
X114140496Y-98123434D01*
X114086333Y-98130518D01*
X114017409Y-98139883D01*
X113944417Y-98150476D01*
X113884811Y-98160011D01*
X113838257Y-98168545D01*
X113804423Y-98176135D01*
X113782979Y-98182837D01*
X113745512Y-98204779D01*
X113716707Y-98235498D01*
X113697829Y-98272293D01*
X113689371Y-98312777D01*
X113582171Y-98312777D01*
X113582540Y-98291637D01*
X113593327Y-98237436D01*
X113613277Y-98187088D01*
X113641739Y-98142731D01*
X113678064Y-98106504D01*
X113721601Y-98080543D01*
X113734354Y-98076185D01*
X113761928Y-98069144D01*
X113798627Y-98061322D01*
X113841666Y-98053208D01*
X113888261Y-98045295D01*
X113935628Y-98038073D01*
X113980983Y-98032032D01*
X114021542Y-98027665D01*
X114031684Y-98026577D01*
X114060802Y-98021615D01*
X114085576Y-98014878D01*
X114102796Y-98007375D01*
X114109249Y-98000114D01*
X114109145Y-97999449D01*
X114103931Y-97989324D01*
X114091971Y-97970630D01*
X114074831Y-97945577D01*
X114054076Y-97916371D01*
X114031274Y-97885223D01*
X114007987Y-97854340D01*
X113985784Y-97825931D01*
X113965241Y-97801151D01*
X113945830Y-97779823D01*
X113931636Y-97766710D01*
X113924191Y-97763367D01*
X113920331Y-97765741D01*
X113906247Y-97774892D01*
X113887924Y-97787139D01*
X113877458Y-97793879D01*
X113843833Y-97810307D01*
X113811081Y-97817303D01*
X113778241Y-97814395D01*
X113744352Y-97801106D01*
X113708451Y-97776962D01*
X113669579Y-97741489D01*
X113626774Y-97694213D01*
X113579074Y-97634658D01*
X113529298Y-97568378D01*
X113487025Y-97508530D01*
X113451451Y-97453032D01*
X113421609Y-97399592D01*
X113396530Y-97345915D01*
X113375249Y-97289709D01*
X113356798Y-97228681D01*
X113340210Y-97160538D01*
X113324517Y-97082986D01*
X113308753Y-96993733D01*
X113294782Y-96904144D01*
X113283488Y-96811566D01*
X113277209Y-96726259D01*
X113276011Y-96645090D01*
X113279961Y-96564923D01*
X113289123Y-96482624D01*
X113303563Y-96395058D01*
X113323348Y-96299092D01*
X113329122Y-96272681D01*
X113341158Y-96214209D01*
X113351998Y-96155879D01*
X113361927Y-96095670D01*
X113371225Y-96031560D01*
X113380178Y-95961527D01*
X113389067Y-95883548D01*
X113398175Y-95795602D01*
X113407786Y-95695667D01*
X113409264Y-95679477D01*
X113411902Y-95644648D01*
X113412585Y-95616942D01*
X113411112Y-95591430D01*
X113407280Y-95563182D01*
X113400888Y-95527269D01*
X113395987Y-95501832D01*
X113370316Y-95388061D01*
X113340201Y-95282358D01*
X113306233Y-95186625D01*
X113269004Y-95102766D01*
X113238672Y-95047375D01*
X113190047Y-94971505D01*
X113130157Y-94889248D01*
X113059405Y-94801104D01*
X112978199Y-94707574D01*
X112886943Y-94609158D01*
X112786042Y-94506357D01*
X112759857Y-94480271D01*
X112702479Y-94422124D01*
X112653587Y-94370546D01*
X112611788Y-94323547D01*
X112575691Y-94279135D01*
X112543904Y-94235322D01*
X112515035Y-94190115D01*
X112487693Y-94141526D01*
X112460486Y-94087563D01*
X112432022Y-94026237D01*
X112400909Y-93955556D01*
X112389978Y-93929865D01*
X112360873Y-93855332D01*
X112339017Y-93787796D01*
X112323467Y-93724090D01*
X112313280Y-93661044D01*
X112307638Y-93597019D01*
X112307471Y-93565830D01*
X112414357Y-93565830D01*
X112425074Y-93668132D01*
X112446591Y-93762962D01*
X112478925Y-93849597D01*
X112484806Y-93862479D01*
X112497912Y-93891391D01*
X112513171Y-93925232D01*
X112528355Y-93959065D01*
X112548875Y-94003902D01*
X112574738Y-94056639D01*
X112600681Y-94104180D01*
X112628186Y-94148603D01*
X112658739Y-94191985D01*
X112693825Y-94236403D01*
X112734927Y-94283933D01*
X112783531Y-94336653D01*
X112841120Y-94396639D01*
X112882902Y-94439867D01*
X112941417Y-94501313D01*
X112999026Y-94562790D01*
X113054221Y-94622646D01*
X113105494Y-94679226D01*
X113151336Y-94730877D01*
X113190239Y-94775945D01*
X113220695Y-94812777D01*
X113228962Y-94823243D01*
X113298684Y-94923107D01*
X113360363Y-95033057D01*
X113413308Y-95151371D01*
X113456825Y-95276326D01*
X113490223Y-95406200D01*
X113512808Y-95539269D01*
X113514136Y-95551032D01*
X113516262Y-95581623D01*
X113516874Y-95617090D01*
X113515900Y-95658937D01*
X113513269Y-95708668D01*
X113508911Y-95767785D01*
X113502752Y-95837794D01*
X113494723Y-95920197D01*
X113491266Y-95951820D01*
X113484144Y-96007630D01*
X113475657Y-96065820D01*
X113466348Y-96123122D01*
X113456758Y-96176264D01*
X113447429Y-96221978D01*
X113438903Y-96256993D01*
X113432864Y-96280132D01*
X113417581Y-96353803D01*
X113405344Y-96436214D01*
X113396479Y-96523630D01*
X113391311Y-96612314D01*
X113390169Y-96698532D01*
X113393376Y-96778548D01*
X113395984Y-96812484D01*
X113405941Y-96913993D01*
X113418716Y-97004917D01*
X113434946Y-97087779D01*
X113455266Y-97165106D01*
X113480313Y-97239421D01*
X113510721Y-97313250D01*
X113547127Y-97389118D01*
X113574697Y-97441985D01*
X113616372Y-97516790D01*
X113655073Y-97579719D01*
X113690577Y-97630460D01*
X113722663Y-97668706D01*
X113751106Y-97694147D01*
X113775683Y-97706472D01*
X113801936Y-97706370D01*
X113828228Y-97693913D01*
X113852661Y-97670595D01*
X113873606Y-97637972D01*
X113889435Y-97597606D01*
X113891456Y-97590227D01*
X113895176Y-97572067D01*
X113897403Y-97551022D01*
X113898261Y-97524314D01*
X113897874Y-97489164D01*
X113896367Y-97442794D01*
X113894589Y-97400574D01*
X113892221Y-97357320D01*
X113889205Y-97317137D01*
X113885220Y-97277214D01*
X113879947Y-97234740D01*
X113873064Y-97186903D01*
X113864251Y-97130893D01*
X113853189Y-97063899D01*
X113848361Y-97035056D01*
X113833714Y-96947266D01*
X113821204Y-96871557D01*
X113810662Y-96806577D01*
X113801920Y-96750977D01*
X113794807Y-96703408D01*
X113789154Y-96662518D01*
X113784794Y-96626959D01*
X113781556Y-96595380D01*
X113779272Y-96566432D01*
X113777772Y-96538765D01*
X113776888Y-96511028D01*
X113776449Y-96481873D01*
X113776289Y-96449948D01*
X113776274Y-96432845D01*
X113776686Y-96380906D01*
X113777945Y-96339518D01*
X113780218Y-96305983D01*
X113783669Y-96277602D01*
X113788466Y-96251675D01*
X113798384Y-96209995D01*
X113810559Y-96166333D01*
X113823589Y-96125603D01*
X113836544Y-96090508D01*
X113848494Y-96063748D01*
X113858511Y-96048026D01*
X113865958Y-96041380D01*
X113885752Y-96033709D01*
X113904417Y-96038751D01*
X113918768Y-96056079D01*
X113922022Y-96063742D01*
X113924641Y-96077024D01*
X113923045Y-96093902D01*
X113917106Y-96119229D01*
X113908760Y-96151177D01*
X113897420Y-96195450D01*
X113888922Y-96231340D01*
X113882853Y-96262048D01*
X113878801Y-96290777D01*
X113876353Y-96320729D01*
X113875096Y-96355106D01*
X113874619Y-96397112D01*
X113874508Y-96449948D01*
X113874762Y-96505940D01*
X113875867Y-96556114D01*
X113878113Y-96602376D01*
X113881789Y-96647669D01*
X113887184Y-96694932D01*
X113894587Y-96747108D01*
X113904288Y-96807137D01*
X113916575Y-96877960D01*
X113918660Y-96889722D01*
X113924376Y-96921928D01*
X113931494Y-96962007D01*
X113939309Y-97005980D01*
X113947113Y-97049866D01*
X113947857Y-97054053D01*
X113960757Y-97128649D01*
X113970891Y-97192426D01*
X113978504Y-97248126D01*
X113983840Y-97298492D01*
X113987142Y-97346266D01*
X113988655Y-97394193D01*
X113988623Y-97445014D01*
X113987289Y-97501472D01*
X113982661Y-97647857D01*
X114036851Y-97718986D01*
X114058935Y-97747874D01*
X114104093Y-97806130D01*
X114143343Y-97855384D01*
X114178153Y-97897382D01*
X114209988Y-97933871D01*
X114240316Y-97966597D01*
X114270604Y-97997307D01*
X114281089Y-98007465D01*
X114334963Y-98055341D01*
X114392300Y-98100073D01*
X114449304Y-98138851D01*
X114502177Y-98168861D01*
X114509902Y-98172795D01*
X114531843Y-98184242D01*
X114563272Y-98200829D01*
X114602383Y-98221597D01*
X114647371Y-98245585D01*
X114696431Y-98271836D01*
X114747758Y-98299389D01*
X114819559Y-98337613D01*
X114905896Y-98382307D01*
X114980966Y-98419533D01*
X115045042Y-98449414D01*
X115098396Y-98472078D01*
X115141299Y-98487650D01*
X115174023Y-98496255D01*
X115192095Y-98498548D01*
X115223652Y-98500443D01*
X115260715Y-98501103D01*
X115298559Y-98500372D01*
X115318771Y-98499520D01*
X115346850Y-98497851D01*
X115369640Y-98495179D01*
X115390795Y-98490637D01*
X115413969Y-98483360D01*
X115442816Y-98472482D01*
X115480990Y-98457138D01*
X115494685Y-98451572D01*
X115531225Y-98436619D01*
X115564293Y-98422945D01*
X115590708Y-98411872D01*
X115607288Y-98404721D01*
X115627662Y-98395975D01*
X115655599Y-98384503D01*
X115684470Y-98373043D01*
X115685703Y-98372562D01*
X115712257Y-98361217D01*
X115735325Y-98349726D01*
X115750037Y-98340506D01*
X115766487Y-98327067D01*
X115744562Y-98228475D01*
X115727516Y-98145819D01*
X115708694Y-98028752D01*
X115698168Y-97919917D01*
X115695791Y-97817565D01*
X115701413Y-97719948D01*
X115702617Y-97709064D01*
X115707520Y-97673319D01*
X115714654Y-97628474D01*
X115723602Y-97576614D01*
X115733950Y-97519823D01*
X115745282Y-97460188D01*
X115757183Y-97399793D01*
X115769238Y-97340724D01*
X115781031Y-97285066D01*
X115792147Y-97234904D01*
X115802170Y-97192323D01*
X115810686Y-97159408D01*
X115817278Y-97138245D01*
X115820497Y-97129838D01*
X115849247Y-97063926D01*
X115882786Y-97000226D01*
X115918056Y-96944617D01*
X115927018Y-96932212D01*
X115957909Y-96891818D01*
X115995017Y-96845866D01*
X116035602Y-96797577D01*
X116076929Y-96750167D01*
X116116260Y-96706857D01*
X116150857Y-96670864D01*
X116151798Y-96669928D01*
X116176281Y-96647004D01*
X116209417Y-96617878D01*
X116248701Y-96584591D01*
X116291631Y-96549185D01*
X116335700Y-96513702D01*
X116378405Y-96480184D01*
X116417242Y-96450672D01*
X116449705Y-96427210D01*
X116479039Y-96411380D01*
X116505194Y-96406375D01*
X116525745Y-96412348D01*
X116539144Y-96428835D01*
X116543845Y-96455373D01*
X116543841Y-96455809D01*
X116540324Y-96481005D01*
X116531566Y-96499449D01*
X116530761Y-96500389D01*
X116514614Y-96516515D01*
X116488510Y-96539521D01*
X116453832Y-96568258D01*
X116411960Y-96601579D01*
X116364278Y-96638336D01*
X116348020Y-96651153D01*
X116308301Y-96685149D01*
X116263492Y-96726356D01*
X116216113Y-96772248D01*
X116168685Y-96820297D01*
X116123729Y-96867978D01*
X116083764Y-96912763D01*
X116051312Y-96952124D01*
X116006690Y-97013227D01*
X115958025Y-97092810D01*
X115921391Y-97171157D01*
X115895969Y-97249838D01*
X115890312Y-97273632D01*
X115881793Y-97312458D01*
X115871936Y-97359677D01*
X115861320Y-97412327D01*
X115850525Y-97467443D01*
X115840130Y-97522061D01*
X115830714Y-97573218D01*
X115822855Y-97617949D01*
X115817134Y-97653291D01*
X115812291Y-97693350D01*
X115808132Y-97748332D01*
X115805672Y-97808228D01*
X115804948Y-97869272D01*
X115805996Y-97927702D01*
X115808852Y-97979753D01*
X115813554Y-98021661D01*
X115813949Y-98024144D01*
X115823703Y-98078727D01*
X115834966Y-98131209D01*
X115847161Y-98179625D01*
X115859706Y-98222007D01*
X115872024Y-98256392D01*
X115883533Y-98280813D01*
X115893656Y-98293305D01*
X115894441Y-98293770D01*
X115911377Y-98297884D01*
X115937520Y-98298203D01*
X115968920Y-98294911D01*
X116001628Y-98288197D01*
X116020718Y-98283808D01*
X116055329Y-98277582D01*
X116087923Y-98273409D01*
X116090950Y-98273135D01*
X116114946Y-98271518D01*
X116129925Y-98272732D01*
X116140360Y-98277795D01*
X116150722Y-98287728D01*
X116161610Y-98303225D01*
X116167912Y-98331492D01*
X116167561Y-98340428D01*
X116164567Y-98354035D01*
X116157200Y-98365429D01*
X116143889Y-98375411D01*
X116123065Y-98384782D01*
X116093158Y-98394343D01*
X116052599Y-98404893D01*
X115999817Y-98417235D01*
X115951787Y-98428225D01*
X115868537Y-98447826D01*
X115796491Y-98465831D01*
X115733949Y-98482922D01*
X115679211Y-98499777D01*
X115643426Y-98512505D01*
X115630574Y-98517076D01*
X115586339Y-98535500D01*
X115544805Y-98555727D01*
X115504272Y-98578437D01*
X115463037Y-98604310D01*
X115419401Y-98634026D01*
X115371664Y-98668264D01*
X115353810Y-98681813D01*
X115312522Y-98716678D01*
X115270785Y-98756221D01*
X115230232Y-98798523D01*
X115192495Y-98841669D01*
X115159207Y-98883741D01*
X115132001Y-98922825D01*
X115112510Y-98957002D01*
X115102366Y-98984357D01*
X115101829Y-99007325D01*
X115112559Y-99036699D01*
X115134711Y-99065372D01*
X115166862Y-99092203D01*
X115207589Y-99116049D01*
X115255471Y-99135770D01*
X115309084Y-99150224D01*
X115331358Y-99154663D01*
X115363080Y-99160121D01*
X115390564Y-99163000D01*
X115417409Y-99163265D01*
X115447215Y-99160879D01*
X115483580Y-99155806D01*
X115530106Y-99148010D01*
X115591258Y-99137130D01*
X115670887Y-99121841D01*
X115741536Y-99106563D01*
X115806166Y-99090487D01*
X115867739Y-99072801D01*
X115929215Y-99052696D01*
X115993556Y-99029361D01*
X116063723Y-99001985D01*
X116074271Y-98997781D01*
X116173344Y-98960414D01*
X116266101Y-98929297D01*
X116350786Y-98904987D01*
X116425639Y-98888035D01*
X116518659Y-98865765D01*
X116602469Y-98835412D01*
X116678333Y-98796381D01*
X116707553Y-98778327D01*
X116757666Y-98743945D01*
X116796476Y-98711483D01*
X116825407Y-98679484D01*
X116845880Y-98646493D01*
X116859317Y-98611053D01*
X116860977Y-98603361D01*
X116864276Y-98580302D01*
X116867692Y-98548129D01*
X116870907Y-98510000D01*
X116873604Y-98469071D01*
X116874601Y-98452311D01*
X116878461Y-98402556D01*
X116883284Y-98364767D01*
X116889524Y-98337340D01*
X116897639Y-98318674D01*
X116908082Y-98307166D01*
X116921309Y-98301215D01*
X116937848Y-98299963D01*
X116956261Y-98308969D01*
X116971781Y-98331038D01*
X116974636Y-98338321D01*
X116978177Y-98355362D01*
X116980606Y-98380727D01*
X116982081Y-98416315D01*
X116982757Y-98464022D01*
X116983024Y-98488285D01*
X116983902Y-98524478D01*
X116985219Y-98554395D01*
X116986848Y-98575450D01*
X116988665Y-98585058D01*
X116994292Y-98590509D01*
X117012004Y-98592937D01*
X117038781Y-98585351D01*
X117074282Y-98567903D01*
X117118166Y-98540746D01*
X117170093Y-98504031D01*
X117170461Y-98503758D01*
X117196455Y-98484171D01*
X117220107Y-98465571D01*
X117243923Y-98445828D01*
X117270407Y-98422813D01*
X117302064Y-98394399D01*
X117341398Y-98358457D01*
X117342613Y-98357332D01*
X117360791Y-98339270D01*
X117384012Y-98314615D01*
X117409820Y-98286156D01*
X117435758Y-98256681D01*
X117459367Y-98228981D01*
X117478190Y-98205844D01*
X117489771Y-98190059D01*
X117501121Y-98171460D01*
X117533685Y-98109118D01*
X117565259Y-98035928D01*
X117595086Y-97954260D01*
X117622408Y-97866479D01*
X117646467Y-97774954D01*
X117666506Y-97682053D01*
X117681767Y-97590142D01*
X117683722Y-97573458D01*
X117686853Y-97531828D01*
X117689132Y-97480008D01*
X117690573Y-97420518D01*
X117691192Y-97355874D01*
X117691002Y-97288593D01*
X117690017Y-97221193D01*
X117688252Y-97156191D01*
X117685721Y-97096105D01*
X117682439Y-97043452D01*
X117678420Y-97000750D01*
X117677141Y-96990121D01*
X117648118Y-96797193D01*
X117609058Y-96611574D01*
X117566152Y-96455568D01*
X117693094Y-96455568D01*
X117694690Y-96473750D01*
X117698781Y-96500054D01*
X117705609Y-96536324D01*
X117715419Y-96584405D01*
X117724700Y-96629426D01*
X117743742Y-96726214D01*
X117759391Y-96813472D01*
X117772024Y-96893959D01*
X117782017Y-96970436D01*
X117789747Y-97045662D01*
X117795591Y-97122396D01*
X117799926Y-97203399D01*
X117800674Y-97219890D01*
X117802823Y-97262804D01*
X117804981Y-97300071D01*
X117807009Y-97329597D01*
X117808767Y-97349288D01*
X117809912Y-97355874D01*
X117810117Y-97357051D01*
X117819871Y-97360456D01*
X117839273Y-97362380D01*
X117863373Y-97362564D01*
X117887429Y-97360981D01*
X117906702Y-97357603D01*
X117932401Y-97345523D01*
X117962810Y-97322022D01*
X117994190Y-97289891D01*
X118024509Y-97251469D01*
X118051737Y-97209095D01*
X118073841Y-97165109D01*
X118079392Y-97151862D01*
X118100345Y-97097379D01*
X118122233Y-97034408D01*
X118143721Y-96967078D01*
X118163476Y-96899518D01*
X118180163Y-96835860D01*
X118186219Y-96810320D01*
X118205294Y-96714764D01*
X118216024Y-96628950D01*
X118218314Y-96551577D01*
X118212070Y-96481344D01*
X118197197Y-96416949D01*
X118173600Y-96357090D01*
X118141185Y-96300466D01*
X118117646Y-96268123D01*
X118083320Y-96232519D01*
X118047052Y-96209158D01*
X118007077Y-96197004D01*
X117961632Y-96195020D01*
X117913695Y-96202922D01*
X117868111Y-96222896D01*
X117825542Y-96255838D01*
X117813100Y-96269534D01*
X117794388Y-96292964D01*
X117772403Y-96322309D01*
X117749353Y-96354478D01*
X117727448Y-96386385D01*
X117708896Y-96414941D01*
X117695908Y-96437057D01*
X117693747Y-96443660D01*
X117693094Y-96455568D01*
X117566152Y-96455568D01*
X117560166Y-96433805D01*
X117501650Y-96264428D01*
X117433714Y-96103981D01*
X117356565Y-95953006D01*
X117270409Y-95812044D01*
X117175452Y-95681634D01*
X117133492Y-95631477D01*
X117075923Y-95568261D01*
X117010400Y-95501035D01*
X116938973Y-95431732D01*
X116863691Y-95362283D01*
X116786604Y-95294620D01*
X116709763Y-95230677D01*
X116635216Y-95172384D01*
X116587574Y-95137341D01*
X116526323Y-95094205D01*
X116459805Y-95049050D01*
X116389684Y-95002900D01*
X116317626Y-94956776D01*
X116245297Y-94911699D01*
X116174361Y-94868693D01*
X116106485Y-94828780D01*
X116043334Y-94792980D01*
X115986572Y-94762317D01*
X115937866Y-94737812D01*
X115898881Y-94720488D01*
X115886973Y-94715735D01*
X115855789Y-94703277D01*
X115826556Y-94691585D01*
X115815241Y-94687266D01*
X115790044Y-94678081D01*
X115755564Y-94665789D01*
X115714101Y-94651202D01*
X115667955Y-94635134D01*
X115619427Y-94618397D01*
X115581758Y-94605313D01*
X115536506Y-94589171D01*
X115496157Y-94574314D01*
X115462812Y-94561535D01*
X115438574Y-94551624D01*
X115425543Y-94545372D01*
X115411836Y-94535038D01*
X115394974Y-94511994D01*
X115385991Y-94480550D01*
X115384079Y-94438627D01*
X115385233Y-94414533D01*
X115392031Y-94357882D01*
X115405261Y-94298797D01*
X115425828Y-94232816D01*
X115430738Y-94217641D01*
X115440191Y-94185680D01*
X115451918Y-94143775D01*
X115465330Y-94094116D01*
X115479840Y-94038887D01*
X115494860Y-93980277D01*
X115509802Y-93920473D01*
X115522553Y-93868951D01*
X115540480Y-93797558D01*
X115556931Y-93733715D01*
X115572861Y-93673933D01*
X115589221Y-93614724D01*
X115606964Y-93552602D01*
X115627042Y-93484078D01*
X115650409Y-93405665D01*
X115656695Y-93383139D01*
X115668236Y-93330654D01*
X115677436Y-93270637D01*
X115684477Y-93201484D01*
X115689538Y-93121595D01*
X115692799Y-93029368D01*
X115693734Y-92986157D01*
X115694293Y-92928450D01*
X115693505Y-92878993D01*
X115691070Y-92834285D01*
X115686689Y-92790825D01*
X115680062Y-92745114D01*
X115670891Y-92693649D01*
X115658874Y-92632932D01*
X115653851Y-92609117D01*
X115635610Y-92533435D01*
X115614960Y-92461645D01*
X115592930Y-92397122D01*
X115570547Y-92343242D01*
X115569011Y-92339984D01*
X115527279Y-92262617D01*
X115474520Y-92182158D01*
X115412563Y-92100860D01*
X115343239Y-92020975D01*
X115268375Y-91944754D01*
X115189802Y-91874451D01*
X115098894Y-91805040D01*
X114985891Y-91734625D01*
X114867241Y-91676705D01*
X114811877Y-91656433D01*
X115126653Y-91656433D01*
X115130834Y-91661084D01*
X115143781Y-91673079D01*
X115163396Y-91690415D01*
X115187540Y-91711169D01*
X115205741Y-91726662D01*
X115236382Y-91752873D01*
X115265111Y-91777587D01*
X115287527Y-91797023D01*
X115295411Y-91803980D01*
X115326791Y-91832704D01*
X115361666Y-91865915D01*
X115397724Y-91901292D01*
X115432654Y-91936511D01*
X115464143Y-91969250D01*
X115489878Y-91997188D01*
X115507548Y-92018002D01*
X115522986Y-92037653D01*
X115539458Y-92058377D01*
X115551155Y-92072823D01*
X115565189Y-92089771D01*
X115604925Y-92065780D01*
X115627013Y-92051732D01*
X115657738Y-92030742D01*
X115685616Y-92010338D01*
X115690867Y-92006351D01*
X115721320Y-91984248D01*
X115760367Y-91957098D01*
X115805225Y-91926747D01*
X115853112Y-91895042D01*
X115901245Y-91863828D01*
X115946843Y-91834952D01*
X115987122Y-91810261D01*
X116004752Y-91799738D01*
X116107262Y-91739931D01*
X116216592Y-91678256D01*
X116330429Y-91615914D01*
X116446458Y-91554110D01*
X116562363Y-91494046D01*
X116675831Y-91436924D01*
X116784545Y-91383946D01*
X116886192Y-91336316D01*
X116978457Y-91295236D01*
X117051166Y-91265752D01*
X117137661Y-91234210D01*
X117231447Y-91203014D01*
X117330012Y-91172842D01*
X117430847Y-91144371D01*
X117531442Y-91118282D01*
X117629286Y-91095251D01*
X117721869Y-91075957D01*
X117806681Y-91061079D01*
X117881212Y-91051294D01*
X117891207Y-91050144D01*
X117946422Y-91039658D01*
X118000649Y-91023064D01*
X118049568Y-91001895D01*
X118088857Y-90977683D01*
X118101501Y-90966512D01*
X118123040Y-90942155D01*
X118140347Y-90916532D01*
X118149138Y-90899547D01*
X118156765Y-90879018D01*
X118160338Y-90856566D01*
X118161251Y-90826164D01*
X118160957Y-90812548D01*
X118155829Y-90772938D01*
X118143557Y-90735883D01*
X118123148Y-90700119D01*
X118093611Y-90664382D01*
X118053952Y-90627406D01*
X118003179Y-90587927D01*
X117940299Y-90544680D01*
X117899457Y-90518397D01*
X117842923Y-90484680D01*
X117790954Y-90457710D01*
X117740015Y-90435864D01*
X117686568Y-90417522D01*
X117627078Y-90401062D01*
X117575904Y-90388555D01*
X117523620Y-90377044D01*
X117475150Y-90368202D01*
X117427523Y-90361702D01*
X117377769Y-90357216D01*
X117322914Y-90354419D01*
X117259987Y-90352984D01*
X117186017Y-90352585D01*
X117132322Y-90352711D01*
X117081401Y-90353222D01*
X117040475Y-90354227D01*
X117007379Y-90355837D01*
X116979948Y-90358162D01*
X116956017Y-90361311D01*
X116933421Y-90365395D01*
X116931208Y-90365847D01*
X116868684Y-90380923D01*
X116797365Y-90401926D01*
X116720437Y-90427732D01*
X116641086Y-90457215D01*
X116562501Y-90489250D01*
X116487868Y-90522711D01*
X116446153Y-90542942D01*
X116378303Y-90578473D01*
X116311678Y-90617015D01*
X116244084Y-90659988D01*
X116173329Y-90708809D01*
X116097221Y-90764897D01*
X116013569Y-90829672D01*
X115964072Y-90868891D01*
X115874921Y-90940451D01*
X115794795Y-91006205D01*
X115722037Y-91067611D01*
X115654991Y-91126127D01*
X115592003Y-91183210D01*
X115531416Y-91240320D01*
X115471575Y-91298913D01*
X115410824Y-91360447D01*
X115383345Y-91388703D01*
X115323687Y-91450098D01*
X115273078Y-91502263D01*
X115230977Y-91545763D01*
X115196840Y-91581163D01*
X115170127Y-91609028D01*
X115150293Y-91629923D01*
X115136798Y-91644412D01*
X115129099Y-91653060D01*
X115126653Y-91656433D01*
X114811877Y-91656433D01*
X114743674Y-91631460D01*
X114615923Y-91599069D01*
X114484716Y-91579711D01*
X114350786Y-91573566D01*
X114214862Y-91580812D01*
X114077675Y-91601629D01*
X114034997Y-91610768D01*
X113980921Y-91623553D01*
X113924921Y-91637864D01*
X113870131Y-91652839D01*
X113819688Y-91667617D01*
X113776728Y-91681337D01*
X113744387Y-91693139D01*
X113728714Y-91699639D01*
X113644510Y-91738504D01*
X113556385Y-91785058D01*
X113468651Y-91836785D01*
X113385621Y-91891167D01*
X113311609Y-91945688D01*
X113309554Y-91947325D01*
X113286279Y-91967112D01*
X113255470Y-91994953D01*
X113218393Y-92029582D01*
X113176312Y-92069734D01*
X113130490Y-92114140D01*
X113082192Y-92161536D01*
X113032681Y-92210654D01*
X112983223Y-92260229D01*
X112935081Y-92308993D01*
X112889519Y-92355681D01*
X112847801Y-92399026D01*
X112811192Y-92437762D01*
X112780955Y-92470622D01*
X112758356Y-92496340D01*
X112744657Y-92513650D01*
X112735806Y-92526772D01*
X112707405Y-92573178D01*
X112676255Y-92629469D01*
X112643573Y-92693075D01*
X112610576Y-92761427D01*
X112578481Y-92831953D01*
X112548505Y-92902085D01*
X112521863Y-92969252D01*
X112499773Y-93030884D01*
X112479116Y-93096337D01*
X112446819Y-93221309D01*
X112425248Y-93341696D01*
X112414421Y-93456777D01*
X112414357Y-93565830D01*
X112307471Y-93565830D01*
X112307041Y-93485349D01*
X112317055Y-93367241D01*
X112337428Y-93244096D01*
X112367905Y-93117317D01*
X112408235Y-92988305D01*
X112458164Y-92858463D01*
X112473502Y-92822879D01*
X112502065Y-92760026D01*
X112532819Y-92695926D01*
X112564307Y-92633443D01*
X112595070Y-92575441D01*
X112623650Y-92524785D01*
X112648589Y-92484339D01*
X112663294Y-92463224D01*
X112697949Y-92418815D01*
X112743105Y-92366099D01*
X112798477Y-92305379D01*
X112863778Y-92236956D01*
X112938724Y-92161136D01*
X113023028Y-92078219D01*
X113116404Y-91988510D01*
X113170769Y-91937829D01*
X113243937Y-91873584D01*
X113314241Y-91817296D01*
X113384691Y-91766850D01*
X113458295Y-91720129D01*
X113538061Y-91675019D01*
X113626996Y-91629402D01*
X113644380Y-91620936D01*
X113708607Y-91591669D01*
X113771429Y-91566697D01*
X113836696Y-91544693D01*
X113908259Y-91524328D01*
X113989968Y-91504277D01*
X113998105Y-91502398D01*
X114057757Y-91488769D01*
X114106897Y-91478026D01*
X114144949Y-91470488D01*
X114699401Y-91470488D01*
X114704431Y-91477901D01*
X114714429Y-91482621D01*
X114716700Y-91483384D01*
X114731516Y-91488880D01*
X114756478Y-91498478D01*
X114789418Y-91511333D01*
X114828165Y-91526600D01*
X114870548Y-91543434D01*
X114885724Y-91549485D01*
X114926324Y-91565677D01*
X114962038Y-91579927D01*
X114990829Y-91591420D01*
X115010659Y-91599343D01*
X115019491Y-91602884D01*
X115020955Y-91602364D01*
X115031087Y-91594404D01*
X115049743Y-91577636D01*
X115076011Y-91552943D01*
X115108980Y-91521206D01*
X115147737Y-91483310D01*
X115191373Y-91440134D01*
X115238974Y-91392562D01*
X115289630Y-91341475D01*
X115322782Y-91307942D01*
X115401315Y-91229024D01*
X115472449Y-91158499D01*
X115537731Y-91095012D01*
X115598710Y-91037207D01*
X115656932Y-90983729D01*
X115713946Y-90933224D01*
X115771299Y-90884336D01*
X115830538Y-90835710D01*
X115893211Y-90785991D01*
X115960866Y-90733824D01*
X116035050Y-90677854D01*
X116117311Y-90616725D01*
X116134183Y-90604305D01*
X116202855Y-90555065D01*
X116265061Y-90513127D01*
X116323958Y-90476714D01*
X116382705Y-90444047D01*
X116444457Y-90413348D01*
X116512372Y-90382839D01*
X116589608Y-90350743D01*
X116617031Y-90339667D01*
X116654523Y-90324505D01*
X116687416Y-90311181D01*
X116712906Y-90300831D01*
X116728186Y-90294592D01*
X116738717Y-90289475D01*
X116752453Y-90276229D01*
X116752427Y-90260316D01*
X116738707Y-90241392D01*
X116720685Y-90229713D01*
X116689898Y-90218918D01*
X116649853Y-90210314D01*
X116602977Y-90204072D01*
X116551696Y-90200361D01*
X116498436Y-90199351D01*
X116445623Y-90201213D01*
X116395684Y-90206116D01*
X116351045Y-90214230D01*
X116309432Y-90224569D01*
X116185414Y-90261112D01*
X116063191Y-90306094D01*
X115941417Y-90360199D01*
X115818745Y-90424113D01*
X115693828Y-90498520D01*
X115565320Y-90584105D01*
X115431874Y-90681553D01*
X115375036Y-90725686D01*
X115213879Y-90861851D01*
X115062484Y-91006720D01*
X114921885Y-91159263D01*
X114793114Y-91318450D01*
X114769327Y-91350157D01*
X114740707Y-91389411D01*
X114719992Y-91419846D01*
X114706594Y-91442686D01*
X114699926Y-91459159D01*
X114699401Y-91470488D01*
X114144949Y-91470488D01*
X114148316Y-91469821D01*
X114184808Y-91463809D01*
X114219166Y-91459643D01*
X114254181Y-91456977D01*
X114292646Y-91455465D01*
X114337354Y-91454759D01*
X114391097Y-91454514D01*
X114557171Y-91454147D01*
X114575953Y-91436606D01*
X114582589Y-91429474D01*
X114597626Y-91411271D01*
X114617710Y-91385603D01*
X114641038Y-91354785D01*
X114665806Y-91321137D01*
X114795179Y-91153419D01*
X114937857Y-90989967D01*
X115090391Y-90835783D01*
X115253330Y-90690343D01*
X115427225Y-90553127D01*
X115612628Y-90423611D01*
X115687889Y-90375214D01*
X115789771Y-90313809D01*
X115886198Y-90261032D01*
X115979405Y-90215750D01*
X116071628Y-90176826D01*
X116165106Y-90143124D01*
X116224027Y-90124104D01*
X116285847Y-90105895D01*
X116340561Y-90092306D01*
X116391302Y-90082763D01*
X116441203Y-90076696D01*
X116493397Y-90073532D01*
X116551017Y-90072700D01*
X116587458Y-90073152D01*
X116651984Y-90076587D01*
X116705621Y-90084068D01*
X116750279Y-90096402D01*
X116787869Y-90114394D01*
X116820303Y-90138850D01*
X116849489Y-90170577D01*
X116877339Y-90210380D01*
X116884230Y-90220639D01*
X116898356Y-90236603D01*
X116908848Y-90240622D01*
X116914440Y-90239325D01*
X116935987Y-90235920D01*
X116967377Y-90232130D01*
X117005712Y-90228236D01*
X117048092Y-90224521D01*
X117091619Y-90221267D01*
X117133393Y-90218757D01*
X117177379Y-90217427D01*
X117256362Y-90218518D01*
X117341490Y-90223272D01*
X117428748Y-90231294D01*
X117514120Y-90242187D01*
X117593590Y-90255556D01*
X117663144Y-90271005D01*
X117681541Y-90276229D01*
X117701002Y-90281755D01*
X117784514Y-90311526D01*
X117869103Y-90349185D01*
X117951747Y-90393056D01*
X118029427Y-90441465D01*
X118099122Y-90492739D01*
X118157813Y-90545203D01*
X118185919Y-90575471D01*
X118224280Y-90627476D01*
X118250408Y-90680936D01*
X118265332Y-90738197D01*
X118270078Y-90801606D01*
X118268214Y-90826164D01*
X118265456Y-90862498D01*
X118248174Y-90930572D01*
G37*
G36*
X114513153Y-96104149D02*
G01*
X114526858Y-96123915D01*
X114530000Y-96130395D01*
X114533284Y-96140438D01*
X114534348Y-96152640D01*
X114533092Y-96169910D01*
X114529419Y-96195154D01*
X114523230Y-96231278D01*
X114520138Y-96248794D01*
X114506148Y-96326097D01*
X114492741Y-96396290D01*
X114479053Y-96463500D01*
X114464223Y-96531855D01*
X114447388Y-96605483D01*
X114427685Y-96688512D01*
X114413905Y-96746069D01*
X114398067Y-96813439D01*
X114385152Y-96870716D01*
X114374864Y-96919917D01*
X114366906Y-96963061D01*
X114360984Y-97002166D01*
X114356801Y-97039250D01*
X114354061Y-97076331D01*
X114352469Y-97115428D01*
X114351727Y-97158557D01*
X114351541Y-97207739D01*
X114351541Y-97211004D01*
X114351710Y-97264105D01*
X114352456Y-97308518D01*
X114354148Y-97347026D01*
X114357154Y-97382414D01*
X114361844Y-97417464D01*
X114368585Y-97454963D01*
X114377747Y-97497692D01*
X114389698Y-97548436D01*
X114404806Y-97609979D01*
X114407885Y-97622380D01*
X114419947Y-97669859D01*
X114429963Y-97706365D01*
X114438793Y-97734115D01*
X114447303Y-97755324D01*
X114456354Y-97772209D01*
X114466810Y-97786985D01*
X114479533Y-97801868D01*
X114486878Y-97809753D01*
X114506068Y-97826935D01*
X114526428Y-97838482D01*
X114551155Y-97845434D01*
X114583446Y-97848833D01*
X114626496Y-97849719D01*
X114664538Y-97848717D01*
X114699827Y-97844358D01*
X114726741Y-97835579D01*
X114748240Y-97821350D01*
X114767283Y-97800639D01*
X114782258Y-97777479D01*
X114796318Y-97746902D01*
X114809292Y-97708315D01*
X114821486Y-97660516D01*
X114833207Y-97602302D01*
X114844759Y-97532467D01*
X114856450Y-97449810D01*
X114864877Y-97387527D01*
X114884725Y-97250660D01*
X114904867Y-97125169D01*
X114925189Y-97011718D01*
X114945573Y-96910972D01*
X114965905Y-96823595D01*
X114970139Y-96807390D01*
X114990005Y-96742489D01*
X115014092Y-96677815D01*
X115041609Y-96614557D01*
X115071761Y-96553901D01*
X115103754Y-96497035D01*
X115136796Y-96445147D01*
X115170092Y-96399424D01*
X115202848Y-96361053D01*
X115234272Y-96331221D01*
X115263570Y-96311117D01*
X115289947Y-96301928D01*
X115312611Y-96304841D01*
X115320889Y-96309261D01*
X115335666Y-96324564D01*
X115338822Y-96344958D01*
X115330228Y-96370935D01*
X115309759Y-96402986D01*
X115277286Y-96441603D01*
X115260000Y-96460998D01*
X115215630Y-96516836D01*
X115177126Y-96575809D01*
X115143429Y-96640095D01*
X115113479Y-96711872D01*
X115086216Y-96793315D01*
X115060578Y-96886604D01*
X115055462Y-96907255D01*
X115035346Y-96995947D01*
X115016546Y-97091770D01*
X114998763Y-97196451D01*
X114981699Y-97311715D01*
X114965057Y-97439286D01*
X114960892Y-97472155D01*
X114948078Y-97561631D01*
X114934547Y-97638806D01*
X114920056Y-97704972D01*
X114904362Y-97761423D01*
X114904189Y-97761972D01*
X114891661Y-97799825D01*
X114880396Y-97828013D01*
X114868288Y-97850439D01*
X114853235Y-97871007D01*
X114833133Y-97893622D01*
X114808820Y-97916963D01*
X114767654Y-97944724D01*
X114721554Y-97961669D01*
X114704904Y-97964036D01*
X114677612Y-97965845D01*
X114643841Y-97966839D01*
X114607426Y-97966845D01*
X114588318Y-97966514D01*
X114555764Y-97965435D01*
X114531869Y-97963358D01*
X114512965Y-97959678D01*
X114495384Y-97953791D01*
X114475457Y-97945091D01*
X114461788Y-97938330D01*
X114427989Y-97916495D01*
X114398901Y-97888629D01*
X114373503Y-97853132D01*
X114350772Y-97808405D01*
X114329689Y-97752850D01*
X114309230Y-97684866D01*
X114276946Y-97551388D01*
X114254066Y-97419484D01*
X114241757Y-97294007D01*
X114240183Y-97176164D01*
X114241744Y-97138748D01*
X114244669Y-97092630D01*
X114248912Y-97046986D01*
X114254777Y-97000068D01*
X114262566Y-96950126D01*
X114272582Y-96895408D01*
X114285128Y-96834166D01*
X114300507Y-96764648D01*
X114319022Y-96685106D01*
X114340976Y-96593788D01*
X114347724Y-96565829D01*
X114361499Y-96507523D01*
X114374436Y-96451183D01*
X114386021Y-96399139D01*
X114395741Y-96353720D01*
X114403082Y-96317256D01*
X114407530Y-96292076D01*
X114408238Y-96287402D01*
X114417276Y-96231200D01*
X114425664Y-96187315D01*
X114433960Y-96154202D01*
X114442723Y-96130316D01*
X114452509Y-96114109D01*
X114463878Y-96104036D01*
X114477386Y-96098551D01*
X114497006Y-96096532D01*
X114513153Y-96104149D01*
G37*
G36*
X113285353Y-92207702D02*
G01*
X113304454Y-92218135D01*
X113329802Y-92241581D01*
X113342718Y-92269772D01*
X113343272Y-92301701D01*
X113331533Y-92336360D01*
X113307571Y-92372743D01*
X113271454Y-92409841D01*
X113255544Y-92422564D01*
X113230576Y-92439079D01*
X113208853Y-92449906D01*
X113185125Y-92456031D01*
X113153941Y-92457952D01*
X113125908Y-92453671D01*
X113105884Y-92443489D01*
X113105777Y-92443391D01*
X113090876Y-92422329D01*
X113079570Y-92391709D01*
X113072997Y-92355765D01*
X113072297Y-92318729D01*
X113072329Y-92318289D01*
X113074807Y-92294129D01*
X113079741Y-92277841D01*
X113089910Y-92263814D01*
X113108094Y-92246433D01*
X113116282Y-92239353D01*
X113157619Y-92212556D01*
X113200812Y-92198078D01*
X113244009Y-92196325D01*
X113285353Y-92207702D01*
G37*
%TO.C,L15*%
G36*
X143444392Y-65231529D02*
G01*
X141944392Y-65231529D01*
X141944392Y-64481529D01*
X143444392Y-64481529D01*
X143444392Y-65231529D01*
G37*
X143444392Y-65231529D02*
X141944392Y-65231529D01*
X141944392Y-64481529D01*
X143444392Y-64481529D01*
X143444392Y-65231529D01*
G36*
X143444392Y-66981529D02*
G01*
X141944392Y-66981529D01*
X141944392Y-66231529D01*
X143444392Y-66231529D01*
X143444392Y-66981529D01*
G37*
X143444392Y-66981529D02*
X141944392Y-66981529D01*
X141944392Y-66231529D01*
X143444392Y-66231529D01*
X143444392Y-66981529D01*
G36*
X138444392Y-66981529D02*
G01*
X136944392Y-66981529D01*
X136944392Y-66231529D01*
X138444392Y-66231529D01*
X138444392Y-66981529D01*
G37*
X138444392Y-66981529D02*
X136944392Y-66981529D01*
X136944392Y-66231529D01*
X138444392Y-66231529D01*
X138444392Y-66981529D01*
G36*
X138444392Y-65231529D02*
G01*
X136944392Y-65231529D01*
X136944392Y-64731529D01*
X137194392Y-64481529D01*
X138444392Y-64481529D01*
X138444392Y-65231529D01*
G37*
X138444392Y-65231529D02*
X136944392Y-65231529D01*
X136944392Y-64731529D01*
X137194392Y-64481529D01*
X138444392Y-64481529D01*
X138444392Y-65231529D01*
%TO.C,BT1*%
G36*
X197850000Y-82150721D02*
G01*
X195850000Y-82150721D01*
X195850000Y-80750721D01*
X197850000Y-80750721D01*
X197850000Y-82150721D01*
G37*
X197850000Y-82150721D02*
X195850000Y-82150721D01*
X195850000Y-80750721D01*
X197850000Y-80750721D01*
X197850000Y-82150721D01*
G36*
X197850000Y-84350721D02*
G01*
X195850000Y-84350721D01*
X195850000Y-82950721D01*
X197850000Y-82950721D01*
X197850000Y-84350721D01*
G37*
X197850000Y-84350721D02*
X195850000Y-84350721D01*
X195850000Y-82950721D01*
X197850000Y-82950721D01*
X197850000Y-84350721D01*
%TO.C,L18*%
G36*
X151569424Y-93180968D02*
G01*
X150069424Y-93180968D01*
X150069424Y-92430968D01*
X151569424Y-92430968D01*
X151569424Y-93180968D01*
G37*
X151569424Y-93180968D02*
X150069424Y-93180968D01*
X150069424Y-92430968D01*
X151569424Y-92430968D01*
X151569424Y-93180968D01*
G36*
X151569424Y-91430968D02*
G01*
X150069424Y-91430968D01*
X150069424Y-90680968D01*
X151569424Y-90680968D01*
X151569424Y-91430968D01*
G37*
X151569424Y-91430968D02*
X150069424Y-91430968D01*
X150069424Y-90680968D01*
X151569424Y-90680968D01*
X151569424Y-91430968D01*
G36*
X146569424Y-91430968D02*
G01*
X145069424Y-91430968D01*
X145069424Y-90930968D01*
X145319424Y-90680968D01*
X146569424Y-90680968D01*
X146569424Y-91430968D01*
G37*
X146569424Y-91430968D02*
X145069424Y-91430968D01*
X145069424Y-90930968D01*
X145319424Y-90680968D01*
X146569424Y-90680968D01*
X146569424Y-91430968D01*
G36*
X146569424Y-93180968D02*
G01*
X145069424Y-93180968D01*
X145069424Y-92430968D01*
X146569424Y-92430968D01*
X146569424Y-93180968D01*
G37*
X146569424Y-93180968D02*
X145069424Y-93180968D01*
X145069424Y-92430968D01*
X146569424Y-92430968D01*
X146569424Y-93180968D01*
%TO.C,L20*%
G36*
X190747669Y-102517304D02*
G01*
X190430705Y-103197035D01*
X189071244Y-102563108D01*
X189388207Y-101883377D01*
X190747669Y-102517304D01*
G37*
X190747669Y-102517304D02*
X190430705Y-103197035D01*
X189071244Y-102563108D01*
X189388207Y-101883377D01*
X190747669Y-102517304D01*
G36*
X195279208Y-104630395D02*
G01*
X194962244Y-105310126D01*
X193602783Y-104676199D01*
X193919746Y-103996468D01*
X195279208Y-104630395D01*
G37*
X195279208Y-104630395D02*
X194962244Y-105310126D01*
X193602783Y-104676199D01*
X193919746Y-103996468D01*
X195279208Y-104630395D01*
G36*
X196018790Y-103044357D02*
G01*
X195701826Y-103724088D01*
X194342365Y-103090160D01*
X194659328Y-102410429D01*
X196018790Y-103044357D01*
G37*
X196018790Y-103044357D02*
X195701826Y-103724088D01*
X194342365Y-103090160D01*
X194659328Y-102410429D01*
X196018790Y-103044357D01*
G36*
X191487251Y-100931266D02*
G01*
X191170287Y-101610996D01*
X189810826Y-100977069D01*
X190022135Y-100523915D01*
X190354366Y-100402993D01*
X191487251Y-100931266D01*
G37*
X191487251Y-100931266D02*
X191170287Y-101610996D01*
X189810826Y-100977069D01*
X190022135Y-100523915D01*
X190354366Y-100402993D01*
X191487251Y-100931266D01*
%TO.C,L8*%
G36*
X102774852Y-67652813D02*
G01*
X101280560Y-67783547D01*
X101215193Y-67036401D01*
X102709486Y-66905667D01*
X102774852Y-67652813D01*
G37*
X102774852Y-67652813D02*
X101280560Y-67783547D01*
X101215193Y-67036401D01*
X102709486Y-66905667D01*
X102774852Y-67652813D01*
G36*
X97793879Y-68088592D02*
G01*
X96299587Y-68219325D01*
X96256009Y-67721228D01*
X96483269Y-67450390D01*
X97728512Y-67341446D01*
X97793879Y-68088592D01*
G37*
X97793879Y-68088592D02*
X96299587Y-68219325D01*
X96256009Y-67721228D01*
X96483269Y-67450390D01*
X97728512Y-67341446D01*
X97793879Y-68088592D01*
G36*
X102927375Y-69396154D02*
G01*
X101433083Y-69526887D01*
X101367716Y-68779741D01*
X102862008Y-68649008D01*
X102927375Y-69396154D01*
G37*
X102927375Y-69396154D02*
X101433083Y-69526887D01*
X101367716Y-68779741D01*
X102862008Y-68649008D01*
X102927375Y-69396154D01*
G36*
X97946401Y-69831932D02*
G01*
X96452109Y-69962666D01*
X96386743Y-69215520D01*
X97881035Y-69084786D01*
X97946401Y-69831932D01*
G37*
X97946401Y-69831932D02*
X96452109Y-69962666D01*
X96386743Y-69215520D01*
X97881035Y-69084786D01*
X97946401Y-69831932D01*
%TO.C,RSW1*%
G36*
X212588000Y-81250000D02*
G01*
X210988000Y-81250000D01*
X210988000Y-80450000D01*
X212588000Y-80450000D01*
X212588000Y-81250000D01*
G37*
X212588000Y-81250000D02*
X210988000Y-81250000D01*
X210988000Y-80450000D01*
X212588000Y-80450000D01*
X212588000Y-81250000D01*
G36*
X212588000Y-84650000D02*
G01*
X210988000Y-84650000D01*
X210988000Y-83850000D01*
X212588000Y-83850000D01*
X212588000Y-84650000D01*
G37*
X212588000Y-84650000D02*
X210988000Y-84650000D01*
X210988000Y-83850000D01*
X212588000Y-83850000D01*
X212588000Y-84650000D01*
%TO.C,SW18*%
G36*
X156419424Y-100560968D02*
G01*
X154219424Y-100560968D01*
X154219424Y-98660968D01*
X156419424Y-98660968D01*
X156419424Y-100560968D01*
G37*
X156419424Y-100560968D02*
X154219424Y-100560968D01*
X154219424Y-98660968D01*
X156419424Y-98660968D01*
X156419424Y-100560968D01*
G36*
X143719424Y-103100968D02*
G01*
X141519424Y-103100968D01*
X141519424Y-101200968D01*
X143719424Y-101200968D01*
X143719424Y-103100968D01*
G37*
X143719424Y-103100968D02*
X141519424Y-103100968D01*
X141519424Y-101200968D01*
X143719424Y-101200968D01*
X143719424Y-103100968D01*
%TO.C,D14*%
G36*
X119622062Y-85043656D02*
G01*
X118423707Y-85106459D01*
X118379221Y-84257624D01*
X119577577Y-84194821D01*
X119622062Y-85043656D01*
G37*
X119622062Y-85043656D02*
X118423707Y-85106459D01*
X118379221Y-84257624D01*
X119577577Y-84194821D01*
X119622062Y-85043656D01*
G36*
X123167197Y-84857864D02*
G01*
X121968841Y-84920667D01*
X121924356Y-84071832D01*
X123122711Y-84009029D01*
X123167197Y-84857864D01*
G37*
X123167197Y-84857864D02*
X121968841Y-84920667D01*
X121924356Y-84071832D01*
X123122711Y-84009029D01*
X123167197Y-84857864D01*
%TO.C,L6*%
G36*
X181011428Y-36008362D02*
G01*
X180959111Y-36756535D01*
X179462765Y-36651900D01*
X179515082Y-35903727D01*
X181011428Y-36008362D01*
G37*
X181011428Y-36008362D02*
X180959111Y-36756535D01*
X179462765Y-36651900D01*
X179515082Y-35903727D01*
X181011428Y-36008362D01*
G36*
X181133502Y-34262625D02*
G01*
X181081185Y-35010798D01*
X179584839Y-34906163D01*
X179619717Y-34407381D01*
X179886547Y-34175429D01*
X181133502Y-34262625D01*
G37*
X181133502Y-34262625D02*
X181081185Y-35010798D01*
X179584839Y-34906163D01*
X179619717Y-34407381D01*
X179886547Y-34175429D01*
X181133502Y-34262625D01*
G36*
X185999249Y-36357144D02*
G01*
X185946931Y-37105317D01*
X184450585Y-37000682D01*
X184502902Y-36252509D01*
X185999249Y-36357144D01*
G37*
X185999249Y-36357144D02*
X185946931Y-37105317D01*
X184450585Y-37000682D01*
X184502902Y-36252509D01*
X185999249Y-36357144D01*
G36*
X186121322Y-34611407D02*
G01*
X186069005Y-35359580D01*
X184572659Y-35254945D01*
X184624976Y-34506772D01*
X186121322Y-34611407D01*
G37*
X186121322Y-34611407D02*
X186069005Y-35359580D01*
X184572659Y-35254945D01*
X184624976Y-34506772D01*
X186121322Y-34611407D01*
%TO.C,SW13*%
G36*
X110084583Y-95555908D02*
G01*
X107892954Y-95747650D01*
X107727359Y-93854880D01*
X109918987Y-93663138D01*
X110084583Y-95555908D01*
G37*
X110084583Y-95555908D02*
X107892954Y-95747650D01*
X107727359Y-93854880D01*
X109918987Y-93663138D01*
X110084583Y-95555908D01*
G36*
X97654286Y-99193120D02*
G01*
X95462657Y-99384863D01*
X95297062Y-97492093D01*
X97488690Y-97300350D01*
X97654286Y-99193120D01*
G37*
X97654286Y-99193120D02*
X95462657Y-99384863D01*
X95297062Y-97492093D01*
X97488690Y-97300350D01*
X97654286Y-99193120D01*
%TO.C,D3*%
G36*
X117601475Y-46488568D02*
G01*
X116403120Y-46551371D01*
X116358634Y-45702536D01*
X117556990Y-45639733D01*
X117601475Y-46488568D01*
G37*
X117601475Y-46488568D02*
X116403120Y-46551371D01*
X116358634Y-45702536D01*
X117556990Y-45639733D01*
X117601475Y-46488568D01*
G36*
X121146610Y-46302776D02*
G01*
X119948254Y-46365579D01*
X119903769Y-45516744D01*
X121102124Y-45453941D01*
X121146610Y-46302776D01*
G37*
X121146610Y-46302776D02*
X119948254Y-46365579D01*
X119903769Y-45516744D01*
X121102124Y-45453941D01*
X121146610Y-46302776D01*
%TO.C,D12*%
G36*
X182921587Y-67826116D02*
G01*
X182862294Y-68674045D01*
X181665217Y-68590338D01*
X181724510Y-67742408D01*
X182921587Y-67826116D01*
G37*
X182921587Y-67826116D02*
X182862294Y-68674045D01*
X181665217Y-68590338D01*
X181724510Y-67742408D01*
X182921587Y-67826116D01*
G36*
X179380235Y-67578480D02*
G01*
X179320942Y-68426410D01*
X178123865Y-68342702D01*
X178183158Y-67494773D01*
X179380235Y-67578480D01*
G37*
X179380235Y-67578480D02*
X179320942Y-68426410D01*
X178123865Y-68342702D01*
X178183158Y-67494773D01*
X179380235Y-67578480D01*
%TO.C,SW10*%
G36*
X148294392Y-55057529D02*
G01*
X146094392Y-55057529D01*
X146094392Y-53157529D01*
X148294392Y-53157529D01*
X148294392Y-55057529D01*
G37*
X148294392Y-55057529D02*
X146094392Y-55057529D01*
X146094392Y-53157529D01*
X148294392Y-53157529D01*
X148294392Y-55057529D01*
G36*
X135594392Y-57597529D02*
G01*
X133394392Y-57597529D01*
X133394392Y-55697529D01*
X135594392Y-55697529D01*
X135594392Y-57597529D01*
G37*
X135594392Y-57597529D02*
X133394392Y-57597529D01*
X133394392Y-55697529D01*
X135594392Y-55697529D01*
X135594392Y-57597529D01*
%TO.C,D5*%
G36*
X160639402Y-43793079D02*
G01*
X160594917Y-44641914D01*
X159396561Y-44579111D01*
X159441047Y-43730276D01*
X160639402Y-43793079D01*
G37*
X160639402Y-43793079D02*
X160594917Y-44641914D01*
X159396561Y-44579111D01*
X159441047Y-43730276D01*
X160639402Y-43793079D01*
G36*
X164184537Y-43978871D02*
G01*
X164140051Y-44827706D01*
X162941696Y-44764903D01*
X162986181Y-43916068D01*
X164184537Y-43978871D01*
G37*
X164184537Y-43978871D02*
X164140051Y-44827706D01*
X162941696Y-44764903D01*
X162986181Y-43916068D01*
X164184537Y-43978871D01*
%TO.C,SW12*%
G36*
X176210027Y-63815170D02*
G01*
X176077490Y-65710542D01*
X173882849Y-65557078D01*
X174015386Y-63661706D01*
X176210027Y-63815170D01*
G37*
X176210027Y-63815170D02*
X176077490Y-65710542D01*
X173882849Y-65557078D01*
X174015386Y-63661706D01*
X176210027Y-63815170D01*
G36*
X189056272Y-62167265D02*
G01*
X188923734Y-64062637D01*
X186729094Y-63909172D01*
X186861631Y-62013801D01*
X189056272Y-62167265D01*
G37*
X189056272Y-62167265D02*
X188923734Y-64062637D01*
X186729094Y-63909172D01*
X186861631Y-62013801D01*
X189056272Y-62167265D01*
%TO.C,D18*%
G36*
X158396424Y-90775968D02*
G01*
X157546424Y-90775968D01*
X157546424Y-89575968D01*
X158396424Y-89575968D01*
X158396424Y-90775968D01*
G37*
X158396424Y-90775968D02*
X157546424Y-90775968D01*
X157546424Y-89575968D01*
X158396424Y-89575968D01*
X158396424Y-90775968D01*
G36*
X158396424Y-94325968D02*
G01*
X157546424Y-94325968D01*
X157546424Y-93125968D01*
X158396424Y-93125968D01*
X158396424Y-94325968D01*
G37*
X158396424Y-94325968D02*
X157546424Y-94325968D01*
X157546424Y-93125968D01*
X158396424Y-93125968D01*
X158396424Y-94325968D01*
%TO.C,L11*%
G36*
X164691934Y-51016071D02*
G01*
X164652682Y-51765043D01*
X163154737Y-51686539D01*
X163193989Y-50937567D01*
X164691934Y-51016071D01*
G37*
X164691934Y-51016071D02*
X164652682Y-51765043D01*
X163154737Y-51686539D01*
X163193989Y-50937567D01*
X164691934Y-51016071D01*
G36*
X159698786Y-50754391D02*
G01*
X159659534Y-51503363D01*
X158161590Y-51424859D01*
X158200842Y-50675887D01*
X159698786Y-50754391D01*
G37*
X159698786Y-50754391D02*
X159659534Y-51503363D01*
X158161590Y-51424859D01*
X158200842Y-50675887D01*
X159698786Y-50754391D01*
G36*
X159790374Y-49006789D02*
G01*
X159751122Y-49755761D01*
X158253178Y-49677257D01*
X158279346Y-49177943D01*
X158542087Y-48941369D01*
X159790374Y-49006789D01*
G37*
X159790374Y-49006789D02*
X159751122Y-49755761D01*
X158253178Y-49677257D01*
X158279346Y-49177943D01*
X158542087Y-48941369D01*
X159790374Y-49006789D01*
G36*
X164783522Y-49268469D02*
G01*
X164744270Y-50017441D01*
X163246325Y-49938937D01*
X163285577Y-49189965D01*
X164783522Y-49268469D01*
G37*
X164783522Y-49268469D02*
X164744270Y-50017441D01*
X163246325Y-49938937D01*
X163285577Y-49189965D01*
X164783522Y-49268469D01*
%TO.C,D8*%
G36*
X99600206Y-82137621D02*
G01*
X98404773Y-82242208D01*
X98330690Y-81395442D01*
X99526124Y-81290855D01*
X99600206Y-82137621D01*
G37*
X99600206Y-82137621D02*
X98404773Y-82242208D01*
X98330690Y-81395442D01*
X99526124Y-81290855D01*
X99600206Y-82137621D01*
G36*
X103136698Y-81828218D02*
G01*
X101941264Y-81932805D01*
X101867182Y-81086039D01*
X103062615Y-80981452D01*
X103136698Y-81828218D01*
G37*
X103136698Y-81828218D02*
X101941264Y-81932805D01*
X101867182Y-81086039D01*
X103062615Y-80981452D01*
X103136698Y-81828218D01*
%TO.C,L5*%
G36*
X165702227Y-31738527D02*
G01*
X165662975Y-32487499D01*
X164165030Y-32408995D01*
X164204282Y-31660023D01*
X165702227Y-31738527D01*
G37*
X165702227Y-31738527D02*
X165662975Y-32487499D01*
X164165030Y-32408995D01*
X164204282Y-31660023D01*
X165702227Y-31738527D01*
G36*
X160709079Y-31476847D02*
G01*
X160669827Y-32225819D01*
X159171883Y-32147315D01*
X159211135Y-31398343D01*
X160709079Y-31476847D01*
G37*
X160709079Y-31476847D02*
X160669827Y-32225819D01*
X159171883Y-32147315D01*
X159211135Y-31398343D01*
X160709079Y-31476847D01*
G36*
X160800667Y-29729245D02*
G01*
X160761415Y-30478217D01*
X159263471Y-30399713D01*
X159289639Y-29900399D01*
X159552380Y-29663825D01*
X160800667Y-29729245D01*
G37*
X160800667Y-29729245D02*
X160761415Y-30478217D01*
X159263471Y-30399713D01*
X159289639Y-29900399D01*
X159552380Y-29663825D01*
X160800667Y-29729245D01*
G36*
X165793815Y-29990925D02*
G01*
X165754563Y-30739897D01*
X164256618Y-30661393D01*
X164295870Y-29912421D01*
X165793815Y-29990925D01*
G37*
X165793815Y-29990925D02*
X165754563Y-30739897D01*
X164256618Y-30661393D01*
X164295870Y-29912421D01*
X165793815Y-29990925D01*
%TO.C,D16*%
G36*
X158618815Y-82348168D02*
G01*
X158574330Y-83197003D01*
X157375974Y-83134200D01*
X157420460Y-82285365D01*
X158618815Y-82348168D01*
G37*
X158618815Y-82348168D02*
X158574330Y-83197003D01*
X157375974Y-83134200D01*
X157420460Y-82285365D01*
X158618815Y-82348168D01*
G36*
X162163950Y-82533960D02*
G01*
X162119464Y-83382795D01*
X160921109Y-83319992D01*
X160965594Y-82471157D01*
X162163950Y-82533960D01*
G37*
X162163950Y-82533960D02*
X162119464Y-83382795D01*
X160921109Y-83319992D01*
X160965594Y-82471157D01*
X162163950Y-82533960D01*
%TO.C,SW14*%
G36*
X128621467Y-79542125D02*
G01*
X126424482Y-79657264D01*
X126325044Y-77759868D01*
X128522029Y-77644729D01*
X128621467Y-79542125D01*
G37*
X128621467Y-79542125D02*
X126424482Y-79657264D01*
X126325044Y-77759868D01*
X128522029Y-77644729D01*
X128621467Y-79542125D01*
G36*
X116071805Y-82743311D02*
G01*
X113874820Y-82858450D01*
X113775382Y-80961054D01*
X115972367Y-80845915D01*
X116071805Y-82743311D01*
G37*
X116071805Y-82743311D02*
X113874820Y-82858450D01*
X113775382Y-80961054D01*
X115972367Y-80845915D01*
X116071805Y-82743311D01*
%TO.C,D2*%
G36*
X101454243Y-62597676D02*
G01*
X100258809Y-62702263D01*
X100184727Y-61855497D01*
X101380160Y-61750910D01*
X101454243Y-62597676D01*
G37*
X101454243Y-62597676D02*
X100258809Y-62702263D01*
X100184727Y-61855497D01*
X101380160Y-61750910D01*
X101454243Y-62597676D01*
G36*
X97917751Y-62907079D02*
G01*
X96722318Y-63011666D01*
X96648235Y-62164900D01*
X97843669Y-62060313D01*
X97917751Y-62907079D01*
G37*
X97917751Y-62907079D02*
X96722318Y-63011666D01*
X96648235Y-62164900D01*
X97843669Y-62060313D01*
X97917751Y-62907079D01*
%TO.C,SW3*%
G36*
X114051218Y-44188222D02*
G01*
X111854233Y-44303361D01*
X111754795Y-42405965D01*
X113951780Y-42290826D01*
X114051218Y-44188222D01*
G37*
X114051218Y-44188222D02*
X111854233Y-44303361D01*
X111754795Y-42405965D01*
X113951780Y-42290826D01*
X114051218Y-44188222D01*
G36*
X126600880Y-40987036D02*
G01*
X124403895Y-41102175D01*
X124304457Y-39204779D01*
X126501442Y-39089640D01*
X126600880Y-40987036D01*
G37*
X126600880Y-40987036D02*
X124403895Y-41102175D01*
X124304457Y-39204779D01*
X126501442Y-39089640D01*
X126600880Y-40987036D01*
%TO.C,SW2*%
G36*
X94289377Y-60732035D02*
G01*
X92097748Y-60923778D01*
X91932153Y-59031008D01*
X94123781Y-58839265D01*
X94289377Y-60732035D01*
G37*
X94289377Y-60732035D02*
X92097748Y-60923778D01*
X91932153Y-59031008D01*
X94123781Y-58839265D01*
X94289377Y-60732035D01*
G36*
X106719674Y-57094823D02*
G01*
X104528045Y-57286565D01*
X104362450Y-55393795D01*
X106554078Y-55202053D01*
X106719674Y-57094823D01*
G37*
X106719674Y-57094823D02*
X104528045Y-57286565D01*
X104362450Y-55393795D01*
X106554078Y-55202053D01*
X106719674Y-57094823D01*
%TO.C,U1*%
G36*
X199088000Y-61968500D02*
G01*
X198072000Y-61968500D01*
X198072000Y-60952500D01*
X199088000Y-60952500D01*
X199088000Y-61968500D01*
G37*
X199088000Y-61968500D02*
X198072000Y-61968500D01*
X198072000Y-60952500D01*
X199088000Y-60952500D01*
X199088000Y-61968500D01*
G36*
X210264000Y-46728500D02*
G01*
X209248000Y-46728500D01*
X209248000Y-45712500D01*
X210264000Y-45712500D01*
X210264000Y-46728500D01*
G37*
X210264000Y-46728500D02*
X209248000Y-46728500D01*
X209248000Y-45712500D01*
X210264000Y-45712500D01*
X210264000Y-46728500D01*
G36*
X199088000Y-49268500D02*
G01*
X198072000Y-49268500D01*
X198072000Y-48252500D01*
X199088000Y-48252500D01*
X199088000Y-49268500D01*
G37*
X199088000Y-49268500D02*
X198072000Y-49268500D01*
X198072000Y-48252500D01*
X199088000Y-48252500D01*
X199088000Y-49268500D01*
G36*
X210264000Y-54348500D02*
G01*
X209248000Y-54348500D01*
X209248000Y-53332500D01*
X210264000Y-53332500D01*
X210264000Y-54348500D01*
G37*
X210264000Y-54348500D02*
X209248000Y-54348500D01*
X209248000Y-53332500D01*
X210264000Y-53332500D01*
X210264000Y-54348500D01*
G36*
X199088000Y-56888500D02*
G01*
X198072000Y-56888500D01*
X198072000Y-55872500D01*
X199088000Y-55872500D01*
X199088000Y-56888500D01*
G37*
X199088000Y-56888500D02*
X198072000Y-56888500D01*
X198072000Y-55872500D01*
X199088000Y-55872500D01*
X199088000Y-56888500D01*
G36*
X199088000Y-74668500D02*
G01*
X198072000Y-74668500D01*
X198072000Y-73652500D01*
X199088000Y-73652500D01*
X199088000Y-74668500D01*
G37*
X199088000Y-74668500D02*
X198072000Y-74668500D01*
X198072000Y-73652500D01*
X199088000Y-73652500D01*
X199088000Y-74668500D01*
G36*
X199088000Y-72128500D02*
G01*
X198072000Y-72128500D01*
X198072000Y-71112500D01*
X199088000Y-71112500D01*
X199088000Y-72128500D01*
G37*
X199088000Y-72128500D02*
X198072000Y-72128500D01*
X198072000Y-71112500D01*
X199088000Y-71112500D01*
X199088000Y-72128500D01*
G36*
X199088000Y-69588500D02*
G01*
X198072000Y-69588500D01*
X198072000Y-68572500D01*
X199088000Y-68572500D01*
X199088000Y-69588500D01*
G37*
X199088000Y-69588500D02*
X198072000Y-69588500D01*
X198072000Y-68572500D01*
X199088000Y-68572500D01*
X199088000Y-69588500D01*
G36*
X210264000Y-72128500D02*
G01*
X209248000Y-72128500D01*
X209248000Y-71112500D01*
X210264000Y-71112500D01*
X210264000Y-72128500D01*
G37*
X210264000Y-72128500D02*
X209248000Y-72128500D01*
X209248000Y-71112500D01*
X210264000Y-71112500D01*
X210264000Y-72128500D01*
G36*
X210264000Y-59428500D02*
G01*
X209248000Y-59428500D01*
X209248000Y-58412500D01*
X210264000Y-58412500D01*
X210264000Y-59428500D01*
G37*
X210264000Y-59428500D02*
X209248000Y-59428500D01*
X209248000Y-58412500D01*
X210264000Y-58412500D01*
X210264000Y-59428500D01*
G36*
X210264000Y-74668500D02*
G01*
X209248000Y-74668500D01*
X209248000Y-73652500D01*
X210264000Y-73652500D01*
X210264000Y-74668500D01*
G37*
X210264000Y-74668500D02*
X209248000Y-74668500D01*
X209248000Y-73652500D01*
X210264000Y-73652500D01*
X210264000Y-74668500D01*
G36*
X210264000Y-67048500D02*
G01*
X209248000Y-67048500D01*
X209248000Y-66032500D01*
X210264000Y-66032500D01*
X210264000Y-67048500D01*
G37*
X210264000Y-67048500D02*
X209248000Y-67048500D01*
X209248000Y-66032500D01*
X210264000Y-66032500D01*
X210264000Y-67048500D01*
G36*
X199088000Y-54348500D02*
G01*
X198072000Y-54348500D01*
X198072000Y-53332500D01*
X199088000Y-53332500D01*
X199088000Y-54348500D01*
G37*
X199088000Y-54348500D02*
X198072000Y-54348500D01*
X198072000Y-53332500D01*
X199088000Y-53332500D01*
X199088000Y-54348500D01*
G36*
X199088000Y-64508500D02*
G01*
X198072000Y-64508500D01*
X198072000Y-63492500D01*
X199088000Y-63492500D01*
X199088000Y-64508500D01*
G37*
X199088000Y-64508500D02*
X198072000Y-64508500D01*
X198072000Y-63492500D01*
X199088000Y-63492500D01*
X199088000Y-64508500D01*
G36*
X199088000Y-67048500D02*
G01*
X198072000Y-67048500D01*
X198072000Y-66032500D01*
X199088000Y-66032500D01*
X199088000Y-67048500D01*
G37*
X199088000Y-67048500D02*
X198072000Y-67048500D01*
X198072000Y-66032500D01*
X199088000Y-66032500D01*
X199088000Y-67048500D01*
G36*
X199088000Y-59428500D02*
G01*
X198072000Y-59428500D01*
X198072000Y-58412500D01*
X199088000Y-58412500D01*
X199088000Y-59428500D01*
G37*
X199088000Y-59428500D02*
X198072000Y-59428500D01*
X198072000Y-58412500D01*
X199088000Y-58412500D01*
X199088000Y-59428500D01*
G36*
X210264000Y-61968500D02*
G01*
X209248000Y-61968500D01*
X209248000Y-60952500D01*
X210264000Y-60952500D01*
X210264000Y-61968500D01*
G37*
X210264000Y-61968500D02*
X209248000Y-61968500D01*
X209248000Y-60952500D01*
X210264000Y-60952500D01*
X210264000Y-61968500D01*
G36*
X210264000Y-56888500D02*
G01*
X209248000Y-56888500D01*
X209248000Y-55872500D01*
X210264000Y-55872500D01*
X210264000Y-56888500D01*
G37*
X210264000Y-56888500D02*
X209248000Y-56888500D01*
X209248000Y-55872500D01*
X210264000Y-55872500D01*
X210264000Y-56888500D01*
G36*
X199088000Y-46728500D02*
G01*
X198072000Y-46728500D01*
X198072000Y-45712500D01*
X199088000Y-45712500D01*
X199088000Y-46728500D01*
G37*
X199088000Y-46728500D02*
X198072000Y-46728500D01*
X198072000Y-45712500D01*
X199088000Y-45712500D01*
X199088000Y-46728500D01*
G36*
X210264000Y-49268500D02*
G01*
X209248000Y-49268500D01*
X209248000Y-48252500D01*
X210264000Y-48252500D01*
X210264000Y-49268500D01*
G37*
X210264000Y-49268500D02*
X209248000Y-49268500D01*
X209248000Y-48252500D01*
X210264000Y-48252500D01*
X210264000Y-49268500D01*
G36*
X210264000Y-69588500D02*
G01*
X209248000Y-69588500D01*
X209248000Y-68572500D01*
X210264000Y-68572500D01*
X210264000Y-69588500D01*
G37*
X210264000Y-69588500D02*
X209248000Y-69588500D01*
X209248000Y-68572500D01*
X210264000Y-68572500D01*
X210264000Y-69588500D01*
G36*
X210264000Y-51808500D02*
G01*
X209248000Y-51808500D01*
X209248000Y-50792500D01*
X210264000Y-50792500D01*
X210264000Y-51808500D01*
G37*
X210264000Y-51808500D02*
X209248000Y-51808500D01*
X209248000Y-50792500D01*
X210264000Y-50792500D01*
X210264000Y-51808500D01*
G36*
X210264000Y-64508500D02*
G01*
X209248000Y-64508500D01*
X209248000Y-63492500D01*
X210264000Y-63492500D01*
X210264000Y-64508500D01*
G37*
X210264000Y-64508500D02*
X209248000Y-64508500D01*
X209248000Y-63492500D01*
X210264000Y-63492500D01*
X210264000Y-64508500D01*
G36*
X199088000Y-51808500D02*
G01*
X198072000Y-51808500D01*
X198072000Y-50792500D01*
X199088000Y-50792500D01*
X199088000Y-51808500D01*
G37*
X199088000Y-51808500D02*
X198072000Y-51808500D01*
X198072000Y-50792500D01*
X199088000Y-50792500D01*
X199088000Y-51808500D01*
%TO.C,SW8*%
G36*
X95971832Y-79962577D02*
G01*
X93780203Y-80154320D01*
X93614608Y-78261550D01*
X95806236Y-78069807D01*
X95971832Y-79962577D01*
G37*
X95971832Y-79962577D02*
X93780203Y-80154320D01*
X93614608Y-78261550D01*
X95806236Y-78069807D01*
X95971832Y-79962577D01*
G36*
X108402129Y-76325365D02*
G01*
X106210500Y-76517107D01*
X106044905Y-74624337D01*
X108236533Y-74432595D01*
X108402129Y-76325365D01*
G37*
X108402129Y-76325365D02*
X106210500Y-76517107D01*
X106044905Y-74624337D01*
X108236533Y-74432595D01*
X108402129Y-76325365D01*
%TO.C,PSW1*%
G36*
X200968000Y-43272854D02*
G01*
X200068000Y-43272854D01*
X200068000Y-42572854D01*
X200968000Y-42572854D01*
X200968000Y-43272854D01*
G37*
X200968000Y-43272854D02*
X200068000Y-43272854D01*
X200068000Y-42572854D01*
X200968000Y-42572854D01*
X200968000Y-43272854D01*
G36*
X208268000Y-43272854D02*
G01*
X207368000Y-43272854D01*
X207368000Y-42572854D01*
X208268000Y-42572854D01*
X208268000Y-43272854D01*
G37*
X208268000Y-43272854D02*
X207368000Y-43272854D01*
X207368000Y-42572854D01*
X208268000Y-42572854D01*
X208268000Y-43272854D01*
G36*
X202218000Y-44272854D02*
G01*
X201618000Y-44272854D01*
X201618000Y-42872854D01*
X202218000Y-42872854D01*
X202218000Y-44272854D01*
G37*
X202218000Y-44272854D02*
X201618000Y-44272854D01*
X201618000Y-42872854D01*
X202218000Y-42872854D01*
X202218000Y-44272854D01*
G36*
X206718000Y-44272854D02*
G01*
X206118000Y-44272854D01*
X206118000Y-42872854D01*
X206718000Y-42872854D01*
X206718000Y-44272854D01*
G37*
X206718000Y-44272854D02*
X206118000Y-44272854D01*
X206118000Y-42872854D01*
X206718000Y-42872854D01*
X206718000Y-44272854D01*
G36*
X200968000Y-41072854D02*
G01*
X200068000Y-41072854D01*
X200068000Y-40372854D01*
X200968000Y-40372854D01*
X200968000Y-41072854D01*
G37*
X200968000Y-41072854D02*
X200068000Y-41072854D01*
X200068000Y-40372854D01*
X200968000Y-40372854D01*
X200968000Y-41072854D01*
G36*
X208268000Y-41072854D02*
G01*
X207368000Y-41072854D01*
X207368000Y-40372854D01*
X208268000Y-40372854D01*
X208268000Y-41072854D01*
G37*
X208268000Y-41072854D02*
X207368000Y-41072854D01*
X207368000Y-40372854D01*
X208268000Y-40372854D01*
X208268000Y-41072854D01*
G36*
X205218000Y-44272854D02*
G01*
X204618000Y-44272854D01*
X204618000Y-42872854D01*
X205218000Y-42872854D01*
X205218000Y-44272854D01*
G37*
X205218000Y-44272854D02*
X204618000Y-44272854D01*
X204618000Y-42872854D01*
X205218000Y-42872854D01*
X205218000Y-44272854D01*
%TO.C,D11*%
G36*
X159629109Y-63070624D02*
G01*
X159584624Y-63919459D01*
X158386268Y-63856656D01*
X158430754Y-63007821D01*
X159629109Y-63070624D01*
G37*
X159629109Y-63070624D02*
X159584624Y-63919459D01*
X158386268Y-63856656D01*
X158430754Y-63007821D01*
X159629109Y-63070624D01*
G36*
X163174244Y-63256416D02*
G01*
X163129758Y-64105251D01*
X161931403Y-64042448D01*
X161975888Y-63193613D01*
X163174244Y-63256416D01*
G37*
X163174244Y-63256416D02*
X163129758Y-64105251D01*
X161931403Y-64042448D01*
X161975888Y-63193613D01*
X163174244Y-63256416D01*
%TO.C,L10*%
G36*
X143444392Y-47677529D02*
G01*
X141944392Y-47677529D01*
X141944392Y-46927529D01*
X143444392Y-46927529D01*
X143444392Y-47677529D01*
G37*
X143444392Y-47677529D02*
X141944392Y-47677529D01*
X141944392Y-46927529D01*
X143444392Y-46927529D01*
X143444392Y-47677529D01*
G36*
X138444392Y-45927529D02*
G01*
X136944392Y-45927529D01*
X136944392Y-45427529D01*
X137194392Y-45177529D01*
X138444392Y-45177529D01*
X138444392Y-45927529D01*
G37*
X138444392Y-45927529D02*
X136944392Y-45927529D01*
X136944392Y-45427529D01*
X137194392Y-45177529D01*
X138444392Y-45177529D01*
X138444392Y-45927529D01*
G36*
X143444392Y-45927529D02*
G01*
X141944392Y-45927529D01*
X141944392Y-45177529D01*
X143444392Y-45177529D01*
X143444392Y-45927529D01*
G37*
X143444392Y-45927529D02*
X141944392Y-45927529D01*
X141944392Y-45177529D01*
X143444392Y-45177529D01*
X143444392Y-45927529D01*
G36*
X138444392Y-47677529D02*
G01*
X136944392Y-47677529D01*
X136944392Y-46927529D01*
X138444392Y-46927529D01*
X138444392Y-47677529D01*
G37*
X138444392Y-47677529D02*
X136944392Y-47677529D01*
X136944392Y-46927529D01*
X138444392Y-46927529D01*
X138444392Y-47677529D01*
%TO.C,L2*%
G36*
X96263947Y-50601390D02*
G01*
X94769655Y-50732124D01*
X94704289Y-49984978D01*
X96198581Y-49854244D01*
X96263947Y-50601390D01*
G37*
X96263947Y-50601390D02*
X94769655Y-50732124D01*
X94704289Y-49984978D01*
X96198581Y-49854244D01*
X96263947Y-50601390D01*
G36*
X96111425Y-48858050D02*
G01*
X94617133Y-48988783D01*
X94573555Y-48490686D01*
X94800815Y-48219848D01*
X96046058Y-48110904D01*
X96111425Y-48858050D01*
G37*
X96111425Y-48858050D02*
X94617133Y-48988783D01*
X94573555Y-48490686D01*
X94800815Y-48219848D01*
X96046058Y-48110904D01*
X96111425Y-48858050D01*
G36*
X101092398Y-48422271D02*
G01*
X99598106Y-48553005D01*
X99532739Y-47805859D01*
X101027032Y-47675125D01*
X101092398Y-48422271D01*
G37*
X101092398Y-48422271D02*
X99598106Y-48553005D01*
X99532739Y-47805859D01*
X101027032Y-47675125D01*
X101092398Y-48422271D01*
G36*
X101244921Y-50165612D02*
G01*
X99750629Y-50296345D01*
X99685262Y-49549199D01*
X101179554Y-49418466D01*
X101244921Y-50165612D01*
G37*
X101244921Y-50165612D02*
X99750629Y-50296345D01*
X99685262Y-49549199D01*
X101179554Y-49418466D01*
X101244921Y-50165612D01*
%TO.C,D17*%
G36*
X181575007Y-87083091D02*
G01*
X181515714Y-87931020D01*
X180318637Y-87847313D01*
X180377930Y-86999383D01*
X181575007Y-87083091D01*
G37*
X181575007Y-87083091D02*
X181515714Y-87931020D01*
X180318637Y-87847313D01*
X180377930Y-86999383D01*
X181575007Y-87083091D01*
G36*
X178033655Y-86835455D02*
G01*
X177974362Y-87683385D01*
X176777285Y-87599677D01*
X176836578Y-86751748D01*
X178033655Y-86835455D01*
G37*
X178033655Y-86835455D02*
X177974362Y-87683385D01*
X176777285Y-87599677D01*
X176836578Y-86751748D01*
X178033655Y-86835455D01*
%TO.C,L16*%
G36*
X163681641Y-70293616D02*
G01*
X163642389Y-71042588D01*
X162144444Y-70964084D01*
X162183696Y-70215112D01*
X163681641Y-70293616D01*
G37*
X163681641Y-70293616D02*
X163642389Y-71042588D01*
X162144444Y-70964084D01*
X162183696Y-70215112D01*
X163681641Y-70293616D01*
G36*
X163773229Y-68546014D02*
G01*
X163733977Y-69294986D01*
X162236032Y-69216482D01*
X162275284Y-68467510D01*
X163773229Y-68546014D01*
G37*
X163773229Y-68546014D02*
X163733977Y-69294986D01*
X162236032Y-69216482D01*
X162275284Y-68467510D01*
X163773229Y-68546014D01*
G36*
X158688493Y-70031936D02*
G01*
X158649241Y-70780908D01*
X157151297Y-70702404D01*
X157190549Y-69953432D01*
X158688493Y-70031936D01*
G37*
X158688493Y-70031936D02*
X158649241Y-70780908D01*
X157151297Y-70702404D01*
X157190549Y-69953432D01*
X158688493Y-70031936D01*
G36*
X158780081Y-68284334D02*
G01*
X158740829Y-69033306D01*
X157242885Y-68954802D01*
X157269053Y-68455488D01*
X157531794Y-68218914D01*
X158780081Y-68284334D01*
G37*
X158780081Y-68284334D02*
X158740829Y-69033306D01*
X157242885Y-68954802D01*
X157269053Y-68455488D01*
X157531794Y-68218914D01*
X158780081Y-68284334D01*
%TO.C,SW11*%
G36*
X169209234Y-57491362D02*
G01*
X169109795Y-59388759D01*
X166912810Y-59273619D01*
X167012249Y-57376223D01*
X169209234Y-57491362D01*
G37*
X169209234Y-57491362D02*
X169109795Y-59388759D01*
X166912810Y-59273619D01*
X167012249Y-57376223D01*
X169209234Y-57491362D01*
G36*
X156393705Y-59363215D02*
G01*
X156294267Y-61260611D01*
X154097282Y-61145472D01*
X154196720Y-59248076D01*
X156393705Y-59363215D01*
G37*
X156393705Y-59363215D02*
X156294267Y-61260611D01*
X154097282Y-61145472D01*
X154196720Y-59248076D01*
X156393705Y-59363215D01*
%TO.C,L9*%
G36*
X117296846Y-51662602D02*
G01*
X115798901Y-51741106D01*
X115772733Y-51241791D01*
X116009307Y-50979050D01*
X117257594Y-50913630D01*
X117296846Y-51662602D01*
G37*
X117296846Y-51662602D02*
X115798901Y-51741106D01*
X115772733Y-51241791D01*
X116009307Y-50979050D01*
X117257594Y-50913630D01*
X117296846Y-51662602D01*
G36*
X117388434Y-53410204D02*
G01*
X115890489Y-53488708D01*
X115851237Y-52739736D01*
X117349182Y-52661232D01*
X117388434Y-53410204D01*
G37*
X117388434Y-53410204D02*
X115890489Y-53488708D01*
X115851237Y-52739736D01*
X117349182Y-52661232D01*
X117388434Y-53410204D01*
G36*
X122381581Y-53148524D02*
G01*
X120883637Y-53227028D01*
X120844385Y-52478056D01*
X122342329Y-52399552D01*
X122381581Y-53148524D01*
G37*
X122381581Y-53148524D02*
X120883637Y-53227028D01*
X120844385Y-52478056D01*
X122342329Y-52399552D01*
X122381581Y-53148524D01*
G36*
X122289993Y-51400922D02*
G01*
X120792049Y-51479426D01*
X120752797Y-50730454D01*
X122250741Y-50651950D01*
X122289993Y-51400922D01*
G37*
X122289993Y-51400922D02*
X120792049Y-51479426D01*
X120752797Y-50730454D01*
X122250741Y-50651950D01*
X122289993Y-51400922D01*
%TO.C,D10*%
G36*
X142569392Y-60080529D02*
G01*
X141369392Y-60080529D01*
X141369392Y-59230529D01*
X142569392Y-59230529D01*
X142569392Y-60080529D01*
G37*
X142569392Y-60080529D02*
X141369392Y-60080529D01*
X141369392Y-59230529D01*
X142569392Y-59230529D01*
X142569392Y-60080529D01*
G36*
X139019392Y-60080529D02*
G01*
X137819392Y-60080529D01*
X137819392Y-59230529D01*
X139019392Y-59230529D01*
X139019392Y-60080529D01*
G37*
X139019392Y-60080529D02*
X137819392Y-60080529D01*
X137819392Y-59230529D01*
X139019392Y-59230529D01*
X139019392Y-60080529D01*
%TO.C,L17*%
G36*
X178440344Y-72776579D02*
G01*
X178388027Y-73524752D01*
X176891681Y-73420117D01*
X176926559Y-72921335D01*
X177193389Y-72689383D01*
X178440344Y-72776579D01*
G37*
X178440344Y-72776579D02*
X178388027Y-73524752D01*
X176891681Y-73420117D01*
X176926559Y-72921335D01*
X177193389Y-72689383D01*
X178440344Y-72776579D01*
G36*
X183306091Y-74871098D02*
G01*
X183253773Y-75619271D01*
X181757427Y-75514636D01*
X181809744Y-74766463D01*
X183306091Y-74871098D01*
G37*
X183306091Y-74871098D02*
X183253773Y-75619271D01*
X181757427Y-75514636D01*
X181809744Y-74766463D01*
X183306091Y-74871098D01*
G36*
X178318270Y-74522316D02*
G01*
X178265953Y-75270489D01*
X176769607Y-75165854D01*
X176821924Y-74417681D01*
X178318270Y-74522316D01*
G37*
X178318270Y-74522316D02*
X178265953Y-75270489D01*
X176769607Y-75165854D01*
X176821924Y-74417681D01*
X178318270Y-74522316D01*
G36*
X183428164Y-73125361D02*
G01*
X183375847Y-73873534D01*
X181879501Y-73768899D01*
X181931818Y-73020726D01*
X183428164Y-73125361D01*
G37*
X183428164Y-73125361D02*
X183375847Y-73873534D01*
X181879501Y-73768899D01*
X181931818Y-73020726D01*
X183428164Y-73125361D01*
%TO.C,SW6*%
G36*
X190402852Y-42910288D02*
G01*
X190270314Y-44805660D01*
X188075674Y-44652195D01*
X188208211Y-42756824D01*
X190402852Y-42910288D01*
G37*
X190402852Y-42910288D02*
X190270314Y-44805660D01*
X188075674Y-44652195D01*
X188208211Y-42756824D01*
X190402852Y-42910288D01*
G36*
X177556607Y-44558193D02*
G01*
X177424070Y-46453565D01*
X175229429Y-46300101D01*
X175361966Y-44404729D01*
X177556607Y-44558193D01*
G37*
X177556607Y-44558193D02*
X177424070Y-46453565D01*
X175229429Y-46300101D01*
X175361966Y-44404729D01*
X177556607Y-44558193D01*
%TO.C,L4*%
G36*
X143444392Y-28373529D02*
G01*
X141944392Y-28373529D01*
X141944392Y-27623529D01*
X143444392Y-27623529D01*
X143444392Y-28373529D01*
G37*
X143444392Y-28373529D02*
X141944392Y-28373529D01*
X141944392Y-27623529D01*
X143444392Y-27623529D01*
X143444392Y-28373529D01*
G36*
X143444392Y-26623529D02*
G01*
X141944392Y-26623529D01*
X141944392Y-25873529D01*
X143444392Y-25873529D01*
X143444392Y-26623529D01*
G37*
X143444392Y-26623529D02*
X141944392Y-26623529D01*
X141944392Y-25873529D01*
X143444392Y-25873529D01*
X143444392Y-26623529D01*
G36*
X138444392Y-26623529D02*
G01*
X136944392Y-26623529D01*
X136944392Y-26123529D01*
X137194392Y-25873529D01*
X138444392Y-25873529D01*
X138444392Y-26623529D01*
G37*
X138444392Y-26623529D02*
X136944392Y-26623529D01*
X136944392Y-26123529D01*
X137194392Y-25873529D01*
X138444392Y-25873529D01*
X138444392Y-26623529D01*
G36*
X138444392Y-28373529D02*
G01*
X136944392Y-28373529D01*
X136944392Y-27623529D01*
X138444392Y-27623529D01*
X138444392Y-28373529D01*
G37*
X138444392Y-28373529D02*
X136944392Y-28373529D01*
X136944392Y-27623529D01*
X138444392Y-27623529D01*
X138444392Y-28373529D01*
%TO.C,D4*%
G36*
X139019392Y-40776529D02*
G01*
X137819392Y-40776529D01*
X137819392Y-39926529D01*
X139019392Y-39926529D01*
X139019392Y-40776529D01*
G37*
X139019392Y-40776529D02*
X137819392Y-40776529D01*
X137819392Y-39926529D01*
X139019392Y-39926529D01*
X139019392Y-40776529D01*
G36*
X142569392Y-40776529D02*
G01*
X141369392Y-40776529D01*
X141369392Y-39926529D01*
X142569392Y-39926529D01*
X142569392Y-40776529D01*
G37*
X142569392Y-40776529D02*
X141369392Y-40776529D01*
X141369392Y-39926529D01*
X142569392Y-39926529D01*
X142569392Y-40776529D01*
%TO.C,L3*%
G36*
X121371288Y-33870980D02*
G01*
X119873344Y-33949484D01*
X119834092Y-33200512D01*
X121332036Y-33122008D01*
X121371288Y-33870980D01*
G37*
X121371288Y-33870980D02*
X119873344Y-33949484D01*
X119834092Y-33200512D01*
X121332036Y-33122008D01*
X121371288Y-33870980D01*
G36*
X121279700Y-32123378D02*
G01*
X119781756Y-32201882D01*
X119742504Y-31452910D01*
X121240448Y-31374406D01*
X121279700Y-32123378D01*
G37*
X121279700Y-32123378D02*
X119781756Y-32201882D01*
X119742504Y-31452910D01*
X121240448Y-31374406D01*
X121279700Y-32123378D01*
G36*
X116378141Y-34132660D02*
G01*
X114880196Y-34211164D01*
X114840944Y-33462192D01*
X116338889Y-33383688D01*
X116378141Y-34132660D01*
G37*
X116378141Y-34132660D02*
X114880196Y-34211164D01*
X114840944Y-33462192D01*
X116338889Y-33383688D01*
X116378141Y-34132660D01*
G36*
X116286553Y-32385058D02*
G01*
X114788608Y-32463562D01*
X114762440Y-31964247D01*
X114999014Y-31701506D01*
X116247301Y-31636086D01*
X116286553Y-32385058D01*
G37*
X116286553Y-32385058D02*
X114788608Y-32463562D01*
X114762440Y-31964247D01*
X114999014Y-31701506D01*
X116247301Y-31636086D01*
X116286553Y-32385058D01*
%TO.C,SW5*%
G36*
X157403999Y-40085670D02*
G01*
X157304561Y-41983066D01*
X155107576Y-41867927D01*
X155207014Y-39970531D01*
X157403999Y-40085670D01*
G37*
X157403999Y-40085670D02*
X157304561Y-41983066D01*
X155107576Y-41867927D01*
X155207014Y-39970531D01*
X157403999Y-40085670D01*
G36*
X170219528Y-38213817D02*
G01*
X170120089Y-40111214D01*
X167923104Y-39996074D01*
X168022543Y-38098678D01*
X170219528Y-38213817D01*
G37*
X170219528Y-38213817D02*
X170120089Y-40111214D01*
X167923104Y-39996074D01*
X168022543Y-38098678D01*
X170219528Y-38213817D01*
%TO.C,SW7*%
G36*
X77697439Y-89432579D02*
G01*
X75505810Y-89624322D01*
X75340215Y-87731552D01*
X77531843Y-87539809D01*
X77697439Y-89432579D01*
G37*
X77697439Y-89432579D02*
X75505810Y-89624322D01*
X75340215Y-87731552D01*
X77531843Y-87539809D01*
X77697439Y-89432579D01*
G36*
X90127736Y-85795367D02*
G01*
X87936107Y-85987109D01*
X87770512Y-84094339D01*
X89962140Y-83902597D01*
X90127736Y-85795367D01*
G37*
X90127736Y-85795367D02*
X87936107Y-85987109D01*
X87770512Y-84094339D01*
X89962140Y-83902597D01*
X90127736Y-85795367D01*
%TO.C,SW20*%
G36*
X184458330Y-109261161D02*
G01*
X183655355Y-110983146D01*
X181661478Y-110053386D01*
X182464453Y-108331401D01*
X184458330Y-109261161D01*
G37*
X184458330Y-109261161D02*
X183655355Y-110983146D01*
X181661478Y-110053386D01*
X182464453Y-108331401D01*
X184458330Y-109261161D01*
G36*
X197041889Y-112326392D02*
G01*
X196238915Y-114048376D01*
X194245037Y-113118616D01*
X195048012Y-111396631D01*
X197041889Y-112326392D01*
G37*
X197041889Y-112326392D02*
X196238915Y-114048376D01*
X194245037Y-113118616D01*
X195048012Y-111396631D01*
X197041889Y-112326392D01*
%TO.C,D19*%
G36*
X163498523Y-90726473D02*
G01*
X162648523Y-90726473D01*
X162648523Y-89526473D01*
X163498523Y-89526473D01*
X163498523Y-90726473D01*
G37*
X163498523Y-90726473D02*
X162648523Y-90726473D01*
X162648523Y-89526473D01*
X163498523Y-89526473D01*
X163498523Y-90726473D01*
G36*
X163498523Y-94276473D02*
G01*
X162648523Y-94276473D01*
X162648523Y-93076473D01*
X163498523Y-93076473D01*
X163498523Y-94276473D01*
G37*
X163498523Y-94276473D02*
X162648523Y-94276473D01*
X162648523Y-93076473D01*
X163498523Y-93076473D01*
X163498523Y-94276473D01*
%TO.C,D13*%
G36*
X101282660Y-101368163D02*
G01*
X100087227Y-101472750D01*
X100013144Y-100625984D01*
X101208578Y-100521397D01*
X101282660Y-101368163D01*
G37*
X101282660Y-101368163D02*
X100087227Y-101472750D01*
X100013144Y-100625984D01*
X101208578Y-100521397D01*
X101282660Y-101368163D01*
G36*
X104819152Y-101058760D02*
G01*
X103623718Y-101163347D01*
X103549636Y-100316581D01*
X104745069Y-100211994D01*
X104819152Y-101058760D01*
G37*
X104819152Y-101058760D02*
X103623718Y-101163347D01*
X103549636Y-100316581D01*
X104745069Y-100211994D01*
X104819152Y-101058760D01*
%TO.C,SW19*%
G36*
X178073548Y-103749861D02*
G01*
X177581792Y-105585120D01*
X175456755Y-105015719D01*
X175948511Y-103180459D01*
X178073548Y-103749861D01*
G37*
X178073548Y-103749861D02*
X177581792Y-105585120D01*
X175456755Y-105015719D01*
X175948511Y-103180459D01*
X178073548Y-103749861D01*
G36*
X165148890Y-102916311D02*
G01*
X164657134Y-104751570D01*
X162532097Y-104182168D01*
X163023853Y-102346909D01*
X165148890Y-102916311D01*
G37*
X165148890Y-102916311D02*
X164657134Y-104751570D01*
X162532097Y-104182168D01*
X163023853Y-102346909D01*
X165148890Y-102916311D01*
%TO.C,L14*%
G36*
X123391875Y-72426068D02*
G01*
X121893931Y-72504572D01*
X121854679Y-71755600D01*
X123352623Y-71677096D01*
X123391875Y-72426068D01*
G37*
X123391875Y-72426068D02*
X121893931Y-72504572D01*
X121854679Y-71755600D01*
X123352623Y-71677096D01*
X123391875Y-72426068D01*
G36*
X118307140Y-70940146D02*
G01*
X116809195Y-71018650D01*
X116783027Y-70519335D01*
X117019601Y-70256594D01*
X118267888Y-70191174D01*
X118307140Y-70940146D01*
G37*
X118307140Y-70940146D02*
X116809195Y-71018650D01*
X116783027Y-70519335D01*
X117019601Y-70256594D01*
X118267888Y-70191174D01*
X118307140Y-70940146D01*
G36*
X123300287Y-70678466D02*
G01*
X121802343Y-70756970D01*
X121763091Y-70007998D01*
X123261035Y-69929494D01*
X123300287Y-70678466D01*
G37*
X123300287Y-70678466D02*
X121802343Y-70756970D01*
X121763091Y-70007998D01*
X123261035Y-69929494D01*
X123300287Y-70678466D01*
G36*
X118398728Y-72687748D02*
G01*
X116900783Y-72766252D01*
X116861531Y-72017280D01*
X118359476Y-71938776D01*
X118398728Y-72687748D01*
G37*
X118398728Y-72687748D02*
X116900783Y-72766252D01*
X116861531Y-72017280D01*
X118359476Y-71938776D01*
X118398728Y-72687748D01*
%TO.C,SW15*%
G36*
X148294392Y-74361529D02*
G01*
X146094392Y-74361529D01*
X146094392Y-72461529D01*
X148294392Y-72461529D01*
X148294392Y-74361529D01*
G37*
X148294392Y-74361529D02*
X146094392Y-74361529D01*
X146094392Y-72461529D01*
X148294392Y-72461529D01*
X148294392Y-74361529D01*
G36*
X135594392Y-76901529D02*
G01*
X133394392Y-76901529D01*
X133394392Y-75001529D01*
X135594392Y-75001529D01*
X135594392Y-76901529D01*
G37*
X135594392Y-76901529D02*
X133394392Y-76901529D01*
X133394392Y-75001529D01*
X135594392Y-75001529D01*
X135594392Y-76901529D01*
%TO.C,SW9*%
G36*
X115061512Y-63465766D02*
G01*
X112864527Y-63580905D01*
X112765089Y-61683509D01*
X114962074Y-61568370D01*
X115061512Y-63465766D01*
G37*
X115061512Y-63465766D02*
X112864527Y-63580905D01*
X112765089Y-61683509D01*
X114962074Y-61568370D01*
X115061512Y-63465766D01*
G36*
X127611174Y-60264580D02*
G01*
X125414189Y-60379719D01*
X125314751Y-58482323D01*
X127511736Y-58367184D01*
X127611174Y-60264580D01*
G37*
X127611174Y-60264580D02*
X125414189Y-60379719D01*
X125314751Y-58482323D01*
X127511736Y-58367184D01*
X127611174Y-60264580D01*
%TO.C,D6*%
G36*
X184268165Y-48569139D02*
G01*
X184208872Y-49417068D01*
X183011795Y-49333361D01*
X183071088Y-48485431D01*
X184268165Y-48569139D01*
G37*
X184268165Y-48569139D02*
X184208872Y-49417068D01*
X183011795Y-49333361D01*
X183071088Y-48485431D01*
X184268165Y-48569139D01*
G36*
X180726813Y-48321503D02*
G01*
X180667520Y-49169433D01*
X179470443Y-49085725D01*
X179529736Y-48237796D01*
X180726813Y-48321503D01*
G37*
X180726813Y-48321503D02*
X180667520Y-49169433D01*
X179470443Y-49085725D01*
X179529736Y-48237796D01*
X180726813Y-48321503D01*
%TO.C,SW1*%
G36*
X88445282Y-66564824D02*
G01*
X86253653Y-66756566D01*
X86088058Y-64863796D01*
X88279686Y-64672054D01*
X88445282Y-66564824D01*
G37*
X88445282Y-66564824D02*
X86253653Y-66756566D01*
X86088058Y-64863796D01*
X88279686Y-64672054D01*
X88445282Y-66564824D01*
G36*
X76014985Y-70202036D02*
G01*
X73823356Y-70393779D01*
X73657761Y-68501009D01*
X75849389Y-68309266D01*
X76014985Y-70202036D01*
G37*
X76014985Y-70202036D02*
X73823356Y-70393779D01*
X73657761Y-68501009D01*
X75849389Y-68309266D01*
X76014985Y-70202036D01*
%TO.C,D15*%
G36*
X139019392Y-79384529D02*
G01*
X137819392Y-79384529D01*
X137819392Y-78534529D01*
X139019392Y-78534529D01*
X139019392Y-79384529D01*
G37*
X139019392Y-79384529D02*
X137819392Y-79384529D01*
X137819392Y-78534529D01*
X139019392Y-78534529D01*
X139019392Y-79384529D01*
G36*
X142569392Y-79384529D02*
G01*
X141369392Y-79384529D01*
X141369392Y-78534529D01*
X142569392Y-78534529D01*
X142569392Y-79384529D01*
G37*
X142569392Y-79384529D02*
X141369392Y-79384529D01*
X141369392Y-78534529D01*
X142569392Y-78534529D01*
X142569392Y-79384529D01*
%TO.C,O1*%
G36*
X203383529Y-78606000D02*
G01*
X202367529Y-78606000D01*
X202367529Y-77590000D01*
X203383529Y-77590000D01*
X203383529Y-78606000D01*
G37*
X203383529Y-78606000D02*
X202367529Y-78606000D01*
X202367529Y-77590000D01*
X203383529Y-77590000D01*
X203383529Y-78606000D01*
G36*
X208463529Y-78606000D02*
G01*
X207447529Y-78606000D01*
X207447529Y-77590000D01*
X208463529Y-77590000D01*
X208463529Y-78606000D01*
G37*
X208463529Y-78606000D02*
X207447529Y-78606000D01*
X207447529Y-77590000D01*
X208463529Y-77590000D01*
X208463529Y-78606000D01*
G36*
X205923529Y-78606000D02*
G01*
X204907529Y-78606000D01*
X204907529Y-77590000D01*
X205923529Y-77590000D01*
X205923529Y-78606000D01*
G37*
X205923529Y-78606000D02*
X204907529Y-78606000D01*
X204907529Y-77590000D01*
X205923529Y-77590000D01*
X205923529Y-78606000D01*
G36*
X200843529Y-78606000D02*
G01*
X199827529Y-78606000D01*
X199827529Y-77590000D01*
X200843529Y-77590000D01*
X200843529Y-78606000D01*
G37*
X200843529Y-78606000D02*
X199827529Y-78606000D01*
X199827529Y-77590000D01*
X200843529Y-77590000D01*
X200843529Y-78606000D01*
%TO.C,L1*%
G36*
X77837032Y-58328051D02*
G01*
X76342740Y-58458784D01*
X76299162Y-57960687D01*
X76526422Y-57689849D01*
X77771665Y-57580905D01*
X77837032Y-58328051D01*
G37*
X77837032Y-58328051D02*
X76342740Y-58458784D01*
X76299162Y-57960687D01*
X76526422Y-57689849D01*
X77771665Y-57580905D01*
X77837032Y-58328051D01*
G36*
X82818005Y-57892272D02*
G01*
X81323713Y-58023006D01*
X81258346Y-57275860D01*
X82752639Y-57145126D01*
X82818005Y-57892272D01*
G37*
X82818005Y-57892272D02*
X81323713Y-58023006D01*
X81258346Y-57275860D01*
X82752639Y-57145126D01*
X82818005Y-57892272D01*
G36*
X82970528Y-59635613D02*
G01*
X81476236Y-59766346D01*
X81410869Y-59019200D01*
X82905161Y-58888467D01*
X82970528Y-59635613D01*
G37*
X82970528Y-59635613D02*
X81476236Y-59766346D01*
X81410869Y-59019200D01*
X82905161Y-58888467D01*
X82970528Y-59635613D01*
G36*
X77989554Y-60071391D02*
G01*
X76495262Y-60202125D01*
X76429896Y-59454979D01*
X77924188Y-59324245D01*
X77989554Y-60071391D01*
G37*
X77989554Y-60071391D02*
X76495262Y-60202125D01*
X76429896Y-59454979D01*
X77924188Y-59324245D01*
X77989554Y-60071391D01*
%TO.C,D1*%
G36*
X83179850Y-72067677D02*
G01*
X81984416Y-72172264D01*
X81910334Y-71325498D01*
X83105767Y-71220911D01*
X83179850Y-72067677D01*
G37*
X83179850Y-72067677D02*
X81984416Y-72172264D01*
X81910334Y-71325498D01*
X83105767Y-71220911D01*
X83179850Y-72067677D01*
G36*
X79643358Y-72377080D02*
G01*
X78447925Y-72481667D01*
X78373842Y-71634901D01*
X79569276Y-71530314D01*
X79643358Y-72377080D01*
G37*
X79643358Y-72377080D02*
X78447925Y-72481667D01*
X78373842Y-71634901D01*
X79569276Y-71530314D01*
X79643358Y-72377080D01*
%TO.C,SW16*%
G36*
X168198941Y-76768906D02*
G01*
X168099502Y-78666303D01*
X165902517Y-78551163D01*
X166001956Y-76653767D01*
X168198941Y-76768906D01*
G37*
X168198941Y-76768906D02*
X168099502Y-78666303D01*
X165902517Y-78551163D01*
X166001956Y-76653767D01*
X168198941Y-76768906D01*
G36*
X155383412Y-78640759D02*
G01*
X155283974Y-80538155D01*
X153086989Y-80423016D01*
X153186427Y-78525620D01*
X155383412Y-78640759D01*
G37*
X155383412Y-78640759D02*
X155283974Y-80538155D01*
X153086989Y-80423016D01*
X153186427Y-78525620D01*
X155383412Y-78640759D01*
%TO.C,L12*%
G36*
X184774742Y-53868384D02*
G01*
X184722425Y-54616557D01*
X183226079Y-54511922D01*
X183278396Y-53763749D01*
X184774742Y-53868384D01*
G37*
X184774742Y-53868384D02*
X184722425Y-54616557D01*
X183226079Y-54511922D01*
X183278396Y-53763749D01*
X184774742Y-53868384D01*
G36*
X179786922Y-53519602D02*
G01*
X179734605Y-54267775D01*
X178238259Y-54163140D01*
X178273137Y-53664358D01*
X178539967Y-53432406D01*
X179786922Y-53519602D01*
G37*
X179786922Y-53519602D02*
X179734605Y-54267775D01*
X178238259Y-54163140D01*
X178273137Y-53664358D01*
X178539967Y-53432406D01*
X179786922Y-53519602D01*
G36*
X179664848Y-55265339D02*
G01*
X179612531Y-56013512D01*
X178116185Y-55908877D01*
X178168502Y-55160704D01*
X179664848Y-55265339D01*
G37*
X179664848Y-55265339D02*
X179612531Y-56013512D01*
X178116185Y-55908877D01*
X178168502Y-55160704D01*
X179664848Y-55265339D01*
G36*
X184652669Y-55614121D02*
G01*
X184600351Y-56362294D01*
X183104005Y-56257659D01*
X183156322Y-55509486D01*
X184652669Y-55614121D01*
G37*
X184652669Y-55614121D02*
X184600351Y-56362294D01*
X183104005Y-56257659D01*
X183156322Y-55509486D01*
X184652669Y-55614121D01*
%TO.C,D9*%
G36*
X118611769Y-65766112D02*
G01*
X117413414Y-65828915D01*
X117368928Y-64980080D01*
X118567284Y-64917277D01*
X118611769Y-65766112D01*
G37*
X118611769Y-65766112D02*
X117413414Y-65828915D01*
X117368928Y-64980080D01*
X118567284Y-64917277D01*
X118611769Y-65766112D01*
G36*
X122156904Y-65580320D02*
G01*
X120958548Y-65643123D01*
X120914063Y-64794288D01*
X122112418Y-64731485D01*
X122156904Y-65580320D01*
G37*
X122156904Y-65580320D02*
X120958548Y-65643123D01*
X120914063Y-64794288D01*
X122112418Y-64731485D01*
X122156904Y-65580320D01*
%TD*%
D11*
%TO.C,EN1*%
X150819424Y-89530968D03*
D12*
X145819424Y-89530968D03*
X148319424Y-89530968D03*
X145819424Y-104030968D03*
X150819424Y-104030968D03*
%TD*%
D13*
%TO.C,*%
X158775970Y-101782173D03*
%TD*%
D14*
%TO.C,D7*%
X78896909Y-91393500D03*
D12*
X86021693Y-90770162D03*
%TD*%
D13*
%TO.C,*%
X149603000Y-60960000D03*
%TD*%
D11*
%TO.C,D20*%
X160438337Y-88374968D03*
D12*
X160438337Y-95526968D03*
%TD*%
D15*
%TO.C,SW17*%
X184810752Y-79587547D03*
D16*
X181922577Y-84477991D03*
X183366665Y-82032769D03*
D15*
X174675502Y-78878821D03*
D16*
X176854951Y-84123628D03*
X175765226Y-81501226D03*
D17*
X179743127Y-79233184D03*
%TD*%
%TO.C,SW4*%
X140194392Y-32223529D03*
D16*
X136384392Y-34763530D03*
D15*
X135114392Y-32223529D03*
D16*
X144004392Y-34763529D03*
D15*
X145274392Y-32223529D03*
D16*
X142734392Y-37303529D03*
X137654392Y-37303529D03*
%TD*%
%TO.C,SW18*%
X145779424Y-102110968D03*
D15*
X143239424Y-97030968D03*
D16*
X152129424Y-99570968D03*
X144509424Y-99570969D03*
D15*
X153399424Y-97030968D03*
D16*
X150859424Y-102110968D03*
D17*
X148319424Y-97030968D03*
%TD*%
D13*
%TO.C,*%
X151244988Y-32143541D03*
%TD*%
D18*
%TO.C,D14*%
X117202110Y-84744897D03*
D12*
X124344308Y-84370591D03*
%TD*%
D13*
%TO.C,*%
X197056000Y-40132000D03*
%TD*%
%TO.C,*%
X91703707Y-91731488D03*
%TD*%
D19*
%TO.C,B-*%
X210259993Y-43595113D03*
%TD*%
D16*
%TO.C,SW13*%
X105724623Y-94943573D03*
X99620163Y-98027347D03*
D15*
X106768415Y-92302551D03*
D16*
X104680832Y-97584595D03*
D17*
X101707746Y-92745302D03*
D15*
X96647077Y-93188053D03*
D16*
X98133620Y-95607701D03*
%TD*%
D18*
%TO.C,D3*%
X115181523Y-46189809D03*
D12*
X122323721Y-45815503D03*
%TD*%
D20*
%TO.C,D12*%
X176955437Y-67834960D03*
D12*
X184090015Y-68333858D03*
%TD*%
D16*
%TO.C,SW10*%
X137654392Y-56607529D03*
D15*
X145274392Y-51527529D03*
D17*
X140194392Y-51527529D03*
D16*
X142734392Y-56607529D03*
X144004392Y-54067529D03*
X136384392Y-54067530D03*
D15*
X135114392Y-51527529D03*
%TD*%
D21*
%TO.C,D5*%
X158219450Y-44091838D03*
D12*
X165361648Y-44466144D03*
%TD*%
D13*
%TO.C,*%
X88487061Y-53034620D03*
%TD*%
D22*
%TO.C,PUCK1*%
X168626893Y-63820893D03*
X130579107Y-61826893D03*
X150600000Y-43800000D03*
%TD*%
D16*
%TO.C,SW12*%
X178201530Y-64866652D03*
D15*
X186157331Y-60330571D03*
D16*
X184713244Y-62775793D03*
D17*
X181089706Y-59976208D03*
D16*
X183269156Y-65221015D03*
D15*
X176022081Y-59621845D03*
D16*
X177111805Y-62244250D03*
%TD*%
D11*
%TO.C,D18*%
X157971424Y-88374968D03*
D12*
X157971424Y-95526968D03*
%TD*%
D14*
%TO.C,D8*%
X97171302Y-81923499D03*
D12*
X104296086Y-81300161D03*
%TD*%
D21*
%TO.C,D16*%
X156198863Y-82646927D03*
D12*
X163341061Y-83021233D03*
%TD*%
D16*
%TO.C,SW14*%
X118077170Y-81646855D03*
D15*
X115274784Y-76706751D03*
D16*
X124285534Y-78778003D03*
D17*
X120347822Y-76440884D03*
D15*
X125420860Y-76175017D03*
D16*
X116675977Y-79176804D03*
X123150208Y-81380989D03*
%TD*%
D14*
%TO.C,D2*%
X95488847Y-62692957D03*
D12*
X102613631Y-62069619D03*
%TD*%
D23*
%TO.C,J1*%
X210895675Y-88306422D03*
X203895675Y-88306422D03*
D24*
X201295675Y-90506422D03*
X201295675Y-86106422D03*
X209195675Y-86106422D03*
X209195675Y-90506422D03*
X206195675Y-86106422D03*
X206195675Y-90506422D03*
X202195675Y-90506422D03*
X202195675Y-86106422D03*
%TD*%
D15*
%TO.C,SW3*%
X123400273Y-37619928D03*
D16*
X122264947Y-40222914D03*
X121129621Y-42825900D03*
D17*
X118327235Y-37885795D03*
D16*
X116056583Y-43091766D03*
X114655390Y-40621715D03*
D15*
X113254197Y-38151662D03*
%TD*%
D16*
%TO.C,SW2*%
X94768711Y-57146616D03*
X102359714Y-56482488D03*
D17*
X98342837Y-54284217D03*
D15*
X103403506Y-53841466D03*
D16*
X101315923Y-59123510D03*
D15*
X93282168Y-54726968D03*
D16*
X96255254Y-59566262D03*
%TD*%
D12*
%TO.C,U1*%
X211788000Y-61460500D03*
D25*
X198326000Y-58920500D03*
D26*
X210010000Y-64000500D03*
D12*
X196548000Y-69080500D03*
D26*
X210010000Y-51300500D03*
D12*
X196548000Y-56380500D03*
D26*
X210010000Y-66540500D03*
X210010000Y-71620500D03*
D12*
X196548000Y-66540500D03*
X211788000Y-58920500D03*
D26*
X210010000Y-56380500D03*
D25*
X198326000Y-74160500D03*
X198326000Y-61460500D03*
X198326000Y-46220500D03*
D12*
X196548000Y-58920500D03*
X211788000Y-71620500D03*
X211788000Y-69080500D03*
X211788000Y-66540500D03*
X211788000Y-46220500D03*
X211788000Y-74160500D03*
X196548000Y-51300500D03*
D25*
X198326000Y-56380500D03*
X198326000Y-66540500D03*
D12*
X211788000Y-53840500D03*
X196548000Y-61460500D03*
D25*
X198326000Y-69080500D03*
D26*
X210010000Y-58920500D03*
D25*
X198326000Y-71620500D03*
D12*
X211788000Y-56380500D03*
X196548000Y-74160500D03*
D26*
X210010000Y-74160500D03*
D12*
X196548000Y-64000500D03*
D25*
X198326000Y-51300500D03*
X198326000Y-48760500D03*
D12*
X211788000Y-64000500D03*
X196548000Y-53840500D03*
D25*
X198326000Y-53840500D03*
D26*
X210010000Y-69080500D03*
D12*
X211788000Y-48760500D03*
X211788000Y-51300500D03*
D26*
X210010000Y-46220500D03*
D12*
X196548000Y-46220500D03*
D26*
X210010000Y-53840500D03*
D25*
X198326000Y-64000500D03*
D26*
X210010000Y-61460500D03*
D12*
X196548000Y-48760500D03*
X196548000Y-71620500D03*
D26*
X210010000Y-48760500D03*
D27*
X199342000Y-46220500D03*
X199342000Y-48760500D03*
X199342000Y-51300500D03*
X199342000Y-53840500D03*
X199342000Y-56380500D03*
X199342000Y-58920500D03*
X199342000Y-61460500D03*
X199342000Y-64000500D03*
X199342000Y-66540500D03*
X199342000Y-69080500D03*
X199342000Y-71620500D03*
X199342000Y-74160500D03*
D28*
X208994000Y-74160500D03*
X208994000Y-71620500D03*
X208994000Y-69080500D03*
X208994000Y-66540500D03*
X208994000Y-64000500D03*
X208994000Y-61460500D03*
X208994000Y-58920500D03*
X208994000Y-56380500D03*
X208994000Y-53840500D03*
X208994000Y-51300500D03*
X208994000Y-48760500D03*
X208994000Y-46220500D03*
%TD*%
D16*
%TO.C,SW8*%
X97937709Y-78796804D03*
D15*
X105085961Y-73072008D03*
D16*
X104042169Y-75713030D03*
X102998378Y-78354052D03*
D15*
X94964623Y-73957510D03*
D16*
X96451166Y-76377158D03*
D17*
X100025292Y-73514759D03*
%TD*%
D29*
%TO.C,PSW1*%
X202668000Y-41822854D03*
X205668000Y-41822854D03*
X205668000Y-41822854D03*
X202668000Y-41822854D03*
%TD*%
D21*
%TO.C,D11*%
X157209157Y-63369383D03*
D12*
X164351355Y-63743689D03*
%TD*%
D19*
%TO.C,B+*%
X198161159Y-43595113D03*
%TD*%
D20*
%TO.C,D17*%
X175608857Y-87091935D03*
D12*
X182743435Y-87590833D03*
%TD*%
D16*
%TO.C,SW11*%
X163476294Y-60645646D03*
X164877487Y-58175594D03*
D15*
X166278680Y-55705542D03*
D16*
X157267930Y-57776795D03*
D17*
X161205642Y-55439675D03*
D15*
X156132604Y-55173808D03*
D16*
X158403256Y-60379780D03*
%TD*%
D11*
%TO.C,D10*%
X136618392Y-59655529D03*
D12*
X143770392Y-59655529D03*
%TD*%
D16*
%TO.C,SW6*%
X178458385Y-42987273D03*
D15*
X177368661Y-40364868D03*
X187503911Y-41073594D03*
D16*
X184615736Y-45964038D03*
X186059824Y-43518816D03*
X179548110Y-45609675D03*
D17*
X182436286Y-40719231D03*
%TD*%
D11*
%TO.C,D4*%
X136618392Y-40351529D03*
D12*
X143770392Y-40351529D03*
%TD*%
D16*
%TO.C,SW5*%
X159413550Y-41102235D03*
D15*
X157142898Y-35896263D03*
D17*
X162215936Y-36162130D03*
D16*
X164486588Y-41368101D03*
D15*
X167288974Y-36427997D03*
D16*
X165887781Y-38898049D03*
X158278224Y-38499250D03*
%TD*%
%TO.C,SW7*%
X84723985Y-87824054D03*
D17*
X81750899Y-82984761D03*
D16*
X79663316Y-88266806D03*
X78176773Y-85847160D03*
D15*
X86811568Y-82542010D03*
X76690230Y-83427512D03*
D16*
X85767776Y-85183032D03*
%TD*%
%TO.C,SW20*%
X185863181Y-108117749D03*
X192769246Y-111338099D03*
X185940741Y-110956495D03*
D17*
X190389664Y-107425902D03*
D15*
X194993708Y-109572803D03*
D16*
X190544785Y-113103396D03*
D15*
X185785620Y-105279001D03*
%TD*%
D11*
%TO.C,D19*%
X163073523Y-88325473D03*
D12*
X163073523Y-95477473D03*
%TD*%
D14*
%TO.C,D13*%
X98853756Y-101154041D03*
D12*
X105978540Y-100530703D03*
%TD*%
D16*
%TO.C,SW19*%
X166903172Y-104328471D03*
X173694201Y-103518520D03*
D17*
X170671424Y-100078968D03*
D15*
X175578327Y-101393769D03*
D16*
X166333846Y-101546320D03*
D15*
X165764521Y-98764167D03*
D16*
X171810075Y-105643272D03*
%TD*%
%TO.C,SW15*%
X142734392Y-75911529D03*
X144004392Y-73371529D03*
D15*
X145274392Y-70831529D03*
X135114392Y-70831529D03*
D17*
X140194392Y-70831529D03*
D16*
X137654392Y-75911529D03*
X136384392Y-73371530D03*
%TD*%
D17*
%TO.C,SW9*%
X119337529Y-57163339D03*
D16*
X117066877Y-62369310D03*
D15*
X124410567Y-56897472D03*
D16*
X123275241Y-59500458D03*
X115665684Y-59899259D03*
X122139915Y-62103444D03*
D15*
X114264491Y-57429206D03*
%TD*%
D20*
%TO.C,D6*%
X178302015Y-48577983D03*
D12*
X185436593Y-49076881D03*
%TD*%
D16*
%TO.C,SW1*%
X77980862Y-69036263D03*
X76494319Y-66616617D03*
X84085322Y-65952489D03*
X83041531Y-68593511D03*
D17*
X80068445Y-63754218D03*
D15*
X75007776Y-64196969D03*
X85129114Y-63311467D03*
%TD*%
D11*
%TO.C,D15*%
X136618392Y-78959529D03*
D12*
X143770392Y-78959529D03*
%TD*%
%TO.C,O1*%
X200335529Y-80010000D03*
X205415529Y-80010000D03*
D30*
X200335529Y-78352000D03*
D12*
X207955529Y-80010000D03*
D30*
X207955529Y-78352000D03*
D12*
X202875529Y-80010000D03*
D30*
X205415529Y-78352000D03*
X202875529Y-78352000D03*
D31*
X200335529Y-77336000D03*
X202875529Y-77336000D03*
X205415529Y-77336000D03*
X207955529Y-77336000D03*
%TD*%
D14*
%TO.C,D1*%
X77214454Y-72162958D03*
D12*
X84339238Y-71539620D03*
%TD*%
D16*
%TO.C,SW16*%
X156257637Y-77054339D03*
X163867194Y-77453138D03*
D17*
X160195349Y-74717219D03*
D15*
X155122311Y-74451352D03*
D16*
X157392963Y-79657324D03*
X162466001Y-79923190D03*
D15*
X165268387Y-74983086D03*
%TD*%
D13*
%TO.C,*%
X211280000Y-40132000D03*
%TD*%
D18*
%TO.C,D9*%
X116191817Y-65467353D03*
D12*
X123334015Y-65093047D03*
%TD*%
D13*
%TO.C,*%
X203200000Y-95250000D03*
%TD*%
M02*
