M48
; DRILL file {KiCad (6.0.7)} date Thu Oct 20 09:52:36 2022
; FORMAT={-:-/ absolute / inch / decimal}
; #@! TF.CreationDate,2022-10-20T09:52:36+02:00
; #@! TF.GenerationSoftware,Kicad,Pcbnew,(6.0.7)
; #@! TF.FileFunction,NonPlated,1,2,NPTH
FMAT,2
INCH
; #@! TA.AperFunction,NonPlated,NPTH,ComponentDrill
T1C0.0315
; #@! TA.AperFunction,NonPlated,NPTH,ComponentDrill
T2C0.0354
; #@! TA.AperFunction,NonPlated,NPTH,ComponentDrill
T3C0.0748
; #@! TA.AperFunction,NonPlated,NPTH,ComponentDrill
T4C0.1181
; #@! TA.AperFunction,NonPlated,NPTH,ComponentDrill
T5C0.1614
%
G90
G05
T1
X8.0274Y-3.4766
X8.303Y-3.4766
T2
X7.9791Y-1.6466
X7.9791Y-1.6466
X8.0972Y-1.6466
X8.0972Y-1.6466
T3
X2.9531Y-2.5274
X3.0193Y-3.2845
X3.3515Y-2.4926
X3.4178Y-3.2497
X3.6725Y-2.1546
X3.7388Y-2.9117
X3.805Y-3.6688
X4.071Y-2.1197
X4.1372Y-2.8769
X4.2035Y-3.634
X4.4588Y-1.502
X4.4986Y-2.261
X4.5384Y-3.02
X4.8583Y-1.4811
X4.8981Y-2.2401
X4.9378Y-2.999
X5.3195Y-1.2686
X5.3195Y-2.0286
X5.3195Y-2.7886
X5.6393Y-3.8201
X5.7195Y-1.2686
X5.7195Y-2.0286
X5.7195Y-2.7886
X6.0393Y-3.8201
X6.1072Y-2.9312
X6.147Y-2.1722
X6.1867Y-1.4132
X6.5066Y-2.9521
X6.5262Y-3.8884
X6.5464Y-2.1931
X6.5862Y-1.4342
X6.877Y-3.1055
X6.9125Y-3.9919
X6.93Y-2.3473
X6.983Y-1.5892
X7.276Y-3.1334
X7.3144Y-4.1448
X7.329Y-2.3752
X7.382Y-1.6171
X7.6769Y-4.3139
T4
X3.0116Y-2.6227
X3.0701Y-2.718
X3.0778Y-3.3798
X3.1364Y-3.4751
X3.2694Y-2.7005
X3.3104Y-2.5966
X3.3356Y-3.4576
X3.3767Y-3.3537
X3.7311Y-2.2499
X3.7896Y-2.3451
X3.7973Y-3.007
X3.8558Y-3.1022
X3.8635Y-3.7641
X3.9221Y-3.8593
X3.9888Y-2.3277
X4.0299Y-2.2237
X4.0551Y-3.0848
X4.0961Y-2.9808
X4.1213Y-3.8419
X4.1624Y-3.7379
X4.514Y-1.5993
X4.5538Y-2.3582
X4.5692Y-1.6965
X4.5935Y-3.1172
X4.6089Y-2.4555
X4.6487Y-3.2144
X4.7689Y-1.6861
X4.8087Y-2.445
X4.8136Y-1.5836
X4.8484Y-3.204
X4.8534Y-2.3425
X4.8931Y-3.1015
X5.3695Y-1.3686
X5.3695Y-2.1286
X5.3695Y-2.8886
X5.4195Y-1.4686
X5.4195Y-2.2286
X5.4195Y-2.9886
X5.6195Y-1.4686
X5.6195Y-2.2286
X5.6195Y-2.9886
X5.6695Y-1.3686
X5.6695Y-2.1286
X5.6695Y-2.8886
X5.6893Y-3.9201
X5.7393Y-4.0201
X5.9393Y-4.0201
X5.9893Y-3.9201
X6.1519Y-3.0336
X6.1917Y-2.2747
X6.1966Y-3.1361
X6.2314Y-1.5157
X6.2363Y-2.3772
X6.2761Y-1.6182
X6.3963Y-3.1466
X6.4361Y-2.3876
X6.4515Y-3.0493
X6.4758Y-1.6287
X6.4912Y-2.2904
X6.531Y-1.5314
X6.5486Y-3.9979
X6.571Y-4.1074
X6.7642Y-4.1592
X6.8384Y-4.0755
X6.9199Y-3.2087
X6.9628Y-3.312
X6.9729Y-2.4506
X7.0158Y-2.5538
X7.0259Y-1.6924
X7.0688Y-1.7957
X7.1623Y-3.3259
X7.2153Y-2.5678
X7.2192Y-3.2296
X7.2683Y-1.8096
X7.2722Y-2.4715
X7.3174Y-4.2566
X7.3205Y-4.3684
X7.3252Y-1.7133
X7.5018Y-4.4529
X7.5893Y-4.3834
T5
X3.1523Y-2.51
X3.2185Y-3.2671
X3.8718Y-2.1372
X3.938Y-2.8943
X4.0042Y-3.6514
X4.6586Y-1.4916
X4.6983Y-2.2505
X4.7381Y-3.0095
X5.5195Y-1.2686
X5.5195Y-2.0286
X5.5195Y-2.7886
X5.8393Y-3.8201
X6.3069Y-2.9416
X6.3467Y-2.1827
X6.3865Y-1.4237
X6.7193Y-3.9401
X7.0765Y-3.1194
X7.1295Y-2.3613
X7.1825Y-1.6031
X7.4957Y-4.2294
T0
M30
