M48
; DRILL file {KiCad (6.0.7)} date Thu Oct 20 09:52:36 2022
; FORMAT={-:-/ absolute / inch / decimal}
; #@! TF.CreationDate,2022-10-20T09:52:36+02:00
; #@! TF.GenerationSoftware,Kicad,Pcbnew,(6.0.7)
; #@! TF.FileFunction,Plated,1,2,PTH
FMAT,2
INCH
; #@! TA.AperFunction,Plated,PTH,ComponentDrill
T1C0.0120
; #@! TA.AperFunction,Plated,PTH,ViaDrill
T2C0.0157
; #@! TA.AperFunction,Plated,PTH,ComponentDrill
T3C0.0320
; #@! TA.AperFunction,Plated,PTH,ComponentDrill
T4C0.0394
; #@! TA.AperFunction,Plated,PTH,ComponentDrill
T5C0.0433
; #@! TA.AperFunction,Plated,PTH,ComponentDrill
T6C0.0866
%
G90
G05
T1
X2.9059Y-2.6837
X2.9721Y-3.4408
X3.0211Y-2.3199
X3.0505Y-2.3174
X3.0873Y-3.077
X3.1167Y-3.0745
X3.2191Y-2.3026
X3.2505Y-2.2999
X3.2854Y-3.0597
X3.3167Y-3.057
X3.4251Y-2.6383
X3.4914Y-3.3954
X3.6253Y-2.3109
X3.6916Y-3.068
X3.7405Y-1.9471
X3.7578Y-3.8251
X3.7699Y-1.9445
X3.8068Y-2.7042
X3.8362Y-2.7016
X3.873Y-3.4613
X3.9024Y-3.4587
X3.9386Y-1.9298
X3.97Y-1.927
X4.0048Y-2.6869
X4.0362Y-2.6841
X4.0711Y-3.444
X4.1024Y-3.4412
X4.1446Y-2.2655
X4.2109Y-3.0226
X4.2771Y-3.7797
X4.4062Y-1.6566
X4.446Y-2.4155
X4.4858Y-3.1745
X4.534Y-1.297
X4.5635Y-1.2955
X4.5738Y-2.056
X4.6033Y-2.0544
X4.6136Y-2.8149
X4.6431Y-2.8134
X4.7326Y-1.2866
X4.764Y-1.285
X4.7723Y-2.0456
X4.8038Y-2.0439
X4.8121Y-2.8045
X4.8436Y-2.8029
X4.9268Y-1.6293
X4.9665Y-2.3883
X5.0063Y-3.1472
X5.2588Y-1.4202
X5.2588Y-2.1802
X5.2588Y-2.9402
X5.4053Y-1.0679
X5.4053Y-1.8279
X5.4053Y-2.5879
X5.4348Y-1.0679
X5.4348Y-1.8279
X5.4348Y-2.5879
X5.5787Y-3.9717
X5.6041Y-1.0679
X5.6041Y-1.8279
X5.6041Y-2.5879
X5.6356Y-1.0679
X5.6356Y-1.8279
X5.6356Y-2.5879
X5.7252Y-3.6193
X5.7547Y-3.6193
X5.7801Y-1.4202
X5.7801Y-2.1802
X5.7801Y-2.9402
X5.924Y-3.6193
X5.9555Y-3.6193
X6.0387Y-3.0793
X6.0785Y-2.3204
X6.1Y-3.9717
X6.1182Y-1.5614
X6.2034Y-2.7351
X6.2329Y-2.7367
X6.2432Y-1.9762
X6.2727Y-1.9777
X6.2829Y-1.2172
X6.3124Y-1.2188
X6.4019Y-2.7455
X6.4284Y-4.0191
X6.4334Y-2.7472
X6.4417Y-1.9866
X6.4732Y-1.9882
X6.4815Y-1.2276
X6.5129Y-1.2293
X6.5592Y-3.1066
X6.599Y-2.3477
X6.6388Y-1.5887
X6.657Y-3.7155
X6.6856Y-3.7232
X6.8059Y-3.2524
X6.8491Y-3.767
X6.8589Y-2.4943
X6.8795Y-3.7752
X6.912Y-1.7361
X6.9319Y-4.154
X6.9766Y-2.9112
X7.0061Y-2.9132
X7.0296Y-2.153
X7.0591Y-2.1551
X7.0826Y-1.3949
X7.1121Y-1.3969
X7.1749Y-2.925
X7.1954Y-4.2566
X7.2064Y-2.9272
X7.228Y-2.1669
X7.2594Y-2.1691
X7.281Y-1.4087
X7.3124Y-1.4109
X7.3259Y-3.2888
X7.3789Y-2.5307
X7.432Y-1.7725
X7.477Y-3.9991
X7.5038Y-4.0116
X7.6572Y-4.0832
X7.6678Y-4.4769
X7.6858Y-4.0965
X7.8028Y-3.2067
X7.8028Y-3.2933
X8.3381Y-3.2118
X8.3381Y-3.2882
T2
X3.6531Y-2.6286
X3.6895Y-3.967
X4.418Y-1.882
X4.8394Y-2.6708
X5.2588Y-1.649
X5.3508Y-2.4561
X5.6756Y-3.4744
X5.8433Y-1.1
X5.8953Y-2.6227
X5.8956Y-1.8755
X5.9374Y-2.6866
X5.9386Y-2.0114
X5.9705Y-2.5731
X5.998Y-2.544
X6.1Y-1.1677
X6.5092Y-1.3345
X6.705Y-2.8409
X6.7476Y-1.9501
X6.7502Y-1.6579
X6.7515Y-2.7153
X6.7813Y-2.7591
X7.3873Y-3.4274
X7.3893Y-2.9913
X7.5147Y-2.5749
X7.5542Y-2.2353
X7.8753Y-2.7704
X7.8806Y-2.8516
X7.8964Y-2.8788
X7.9Y-1.9
X7.9Y-2.1
X7.9Y-2.15
X7.9Y-2.25
X7.9Y-2.35
X7.9Y-2.45
X7.9Y-2.55
X7.9Y-2.65
X7.9Y-2.7217
X7.9Y-2.8204
X7.9Y-2.0197
X7.95Y-1.95
X8.0016Y-2.1515
X8.0278Y-2.3008
X8.0297Y-2.0453
X8.0332Y-3.0844
X8.0367Y-1.6557
X8.0375Y-3.045
X8.05Y-1.5966
X8.05Y-1.95
X8.05Y-2.0
X8.1Y-1.85
X8.1Y-2.2
X8.1364Y-3.0514
X8.15Y-1.9
X8.15Y-2.0
X8.15Y-2.1
X8.1533Y-3.011
X8.1636Y-2.0458
X8.1692Y-2.5974
X8.1698Y-2.499
X8.1744Y-2.7958
X8.1758Y-2.8483
X8.1764Y-2.6971
X8.1777Y-2.3979
X8.1791Y-2.2989
X8.19Y-2.1849
X8.2432Y-3.222
T3
X7.8016Y-1.7163
X8.278Y-1.7163
T4
X3.0399Y-2.8411
X3.1062Y-3.5982
X3.3204Y-2.8165
X3.3867Y-3.5736
X3.7594Y-2.4682
X3.8256Y-3.2253
X3.8919Y-3.9824
X4.0399Y-2.4437
X4.1061Y-3.2008
X4.1724Y-3.9579
X4.5347Y-1.8185
X4.5745Y-2.5775
X4.6143Y-3.3364
X4.8159Y-1.8038
X4.8557Y-2.5627
X4.8954Y-3.3217
X5.3787Y-1.5886
X5.3787Y-2.3486
X5.3787Y-3.1086
X5.6603Y-1.5886
X5.6603Y-2.3486
X5.6603Y-3.1086
X6.1496Y-3.2538
X6.1893Y-2.4949
X6.2193Y-3.4793
X6.2193Y-3.7609
X6.2291Y-1.7359
X6.3165Y-3.4793
X6.3165Y-3.7609
X6.4202Y-3.4774
X6.4202Y-3.759
X6.4308Y-3.2686
X6.4705Y-2.5096
X6.5103Y-1.7506
X6.9137Y-3.4288
X6.9667Y-2.6707
X7.0198Y-1.9125
X7.1946Y-3.4485
X7.2476Y-2.6903
X7.3007Y-1.9322
T5
X5.7409Y-3.5248
X5.7409Y-4.0957
X5.8393Y-3.5248
X5.9378Y-3.5248
X5.9378Y-4.0957
X7.7381Y-1.8197
X7.7381Y-1.9197
X7.7381Y-2.0197
X7.7381Y-2.1197
X7.7381Y-2.2197
X7.7381Y-2.3197
X7.7381Y-2.4197
X7.7381Y-2.5197
X7.7381Y-2.6197
X7.7381Y-2.7197
X7.7381Y-2.8197
X7.7381Y-2.9197
X7.8872Y-3.15
X7.9872Y-3.15
X8.0872Y-3.15
X8.1872Y-3.15
X8.3381Y-1.8197
X8.3381Y-1.9197
X8.3381Y-2.0197
X8.3381Y-2.1197
X8.3381Y-2.2197
X8.3381Y-2.3197
X8.3381Y-2.4197
X8.3381Y-2.5197
X8.3381Y-2.6197
X8.3381Y-2.7197
X8.3381Y-2.8197
X8.3381Y-2.9197
T6
X3.4837Y-2.088
X3.6104Y-3.6115
X5.1409Y-2.4341
X5.8899Y-2.4
X5.9291Y-1.7244
X5.9545Y-1.2655
X6.251Y-4.0072
X6.6389Y-2.5126
X7.7581Y-1.58
X8.0Y-3.75
X8.3181Y-1.58
T4
G00X7.9152Y-3.39
M15
G01X7.9349Y-3.39
M16
G05
G00X7.9152Y-3.5632
M15
G01X7.9349Y-3.5632
M16
G05
G00X7.9506Y-3.39
M15
G01X7.9703Y-3.39
M16
G05
G00X7.9506Y-3.5632
M15
G01X7.9703Y-3.5632
M16
G05
G00X8.1081Y-3.39
M15
G01X8.1278Y-3.39
M16
G05
G00X8.1278Y-3.5632
M15
G01X8.1081Y-3.5632
M16
G05
G00X8.2262Y-3.39
M15
G01X8.2459Y-3.39
M16
G05
G00X8.2459Y-3.5632
M15
G01X8.2262Y-3.5632
M16
G05
T0
M30
